<svg xmlns="http://www.w3.org/2000/svg" width="404.45" height="173.282" viewBox="0 0 404.45 173.282">
    <defs>
        <style>
            .cls-1{fill:none}.cls-2,.cls-4{fill:#00a297}.cls-3{fill:#314f6a}.cls-4{stroke:#00a297;stroke-width:2px}
        </style>
    </defs>
    <g id="Group_987" transform="translate(-426.65 -254.941)">
        <g id="Group_985" transform="translate(316.747 -113.499)">
            <path id="Path_580" d="M224.277 453.8a51.132 51.132 0 0 0 48.476 49.72 51.2 51.2 0 0 1-48.476-49.72z" class="cls-1" transform="translate(0.011 37.139)"/>
            <path id="Path_581" d="M275.385 417.356a51.132 51.132 0 0 0-51.113 50.037 51.19 51.19 0 0 1 51.113-50.037z" class="cls-1" transform="translate(0.008 21.085)"/>
            <path id="Path_582" d="M336.77 445.169l.013-.013a51.238 51.238 0 0 0-33.635-26.793l-.006.006a51.326 51.326 0 0 1 33.628 26.8z" class="cls-1" transform="translate(34.757 21.528)"/>
            <path id="Path_583" d="M296.579 497.035a51.146 51.146 0 0 0 43.276-28.529l-.022.007a51.217 51.217 0 0 1-43.254 28.522z" class="cls-1" transform="translate(31.865 43.62)"/>
            <path id="Path_584" d="M260.557 488.376q-1.322 0-2.63-.066 1.307.067 2.63.066h50.42q1.322 0 2.631-.066-1.307.067-2.631.066z" class="cls-2" transform="translate(14.836 52.346)"/>
            <path id="Path_585" d="M224.28 452.09c-.007.367-.027.733-.027 1.1 0 .455.023.9.035 1.354-.012-.451-.035-.9-.035-1.354 0-.367.02-.733.027-1.1z" class="cls-2" transform="translate(0 36.388)"/>
            <path id="Path_586" d="M326.5 436.962l-.013.013a50.99 50.99 0 0 1 .171 45.436l.022-.007a51.151 51.151 0 0 0-.18-45.442z" class="cls-3" transform="translate(45.042 29.723)"/>
            <g id="Group_984" transform="translate(300.628 369.499)">
                <path id="Path_587" d="M277.419 426.761c-.023.271-.04.542-.059.813l.059-.813z" class="cls-1" transform="translate(-277.23 -344.271)"/>
                <path id="Path_588" d="M277.27 429.739c0 .6.016 1.233.045 1.927-.023-.642-.045-1.284-.045-1.927z" class="cls-1" transform="translate(-277.27 -342.959)"/>
                <path id="Path_589" d="M277.793 423.936c-.043.262-.094.521-.133.784.04-.263.089-.52.133-.784z" class="cls-1" transform="translate(-277.098 -345.515)"/>
                <path id="Path_590" d="M278.31 421.442c-.075.316-.138.632-.207.948.069-.316.131-.632.207-.948z" class="cls-1" transform="translate(-276.903 -346.614)"/>
                <path id="Path_591" d="M400.2 384.454a51.2 51.2 0 0 0-72.324 0l-35.651 35.653a50.8 50.8 0 0 0-12.735 21.227c-.3.991-.573 1.988-.812 2.993-.076.316-.138.632-.207.948q-.287 1.316-.506 2.645c-.043.261-.094.521-.133.784-.161 1.091-.282 2.187-.373 3.286-.023.271-.04.542-.059.813-.076 1.151-.13 2.306-.13 3.466v.012c0 .642.022 1.285.045 1.927.017.39.037.8.065 1.237a51.019 51.019 0 0 0 38.78 46.467 21.127 21.127 0 0 0 7.22-20.573 29.468 29.468 0 0 1-22.227-17.624l-.619-.105-1.091-5.447a29.773 29.773 0 0 1-.589-5.895 29.344 29.344 0 0 1 8.649-20.883l35.653-35.653A29.532 29.532 0 1 1 384.92 441.5l-27.041 27.04a58.554 58.554 0 0 1 3.884 21.044c0 1.906-.109 3.79-.287 5.662 1.05-.893 2.08-1.821 3.073-2.812l35.651-35.658a51.2 51.2 0 0 0 0-72.322z" class="cls-3" transform="translate(-277.27 -369.499)"/>
                <path id="Path_592" d="M279.06 419.364q-.452 1.487-.812 2.993c.238-1.005.512-2.002.812-2.993z" class="cls-2" transform="translate(-276.839 -347.53)"/>
                <path id="Path_593" d="M278.258 422.1q-.287 1.318-.506 2.645.216-1.329.506-2.645z" class="cls-2" transform="translate(-277.058 -346.324)"/>
                <path id="Path_594" d="M277.774 424.48c-.163 1.092-.282 2.188-.373 3.286.091-1.099.212-2.196.373-3.286z" class="cls-2" transform="translate(-277.212 -345.276)"/>
                <path id="Path_595" d="M293.753 439.27l.619.105a29.174 29.174 0 0 1-1.71-5.552z" class="cls-2" transform="translate(-270.489 -341.159)"/>
                <path id="Path_596" d="M277.27 430.8v-.012c0-1.16.053-2.315.13-3.466-.078 1.161-.131 2.321-.13 3.478z" class="cls-2" transform="translate(-277.27 -344.022)"/>
                <path id="Path_597" d="M277.3 431.077c.016.412.039.825.065 1.237-.027-.439-.047-.847-.065-1.237z" class="cls-2" transform="translate(-277.256 -342.369)"/>
            </g>
            <path id="Path_598" d="M371.528 445.613a51.326 51.326 0 0 0-33.627-26.8l-1.262 1.263a21.223 21.223 0 0 0-6.259 15.107 21.658 21.658 0 0 0 .419 4.237 29.523 29.523 0 0 1-4.984 58.609h-50.42a29.532 29.532 0 1 1 0-59.064h17.2c-.079-1.253-.133-2.512-.133-3.782a59.6 59.6 0 0 1 2.717-17.827h-19.785a51.19 51.19 0 0 0-51.113 50.037c-.007.367-.027.733-.027 1.1 0 .454.023.9.035 1.354a51.2 51.2 0 0 0 48.476 49.72q1.307.067 2.63.066h50.42q1.322 0 2.631-.066a51.106 51.106 0 0 0 43.083-73.958z" class="cls-2" transform="translate(0 21.085)"/>
        </g>
        <g id="Group_986" transform="translate(-53.534 335.425) rotate(-30)">
            <rect id="Rectangle_119" width="6" height="47" class="cls-2" rx="3" transform="matrix(-0.966, 0.259, -0.259, -0.966, 581.946, 306.469)"/>
            <rect id="Rectangle_121" width="6" height="47" class="cls-2" rx="3" transform="matrix(0.966, 0.259, -0.259, 0.966, 610.049, 261.071)"/>
            <rect id="Rectangle_120" width="6" height="47" class="cls-2" rx="3" transform="translate(592.915 306.294) rotate(180)"/>
        </g>
        <path id="Path_599" d="M61.225-10.759a3.8 3.8 0 0 1-2.635-.977 3.078 3.078 0 0 1-1.09-2.374v-17.873H8.37a3.8 3.8 0 0 1-2.635-.977 3.078 3.078 0 0 1-1.085-2.374v-9.495a6.272 6.272 0 0 1 1.7-4.189l45.73-57.108a5.028 5.028 0 0 1 2.325-1.745 9 9 0 0 1 3.41-.628h16.9a3.9 3.9 0 0 1 2.713.908 3.126 3.126 0 0 1 1.007 2.444v56.69h13.8a4.2 4.2 0 0 1 2.79.908 3.021 3.021 0 0 1 1.075 2.441v9.774a3.078 3.078 0 0 1-1.085 2.374 3.8 3.8 0 0 1-2.635.977H78.43v17.873a3.184 3.184 0 0 1-1.007 2.374 3.73 3.73 0 0 1-2.713.977zM57.97-47.9v-40.354L26.195-47.9z" class="cls-4" transform="translate(423 437.982)"/>
        <path id="Path_600" d="M61.225-10.759a3.8 3.8 0 0 1-2.635-.977 3.078 3.078 0 0 1-1.09-2.374v-17.873H8.37a3.8 3.8 0 0 1-2.635-.977 3.078 3.078 0 0 1-1.085-2.374v-9.495a6.272 6.272 0 0 1 1.7-4.189l45.73-57.108a5.028 5.028 0 0 1 2.325-1.745 9 9 0 0 1 3.41-.628h16.9a3.9 3.9 0 0 1 2.713.908 3.126 3.126 0 0 1 1.007 2.444v56.69h13.8a4.2 4.2 0 0 1 2.79.908 3.021 3.021 0 0 1 1.075 2.441v9.774a3.078 3.078 0 0 1-1.085 2.374 3.8 3.8 0 0 1-2.635.977H78.43v17.873a3.184 3.184 0 0 1-1.007 2.374 3.73 3.73 0 0 1-2.713.977zM57.97-47.9v-40.354L26.195-47.9z" class="cls-4" transform="translate(734 437.982)"/>
    </g>
</svg>
