<svg xmlns="http://www.w3.org/2000/svg" width="52.492" height="52.492" viewBox="0 0 52.492 52.492">
    <defs>
        <style>
            .cls-1{fill:#f0c8a0}.cls-2{fill:#fab400}.cls-3{fill:#20c7bc}.cls-4{fill:#00a297}.cls-5{fill:#d2aa82}.cls-6{fill:#dc9600}.cls-7{fill:#9dcffa}.cls-8{fill:#5dabed}.cls-9{fill:#ffde55}
        </style>
    </defs>
    <g id="Icons" transform="translate(-4 -4)">
        <g id="Group_361" transform="translate(4 4)">
            <g id="Group_319" transform="translate(11.248 18.747)">
                <path id="Path_121" d="M21.625 35.248a5.605 5.605 0 0 0 2.256-.474 7.537 7.537 0 0 1 2.174-3.274 7.473 7.473 0 0 1-2.406-7.117 5.622 5.622 0 1 0-2.026 10.867z" class="cls-1" transform="translate(-16 -24)"/>
            </g>
            <g id="Group_320" transform="translate(11.248 18.747)">
                <path id="Path_122" d="M23.5 25.875a7.54 7.54 0 0 1 .15-1.493A5.615 5.615 0 0 0 16 29.624h8.516a7.411 7.411 0 0 1-1.016-3.749z" class="cls-2" transform="translate(-16 -24)"/>
            </g>
            <g id="Group_321" transform="translate(11.248 29.995)">
                <path id="Path_123" d="M23.655 36.384a5.6 5.6 0 0 0-2.03-.384A5.624 5.624 0 0 0 16 41.624V43.5h7.5v-5.625a7.436 7.436 0 0 1 .155-1.491z" class="cls-3" transform="translate(-16 -36)"/>
            </g>
            <g id="Group_322" transform="translate(11.248 29.995)">
                <path id="Path_124" d="M23.5 36.327a5.611 5.611 0 0 0-7.5 5.3V43.5h3.749v-1.876a5.621 5.621 0 0 1 3.751-5.297z" class="cls-4" transform="translate(-16 -36)"/>
            </g>
            <g id="Group_323" transform="translate(11.248 18.747)">
                <path id="Path_125" d="M19.749 29.624a5.621 5.621 0 0 1 3.749-5.3 5.624 5.624 0 1 0 0 10.594 5.621 5.621 0 0 1-3.749-5.294z" class="cls-5" transform="translate(-16 -24)"/>
            </g>
            <g id="Group_324" transform="translate(11.248 18.747)">
                <path id="Path_126" d="M23.5 24.327a5.611 5.611 0 0 0-7.5 5.3h3.749a5.621 5.621 0 0 1 3.751-5.3z" class="cls-6" transform="translate(-16 -24)"/>
            </g>
            <g id="Group_325" transform="translate(22.497)">
                <path id="Path_127" d="M31.749 11.5A3.749 3.749 0 1 1 35.5 7.749a3.75 3.75 0 0 1-3.751 3.751z" class="cls-7" transform="translate(-28 -4)"/>
            </g>
            <g id="Group_326" transform="translate(22.497)">
                <path id="Path_128" d="M29.875 7.749a3.741 3.741 0 0 1 2.812-3.617 3.75 3.75 0 1 0 0 7.235 3.742 3.742 0 0 1-2.812-3.618z" class="cls-8" transform="translate(-28 -4)"/>
            </g>
            <g id="Group_327" transform="translate(22.497 44.993)">
                <path id="Path_129" d="M31.749 59.5a3.749 3.749 0 1 1 3.751-3.751 3.75 3.75 0 0 1-3.751 3.751z" class="cls-7" transform="translate(-28 -52)"/>
            </g>
            <g id="Group_328" transform="translate(39.368 5.625)">
                <path id="Path_130" d="M52.4 11.1a3.75 3.75 0 1 0 0 5.3 3.75 3.75 0 0 0 0-5.3z" class="cls-7" transform="translate(-46 -10)"/>
            </g>
            <g id="Group_329" transform="translate(5.624 39.369)">
                <path id="Path_131" d="M16.4 47.1a3.75 3.75 0 1 0 0 5.3 3.75 3.75 0 0 0 0-5.3z" class="cls-7" transform="translate(-10 -46)"/>
            </g>
            <g id="Group_330" transform="translate(44.993 22.497)">
                <path id="Path_132" d="M52 31.749a3.749 3.749 0 1 1 3.749 3.751A3.75 3.75 0 0 1 52 31.749z" class="cls-7" transform="translate(-52 -28)"/>
            </g>
            <g id="Group_331" transform="translate(0 22.497)">
                <path id="Path_133" d="M4 31.749A3.749 3.749 0 1 1 7.749 35.5 3.75 3.75 0 0 1 4 31.749z" class="cls-7" transform="translate(-4 -28)"/>
            </g>
            <g id="Group_332" transform="translate(39.368 39.369)">
                <path id="Path_134" d="M52.4 47.1a3.75 3.75 0 1 0 0 5.3 3.75 3.75 0 0 0 0-5.3z" class="cls-7" transform="translate(-46 -46)"/>
            </g>
            <g id="Group_333" transform="translate(31.725 2.501)">
                <path id="Path_135" d="M37.99 7.917a5.569 5.569 0 0 1-.049.7 22.367 22.367 0 0 1 6.17 2.618 5.6 5.6 0 0 1 1.052-1.563 24.21 24.21 0 0 0-7.318-3 5.543 5.543 0 0 1 .145 1.245z" class="cls-2" transform="translate(-37.845 -6.668)"/>
            </g>
            <g id="Group_334" transform="translate(45.423 31.725)">
                <path id="Path_136" d="M55.778 37.99a5.569 5.569 0 0 1-.7-.049 22.354 22.354 0 0 1-2.619 6.17 5.6 5.6 0 0 1 1.563 1.052 24.21 24.21 0 0 0 3-7.318 5.529 5.529 0 0 1-1.244.145z" class="cls-9" transform="translate(-52.459 -37.845)"/>
            </g>
            <g id="Group_335" transform="translate(2.502 13.449)">
                <path id="Path_137" d="M7.917 25.521a5.57 5.57 0 0 1 .7.049 22.353 22.353 0 0 1 2.619-6.17 5.6 5.6 0 0 1-1.563-1.052 24.21 24.21 0 0 0-3 7.318 5.528 5.528 0 0 1 1.248-.145z" class="cls-9" transform="translate(-6.669 -18.348)"/>
            </g>
            <g id="Group_336" transform="translate(13.449 2.501)">
                <path id="Path_138" d="M18.348 9.672a5.6 5.6 0 0 1 1.052 1.563 22.367 22.367 0 0 1 6.17-2.618 5.315 5.315 0 0 1 .1-1.949 24.228 24.228 0 0 0-7.322 3.004z" class="cls-9" transform="translate(-18.348 -6.668)"/>
            </g>
            <g id="Group_337" transform="translate(2.501 31.726)">
                <path id="Path_139" d="M11.236 44.112a22.382 22.382 0 0 1-2.619-6.17 5.753 5.753 0 0 1-.7.048 5.6 5.6 0 0 1-1.249-.144 24.234 24.234 0 0 0 3 7.318 5.587 5.587 0 0 1 1.564-1.052z" class="cls-9" transform="translate(-6.668 -37.846)"/>
            </g>
            <g id="Group_338" transform="translate(45.423 13.448)">
                <path id="Path_140" d="M52.459 19.4a22.382 22.382 0 0 1 2.619 6.17 5.752 5.752 0 0 1 .7-.048 5.6 5.6 0 0 1 1.249.144 24.234 24.234 0 0 0-3-7.318 5.586 5.586 0 0 1-1.568 1.052z" class="cls-9" transform="translate(-52.459 -18.347)"/>
            </g>
            <g id="Group_339" transform="translate(31.726 45.424)">
                <path id="Path_141" d="M45.163 54.023a5.6 5.6 0 0 1-1.052-1.563 22.367 22.367 0 0 1-6.17 2.618 5.315 5.315 0 0 1-.1 1.949 24.228 24.228 0 0 0 7.322-3.004z" class="cls-9" transform="translate(-37.846 -52.46)"/>
            </g>
            <g id="Group_340" transform="translate(13.449 45.424)">
                <path id="Path_142" d="M25.521 55.778a5.57 5.57 0 0 1 .049-.7 22.368 22.368 0 0 1-6.17-2.618 5.6 5.6 0 0 1-1.052 1.563 24.209 24.209 0 0 0 7.318 3 5.542 5.542 0 0 1-.145-1.249z" class="cls-9" transform="translate(-18.348 -52.46)"/>
            </g>
            <g id="Group_341" transform="translate(5.624 5.625)">
                <path id="Path_143" d="M16.4 11.1a3.75 3.75 0 1 0 0 5.3 3.75 3.75 0 0 0 0-5.3z" class="cls-7" transform="translate(-10 -10)"/>
            </g>
            <g id="Group_342" transform="translate(0 22.497)">
                <path id="Path_144" d="M5.875 31.749a3.741 3.741 0 0 1 2.812-3.617 3.75 3.75 0 1 0 0 7.235 3.742 3.742 0 0 1-2.812-3.618z" class="cls-8" transform="translate(-4 -28)"/>
            </g>
            <g id="Group_343" transform="translate(22.497 44.993)">
                <path id="Path_145" d="M29.875 55.749a3.741 3.741 0 0 1 2.812-3.617 3.75 3.75 0 1 0 0 7.235 3.742 3.742 0 0 1-2.812-3.618z" class="cls-8" transform="translate(-28 -52)"/>
            </g>
            <g id="Group_344" transform="translate(44.993 22.497)">
                <path id="Path_146" d="M53.875 31.749a3.741 3.741 0 0 1 2.812-3.617 3.75 3.75 0 1 0 0 7.235 3.742 3.742 0 0 1-2.812-3.618z" class="cls-8" transform="translate(-52 -28)"/>
            </g>
            <g id="Group_345" transform="translate(5.624 5.624)">
                <path id="Path_147" d="M11.875 13.749a3.741 3.741 0 0 1 2.812-3.617 3.75 3.75 0 1 0 0 7.235 3.742 3.742 0 0 1-2.812-3.617z" class="cls-8" transform="translate(-10 -10)"/>
            </g>
            <g id="Group_346" transform="translate(39.369 5.624)">
                <path id="Path_148" d="M47.875 13.749a3.741 3.741 0 0 1 2.812-3.617 3.75 3.75 0 1 0 0 7.235 3.742 3.742 0 0 1-2.812-3.617z" class="cls-8" transform="translate(-46 -10)"/>
            </g>
            <g id="Group_347" transform="translate(39.369 39.369)">
                <path id="Path_149" d="M47.875 49.749a3.741 3.741 0 0 1 2.812-3.617 3.75 3.75 0 1 0 0 7.235 3.742 3.742 0 0 1-2.812-3.618z" class="cls-8" transform="translate(-46 -46)"/>
            </g>
            <g id="Group_348" transform="translate(5.624 39.369)">
                <path id="Path_150" d="M11.875 49.749a3.741 3.741 0 0 1 2.812-3.617 3.75 3.75 0 1 0 0 7.235 3.742 3.742 0 0 1-2.812-3.618z" class="cls-8" transform="translate(-10 -46)"/>
            </g>
            <g id="Group_349" transform="translate(20.622 26.246)">
                <path id="Path_151" d="M37.248 43.248H26v-5.624a5.624 5.624 0 1 1 11.248 0z" class="cls-3" transform="translate(-26 -32)"/>
            </g>
            <g id="Group_350" transform="translate(20.622 26.246)">
                <path id="Path_152" d="M33.5 32.327a5.611 5.611 0 0 0-7.5 5.3v5.624h3.749v-5.627a5.621 5.621 0 0 1 3.751-5.297z" class="cls-4" transform="translate(-26 -32)"/>
            </g>
            <g id="Group_351" transform="translate(33.588 29.995)">
                <path id="Path_153" d="M41.864 36a5.6 5.6 0 0 0-2.031.384 7.436 7.436 0 0 1 .157 1.49V43.5h7.5v-1.876A5.624 5.624 0 0 0 41.864 36z" class="cls-3" transform="translate(-39.833 -36)"/>
            </g>
            <g id="Group_352" transform="translate(33.588 29.995)">
                <path id="Path_154" d="M41.864 36a5.6 5.6 0 0 0-2.031.384 7.436 7.436 0 0 1 .157 1.49v3.749a5.621 5.621 0 0 1 3.749-5.3A5.6 5.6 0 0 0 41.864 36z" class="cls-4" transform="translate(-39.833 -36)"/>
            </g>
            <g id="Group_353" transform="translate(31.19 18.747)">
                <path id="Path_155" d="M41.7 24a5.605 5.605 0 0 0-2.025.382 7.475 7.475 0 0 1-2.401 7.118 7.54 7.54 0 0 1 2.174 3.275A5.623 5.623 0 1 0 41.7 24z" class="cls-1" transform="translate(-37.274 -24)"/>
            </g>
            <g id="Group_354" transform="translate(32.728 18.747)">
                <path id="Path_156" d="M39.932 25.875a7.411 7.411 0 0 1-1.017 3.749h8.516a5.614 5.614 0 0 0-7.649-5.243 7.54 7.54 0 0 1 .15 1.494z" class="cls-2" transform="translate(-38.915 -24)"/>
            </g>
            <g id="Group_355" transform="translate(31.19 18.747)">
                <path id="Path_157" d="M39.829 29.624a5.621 5.621 0 0 1 3.749-5.3 5.55 5.55 0 0 0-3.9.054 7.475 7.475 0 0 1-2.404 7.122 7.54 7.54 0 0 1 2.174 3.275 5.573 5.573 0 0 0 4.131.147 5.621 5.621 0 0 1-3.75-5.298z" class="cls-5" transform="translate(-37.274 -24)"/>
            </g>
            <g id="Group_356" transform="translate(32.728 18.747)">
                <path id="Path_158" d="M41.807 24a5.605 5.605 0 0 0-2.025.382 7.54 7.54 0 0 1 .15 1.493 7.411 7.411 0 0 1-1.017 3.749h1.017a5.621 5.621 0 0 1 3.749-5.3A5.6 5.6 0 0 0 41.807 24z" class="cls-6" transform="translate(-38.915 -24)"/>
            </g>
            <g id="Group_357" transform="translate(20.622 14.998)">
                <path id="Path_159" d="M31.624 31.248a5.624 5.624 0 1 1 5.624-5.624 5.624 5.624 0 0 1-5.624 5.624z" class="cls-1" transform="translate(-26 -20)"/>
            </g>
            <g id="Group_358" transform="translate(20.622 14.998)">
                <path id="Path_160" d="M26 25.624a5.624 5.624 0 1 1 11.248 0z" class="cls-2" transform="translate(-26 -20)"/>
            </g>
            <g id="Group_359" transform="translate(20.622 14.998)">
                <path id="Path_161" d="M29.749 25.624a5.621 5.621 0 0 1 3.749-5.3 5.624 5.624 0 1 0 0 10.594 5.621 5.621 0 0 1-3.749-5.3z" class="cls-5" transform="translate(-26 -20)"/>
            </g>
            <g id="Group_360" transform="translate(20.622 14.998)">
                <path id="Path_162" d="M33.5 20.327a5.611 5.611 0 0 0-7.5 5.3h3.749a5.621 5.621 0 0 1 3.751-5.3z" class="cls-6" transform="translate(-26 -20)"/>
            </g>
        </g>
    </g>
</svg>
