<svg xmlns="http://www.w3.org/2000/svg" width="540.5" height="443" viewBox="0 0 540.5 443">
    <defs>
        <style>
            .cls-3{opacity:.459}.cls-4{opacity:.521}.cls-5,.cls-9{fill:#fff}.cls-5{opacity:.324}.cls-6{opacity:.939}.cls-7{opacity:.77}.cls-8{opacity:.41}
        </style>
    </defs>
    <g id="Group_852" transform="translate(-683 -5360)">
        <g id="Group_844" transform="translate(0 1014)">
            <g id="Group_843">
                <rect id="Rectangle_92" width="540.5" height="443" fill="#0b5c56" rx="8" transform="translate(683 4346)"/>
                <g id="Group_842" opacity="0.732">
                    <g id="Group_841" class="cls-3" transform="translate(701 4362.027)">
                        <g id="Group_5" class="cls-4">
                            <path id="Path_3" d="M0 0h3.323v14.608H0z" class="cls-5" transform="rotate(-90 4.483 4.483)"/>
                            <path id="Path_4" d="M0 0h3.323v14.608H0z" class="cls-5" transform="translate(5.643)"/>
                        </g>
                    </g>
                    <g id="Group_841-2" class="cls-6" transform="translate(750 4362.027)">
                        <g id="Group_5-2" class="cls-4">
                            <path id="Path_3-2" d="M0 0h3.323v14.608H0z" class="cls-5" transform="rotate(-90 4.483 4.483)"/>
                            <path id="Path_4-2" d="M0 0h3.323v14.608H0z" class="cls-5" transform="translate(5.643)"/>
                        </g>
                    </g>
                    <g id="Group_841-3" class="cls-7" transform="translate(799 4362.027)">
                        <g id="Group_5-3" class="cls-4">
                            <path id="Path_3-3" d="M0 0h3.323v14.608H0z" class="cls-5" transform="rotate(-90 4.483 4.483)"/>
                            <path id="Path_4-3" d="M0 0h3.323v14.608H0z" class="cls-5" transform="translate(5.643)"/>
                        </g>
                    </g>
                    <g id="Group_841-4" class="cls-3" transform="translate(848 4362.027)">
                        <g id="Group_5-4" class="cls-4">
                            <path id="Path_3-4" d="M0 0h3.323v14.608H0z" class="cls-5" transform="rotate(-90 4.483 4.483)"/>
                            <path id="Path_4-4" d="M0 0h3.323v14.608H0z" class="cls-5" transform="translate(5.643)"/>
                        </g>
                    </g>
                    <g id="Group_841-5" class="cls-3" transform="translate(897 4362.027)">
                        <g id="Group_5-5" class="cls-4">
                            <path id="Path_3-5" d="M0 0h3.323v14.608H0z" class="cls-5" transform="rotate(-90 4.483 4.483)"/>
                            <path id="Path_4-5" d="M0 0h3.323v14.608H0z" class="cls-5" transform="translate(5.643)"/>
                        </g>
                    </g>
                    <g id="Group_841-6" class="cls-8" transform="translate(946 4362.027)">
                        <g id="Group_5-6" class="cls-4">
                            <path id="Path_3-6" d="M0 0h3.323v14.608H0z" class="cls-5" transform="rotate(-90 4.483 4.483)"/>
                            <path id="Path_4-6" d="M0 0h3.323v14.608H0z" class="cls-5" transform="translate(5.643)"/>
                        </g>
                    </g>
                    <g id="Group_841-7" class="cls-7" transform="translate(995 4362.027)">
                        <g id="Group_5-7" class="cls-4">
                            <path id="Path_3-7" d="M0 0h3.323v14.608H0z" class="cls-5" transform="rotate(-90 4.483 4.483)"/>
                            <path id="Path_4-7" d="M0 0h3.323v14.608H0z" class="cls-5" transform="translate(5.643)"/>
                        </g>
                    </g>
                    <g id="Group_841-8" class="cls-3" transform="translate(1044 4362.027)">
                        <g id="Group_5-8" class="cls-4">
                            <path id="Path_3-8" d="M0 0h3.323v14.608H0z" class="cls-5" transform="rotate(-90 4.483 4.483)"/>
                            <path id="Path_4-8" d="M0 0h3.323v14.608H0z" class="cls-5" transform="translate(5.643)"/>
                        </g>
                    </g>
                    <g id="Group_841-9" class="cls-3" transform="translate(1093 4362.027)">
                        <g id="Group_5-9" class="cls-4">
                            <path id="Path_3-9" d="M0 0h3.323v14.608H0z" class="cls-5" transform="rotate(-90 4.483 4.483)"/>
                            <path id="Path_4-9" d="M0 0h3.323v14.608H0z" class="cls-5" transform="translate(5.643)"/>
                        </g>
                    </g>
                    <g id="Group_841-10" class="cls-3" transform="translate(1142 4362.027)">
                        <g id="Group_5-10" class="cls-4">
                            <path id="Path_3-10" d="M0 0h3.323v14.608H0z" class="cls-5" transform="rotate(-90 4.483 4.483)"/>
                            <path id="Path_4-10" d="M0 0h3.323v14.608H0z" class="cls-5" transform="translate(5.643)"/>
                        </g>
                    </g>
                    <g id="Group_841-11" class="cls-8" transform="translate(1191 4362.027)">
                        <g id="Group_5-11" class="cls-4">
                            <path id="Path_3-11" d="M0 0h3.323v14.608H0z" class="cls-5" transform="rotate(-90 4.483 4.483)"/>
                            <path id="Path_4-11" d="M0 0h3.323v14.608H0z" class="cls-5" transform="translate(5.643)"/>
                        </g>
                    </g>
                    <g id="Group_841-12" class="cls-3" transform="translate(701 4411.027)">
                        <g id="Group_5-12" class="cls-4">
                            <path id="Path_3-12" d="M0 0h3.323v14.608H0z" class="cls-5" transform="rotate(-90 4.483 4.483)"/>
                            <path id="Path_4-12" d="M0 0h3.323v14.608H0z" class="cls-5" transform="translate(5.643)"/>
                        </g>
                    </g>
                    <g id="Group_841-13" class="cls-3" transform="translate(750 4411.027)">
                        <g id="Group_5-13" class="cls-4">
                            <path id="Path_3-13" d="M0 0h3.323v14.608H0z" class="cls-5" transform="rotate(-90 4.483 4.483)"/>
                            <path id="Path_4-13" d="M0 0h3.323v14.608H0z" class="cls-5" transform="translate(5.643)"/>
                        </g>
                    </g>
                    <g id="Group_841-14" class="cls-6" transform="translate(799 4411.027)">
                        <g id="Group_5-14" class="cls-4">
                            <path id="Path_3-14" d="M0 0h3.323v14.608H0z" class="cls-5" transform="rotate(-90 4.483 4.483)"/>
                            <path id="Path_4-14" d="M0 0h3.323v14.608H0z" class="cls-5" transform="translate(5.643)"/>
                        </g>
                    </g>
                    <g id="Group_841-15" class="cls-6" transform="translate(848 4411.027)">
                        <g id="Group_5-15" class="cls-4">
                            <path id="Path_3-15" d="M0 0h3.323v14.608H0z" class="cls-5" transform="rotate(-90 4.483 4.483)"/>
                            <path id="Path_4-15" d="M0 0h3.323v14.608H0z" class="cls-5" transform="translate(5.643)"/>
                        </g>
                    </g>
                    <g id="Group_841-16" class="cls-3" transform="translate(897 4411.027)">
                        <g id="Group_5-16" class="cls-4">
                            <path id="Path_3-16" d="M0 0h3.323v14.608H0z" class="cls-5" transform="rotate(-90 4.483 4.483)"/>
                            <path id="Path_4-16" d="M0 0h3.323v14.608H0z" class="cls-5" transform="translate(5.643)"/>
                        </g>
                    </g>
                    <g id="Group_841-17" class="cls-6" transform="translate(946 4411.027)">
                        <g id="Group_5-17" class="cls-4">
                            <path id="Path_3-17" d="M0 0h3.323v14.608H0z" class="cls-5" transform="rotate(-90 4.483 4.483)"/>
                            <path id="Path_4-17" d="M0 0h3.323v14.608H0z" class="cls-5" transform="translate(5.643)"/>
                        </g>
                    </g>
                    <g id="Group_841-18" class="cls-3" transform="translate(995 4411.027)">
                        <g id="Group_5-18" class="cls-4">
                            <path id="Path_3-18" d="M0 0h3.323v14.608H0z" class="cls-5" transform="rotate(-90 4.483 4.483)"/>
                            <path id="Path_4-18" d="M0 0h3.323v14.608H0z" class="cls-5" transform="translate(5.643)"/>
                        </g>
                    </g>
                    <g id="Group_841-19" class="cls-6" transform="translate(1044 4411.027)">
                        <g id="Group_5-19" class="cls-4">
                            <path id="Path_3-19" d="M0 0h3.323v14.608H0z" class="cls-5" transform="rotate(-90 4.483 4.483)"/>
                            <path id="Path_4-19" d="M0 0h3.323v14.608H0z" class="cls-5" transform="translate(5.643)"/>
                        </g>
                    </g>
                    <g id="Group_841-20" class="cls-3" transform="translate(1093 4411.027)">
                        <g id="Group_5-20" class="cls-4">
                            <path id="Path_3-20" d="M0 0h3.323v14.608H0z" class="cls-5" transform="rotate(-90 4.483 4.483)"/>
                            <path id="Path_4-20" d="M0 0h3.323v14.608H0z" class="cls-5" transform="translate(5.643)"/>
                        </g>
                    </g>
                    <g id="Group_841-21" class="cls-6" transform="translate(1142 4411.027)">
                        <g id="Group_5-21" class="cls-4">
                            <path id="Path_3-21" d="M0 0h3.323v14.608H0z" class="cls-5" transform="rotate(-90 4.483 4.483)"/>
                            <path id="Path_4-21" d="M0 0h3.323v14.608H0z" class="cls-5" transform="translate(5.643)"/>
                        </g>
                    </g>
                    <g id="Group_841-22" class="cls-3" transform="translate(1191 4411.027)">
                        <g id="Group_5-22" class="cls-4">
                            <path id="Path_3-22" d="M0 0h3.323v14.608H0z" class="cls-5" transform="rotate(-90 4.483 4.483)"/>
                            <path id="Path_4-22" d="M0 0h3.323v14.608H0z" class="cls-5" transform="translate(5.643)"/>
                        </g>
                    </g>
                    <g id="Group_841-23" class="cls-3" transform="translate(701 4460.027)">
                        <g id="Group_5-23" class="cls-4">
                            <path id="Path_3-23" d="M0 0h3.323v14.608H0z" class="cls-5" transform="rotate(-90 4.483 4.483)"/>
                            <path id="Path_4-23" d="M0 0h3.323v14.608H0z" class="cls-5" transform="translate(5.643)"/>
                        </g>
                    </g>
                    <g id="Group_841-24" class="cls-8" transform="translate(750 4460.027)">
                        <g id="Group_5-24" class="cls-4">
                            <path id="Path_3-24" d="M0 0h3.323v14.608H0z" class="cls-5" transform="rotate(-90 4.483 4.483)"/>
                            <path id="Path_4-24" d="M0 0h3.323v14.608H0z" class="cls-5" transform="translate(5.643)"/>
                        </g>
                    </g>
                    <g id="Group_841-25" class="cls-3" transform="translate(799 4460.027)">
                        <g id="Group_5-25" class="cls-4">
                            <path id="Path_3-25" d="M0 0h3.323v14.608H0z" class="cls-5" transform="rotate(-90 4.483 4.483)"/>
                            <path id="Path_4-25" d="M0 0h3.323v14.608H0z" class="cls-5" transform="translate(5.643)"/>
                        </g>
                    </g>
                    <g id="Group_841-26" class="cls-3" transform="translate(848 4460.027)">
                        <g id="Group_5-26" class="cls-4">
                            <path id="Path_3-26" d="M0 0h3.323v14.608H0z" class="cls-5" transform="rotate(-90 4.483 4.483)"/>
                            <path id="Path_4-26" d="M0 0h3.323v14.608H0z" class="cls-5" transform="translate(5.643)"/>
                        </g>
                    </g>
                    <g id="Group_841-27" class="cls-3" transform="translate(897 4460.027)">
                        <g id="Group_5-27" class="cls-4">
                            <path id="Path_3-27" d="M0 0h3.323v14.608H0z" class="cls-5" transform="rotate(-90 4.483 4.483)"/>
                            <path id="Path_4-27" d="M0 0h3.323v14.608H0z" class="cls-5" transform="translate(5.643)"/>
                        </g>
                    </g>
                    <g id="Group_841-28" class="cls-3" transform="translate(946 4460.027)">
                        <g id="Group_5-28" class="cls-4">
                            <path id="Path_3-28" d="M0 0h3.323v14.608H0z" class="cls-5" transform="rotate(-90 4.483 4.483)"/>
                            <path id="Path_4-28" d="M0 0h3.323v14.608H0z" class="cls-5" transform="translate(5.643)"/>
                        </g>
                    </g>
                    <g id="Group_841-29" class="cls-3" transform="translate(995 4460.027)">
                        <g id="Group_5-29" class="cls-4">
                            <path id="Path_3-29" d="M0 0h3.323v14.608H0z" class="cls-5" transform="rotate(-90 4.483 4.483)"/>
                            <path id="Path_4-29" d="M0 0h3.323v14.608H0z" class="cls-5" transform="translate(5.643)"/>
                        </g>
                    </g>
                    <g id="Group_841-30" class="cls-3" transform="translate(1044 4460.027)">
                        <g id="Group_5-30" class="cls-4">
                            <path id="Path_3-30" d="M0 0h3.323v14.608H0z" class="cls-5" transform="rotate(-90 4.483 4.483)"/>
                            <path id="Path_4-30" d="M0 0h3.323v14.608H0z" class="cls-5" transform="translate(5.643)"/>
                        </g>
                    </g>
                    <g id="Group_841-31" class="cls-8" transform="translate(1093 4460.027)">
                        <g id="Group_5-31" class="cls-4">
                            <path id="Path_3-31" d="M0 0h3.323v14.608H0z" class="cls-5" transform="rotate(-90 4.483 4.483)"/>
                            <path id="Path_4-31" d="M0 0h3.323v14.608H0z" class="cls-5" transform="translate(5.643)"/>
                        </g>
                    </g>
                    <g id="Group_841-32" class="cls-7" transform="translate(1142 4460.027)">
                        <g id="Group_5-32" class="cls-4">
                            <path id="Path_3-32" d="M0 0h3.323v14.608H0z" class="cls-5" transform="rotate(-90 4.483 4.483)"/>
                            <path id="Path_4-32" d="M0 0h3.323v14.608H0z" class="cls-5" transform="translate(5.643)"/>
                        </g>
                    </g>
                    <g id="Group_841-33" class="cls-6" transform="translate(1191 4460.027)">
                        <g id="Group_5-33" class="cls-4">
                            <path id="Path_3-33" d="M0 0h3.323v14.608H0z" class="cls-5" transform="rotate(-90 4.483 4.483)"/>
                            <path id="Path_4-33" d="M0 0h3.323v14.608H0z" class="cls-5" transform="translate(5.643)"/>
                        </g>
                    </g>
                    <g id="Group_841-34" class="cls-6" transform="translate(701 4509.027)">
                        <g id="Group_5-34" class="cls-4">
                            <path id="Path_3-34" d="M0 0h3.323v14.608H0z" class="cls-5" transform="rotate(-90 4.483 4.483)"/>
                            <path id="Path_4-34" d="M0 0h3.323v14.608H0z" class="cls-5" transform="translate(5.643)"/>
                        </g>
                    </g>
                    <g id="Group_841-35" class="cls-3" transform="translate(750 4509.027)">
                        <g id="Group_5-35" class="cls-4">
                            <path id="Path_3-35" d="M0 0h3.323v14.608H0z" class="cls-5" transform="rotate(-90 4.483 4.483)"/>
                            <path id="Path_4-35" d="M0 0h3.323v14.608H0z" class="cls-5" transform="translate(5.643)"/>
                        </g>
                    </g>
                    <g id="Group_841-36" class="cls-6" transform="translate(799 4509.027)">
                        <g id="Group_5-36" class="cls-4">
                            <path id="Path_3-36" d="M0 0h3.323v14.608H0z" class="cls-5" transform="rotate(-90 4.483 4.483)"/>
                            <path id="Path_4-36" d="M0 0h3.323v14.608H0z" class="cls-5" transform="translate(5.643)"/>
                        </g>
                    </g>
                    <g id="Group_841-37" class="cls-3" transform="translate(848 4509.027)">
                        <g id="Group_5-37" class="cls-4">
                            <path id="Path_3-37" d="M0 0h3.323v14.608H0z" class="cls-5" transform="rotate(-90 4.483 4.483)"/>
                            <path id="Path_4-37" d="M0 0h3.323v14.608H0z" class="cls-5" transform="translate(5.643)"/>
                        </g>
                    </g>
                    <g id="Group_841-38" class="cls-3" transform="translate(897 4509.027)">
                        <g id="Group_5-38" class="cls-4">
                            <path id="Path_3-38" d="M0 0h3.323v14.608H0z" class="cls-5" transform="rotate(-90 4.483 4.483)"/>
                            <path id="Path_4-38" d="M0 0h3.323v14.608H0z" class="cls-5" transform="translate(5.643)"/>
                        </g>
                    </g>
                    <g id="Group_841-39" class="cls-3" transform="translate(946 4509.027)">
                        <g id="Group_5-39" class="cls-4">
                            <path id="Path_3-39" d="M0 0h3.323v14.608H0z" class="cls-5" transform="rotate(-90 4.483 4.483)"/>
                            <path id="Path_4-39" d="M0 0h3.323v14.608H0z" class="cls-5" transform="translate(5.643)"/>
                        </g>
                    </g>
                    <g id="Group_841-40" class="cls-3" transform="translate(995 4509.027)">
                        <g id="Group_5-40" class="cls-4">
                            <path id="Path_3-40" d="M0 0h3.323v14.608H0z" class="cls-5" transform="rotate(-90 4.483 4.483)"/>
                            <path id="Path_4-40" d="M0 0h3.323v14.608H0z" class="cls-5" transform="translate(5.643)"/>
                        </g>
                    </g>
                    <g id="Group_841-41" class="cls-6" transform="translate(1044 4509.027)">
                        <g id="Group_5-41" class="cls-4">
                            <path id="Path_3-41" d="M0 0h3.323v14.608H0z" class="cls-5" transform="rotate(-90 4.483 4.483)"/>
                            <path id="Path_4-41" d="M0 0h3.323v14.608H0z" class="cls-5" transform="translate(5.643)"/>
                        </g>
                    </g>
                    <g id="Group_841-42" class="cls-3" transform="translate(1093 4509.027)">
                        <g id="Group_5-42" class="cls-4">
                            <path id="Path_3-42" d="M0 0h3.323v14.608H0z" class="cls-5" transform="rotate(-90 4.483 4.483)"/>
                            <path id="Path_4-42" d="M0 0h3.323v14.608H0z" class="cls-5" transform="translate(5.643)"/>
                        </g>
                    </g>
                    <g id="Group_841-43" class="cls-3" transform="translate(1142 4509.027)">
                        <g id="Group_5-43" class="cls-4">
                            <path id="Path_3-43" d="M0 0h3.323v14.608H0z" class="cls-5" transform="rotate(-90 4.483 4.483)"/>
                            <path id="Path_4-43" d="M0 0h3.323v14.608H0z" class="cls-5" transform="translate(5.643)"/>
                        </g>
                    </g>
                    <g id="Group_841-44" class="cls-3" transform="translate(1191 4509.027)">
                        <g id="Group_5-44" class="cls-4">
                            <path id="Path_3-44" d="M0 0h3.323v14.608H0z" class="cls-5" transform="rotate(-90 4.483 4.483)"/>
                            <path id="Path_4-44" d="M0 0h3.323v14.608H0z" class="cls-5" transform="translate(5.643)"/>
                        </g>
                    </g>
                    <g id="Group_841-45" class="cls-3" transform="translate(701 4558.027)">
                        <g id="Group_5-45" class="cls-4">
                            <path id="Path_3-45" d="M0 0h3.323v14.608H0z" class="cls-5" transform="rotate(-90 4.483 4.483)"/>
                            <path id="Path_4-45" d="M0 0h3.323v14.608H0z" class="cls-5" transform="translate(5.643)"/>
                        </g>
                    </g>
                    <g id="Group_841-46" class="cls-7" transform="translate(750 4558.027)">
                        <g id="Group_5-46" class="cls-4">
                            <path id="Path_3-46" d="M0 0h3.323v14.608H0z" class="cls-5" transform="rotate(-90 4.483 4.483)"/>
                            <path id="Path_4-46" d="M0 0h3.323v14.608H0z" class="cls-5" transform="translate(5.643)"/>
                        </g>
                    </g>
                    <g id="Group_841-47" class="cls-3" transform="translate(799 4558.027)">
                        <g id="Group_5-47" class="cls-4">
                            <path id="Path_3-47" d="M0 0h3.323v14.608H0z" class="cls-5" transform="rotate(-90 4.483 4.483)"/>
                            <path id="Path_4-47" d="M0 0h3.323v14.608H0z" class="cls-5" transform="translate(5.643)"/>
                        </g>
                    </g>
                    <g id="Group_841-48" class="cls-3" transform="translate(848 4558.027)">
                        <g id="Group_5-48" class="cls-4">
                            <path id="Path_3-48" d="M0 0h3.323v14.608H0z" class="cls-5" transform="rotate(-90 4.483 4.483)"/>
                            <path id="Path_4-48" d="M0 0h3.323v14.608H0z" class="cls-5" transform="translate(5.643)"/>
                        </g>
                    </g>
                    <g id="Group_841-49" class="cls-3" transform="translate(897 4558.027)">
                        <g id="Group_5-49" class="cls-4">
                            <path id="Path_3-49" d="M0 0h3.323v14.608H0z" class="cls-5" transform="rotate(-90 4.483 4.483)"/>
                            <path id="Path_4-49" d="M0 0h3.323v14.608H0z" class="cls-5" transform="translate(5.643)"/>
                        </g>
                    </g>
                    <g id="Group_841-50" class="cls-3" transform="translate(946 4558.027)">
                        <g id="Group_5-50" class="cls-4">
                            <path id="Path_3-50" d="M0 0h3.323v14.608H0z" class="cls-5" transform="rotate(-90 4.483 4.483)"/>
                            <path id="Path_4-50" d="M0 0h3.323v14.608H0z" class="cls-5" transform="translate(5.643)"/>
                        </g>
                    </g>
                    <g id="Group_841-51" class="cls-3" transform="translate(995 4558.027)">
                        <g id="Group_5-51" class="cls-4">
                            <path id="Path_3-51" d="M0 0h3.323v14.608H0z" class="cls-5" transform="rotate(-90 4.483 4.483)"/>
                            <path id="Path_4-51" d="M0 0h3.323v14.608H0z" class="cls-5" transform="translate(5.643)"/>
                        </g>
                    </g>
                    <g id="Group_841-52" class="cls-3" transform="translate(1044 4558.027)">
                        <g id="Group_5-52" class="cls-4">
                            <path id="Path_3-52" d="M0 0h3.323v14.608H0z" class="cls-5" transform="rotate(-90 4.483 4.483)"/>
                            <path id="Path_4-52" d="M0 0h3.323v14.608H0z" class="cls-5" transform="translate(5.643)"/>
                        </g>
                    </g>
                    <g id="Group_841-53" class="cls-3" transform="translate(1093 4558.027)">
                        <g id="Group_5-53" class="cls-4">
                            <path id="Path_3-53" d="M0 0h3.323v14.608H0z" class="cls-5" transform="rotate(-90 4.483 4.483)"/>
                            <path id="Path_4-53" d="M0 0h3.323v14.608H0z" class="cls-5" transform="translate(5.643)"/>
                        </g>
                    </g>
                    <g id="Group_841-54" class="cls-6" transform="translate(1142 4558.027)">
                        <g id="Group_5-54" class="cls-4">
                            <path id="Path_3-54" d="M0 0h3.323v14.608H0z" class="cls-5" transform="rotate(-90 4.483 4.483)"/>
                            <path id="Path_4-54" d="M0 0h3.323v14.608H0z" class="cls-5" transform="translate(5.643)"/>
                        </g>
                    </g>
                    <g id="Group_841-55" class="cls-3" transform="translate(1191 4558.027)">
                        <g id="Group_5-55" class="cls-4">
                            <path id="Path_3-55" d="M0 0h3.323v14.608H0z" class="cls-5" transform="rotate(-90 4.483 4.483)"/>
                            <path id="Path_4-55" d="M0 0h3.323v14.608H0z" class="cls-5" transform="translate(5.643)"/>
                        </g>
                    </g>
                    <g id="Group_841-56" class="cls-6" transform="translate(701 4607.027)">
                        <g id="Group_5-56" class="cls-4">
                            <path id="Path_3-56" d="M0 0h3.323v14.608H0z" class="cls-5" transform="rotate(-90 4.483 4.483)"/>
                            <path id="Path_4-56" d="M0 0h3.323v14.608H0z" class="cls-5" transform="translate(5.643)"/>
                        </g>
                    </g>
                    <g id="Group_841-57" class="cls-3" transform="translate(750 4607.027)">
                        <g id="Group_5-57" class="cls-4">
                            <path id="Path_3-57" d="M0 0h3.323v14.608H0z" class="cls-5" transform="rotate(-90 4.483 4.483)"/>
                            <path id="Path_4-57" d="M0 0h3.323v14.608H0z" class="cls-5" transform="translate(5.643)"/>
                        </g>
                    </g>
                    <g id="Group_841-58" class="cls-7" transform="translate(799 4607.027)">
                        <g id="Group_5-58" class="cls-4">
                            <path id="Path_3-58" d="M0 0h3.323v14.608H0z" class="cls-5" transform="rotate(-90 4.483 4.483)"/>
                            <path id="Path_4-58" d="M0 0h3.323v14.608H0z" class="cls-5" transform="translate(5.643)"/>
                        </g>
                    </g>
                    <g id="Group_841-59" class="cls-3" transform="translate(848 4607.027)">
                        <g id="Group_5-59" class="cls-4">
                            <path id="Path_3-59" d="M0 0h3.323v14.608H0z" class="cls-5" transform="rotate(-90 4.483 4.483)"/>
                            <path id="Path_4-59" d="M0 0h3.323v14.608H0z" class="cls-5" transform="translate(5.643)"/>
                        </g>
                    </g>
                    <g id="Group_841-60" class="cls-3" transform="translate(897 4607.027)">
                        <g id="Group_5-60" class="cls-4">
                            <path id="Path_3-60" d="M0 0h3.323v14.608H0z" class="cls-5" transform="rotate(-90 4.483 4.483)"/>
                            <path id="Path_4-60" d="M0 0h3.323v14.608H0z" class="cls-5" transform="translate(5.643)"/>
                        </g>
                    </g>
                    <g id="Group_841-61" class="cls-3" transform="translate(946 4607.027)">
                        <g id="Group_5-61" class="cls-4">
                            <path id="Path_3-61" d="M0 0h3.323v14.608H0z" class="cls-5" transform="rotate(-90 4.483 4.483)"/>
                            <path id="Path_4-61" d="M0 0h3.323v14.608H0z" class="cls-5" transform="translate(5.643)"/>
                        </g>
                    </g>
                    <g id="Group_841-62" class="cls-3" transform="translate(995 4607.027)">
                        <g id="Group_5-62" class="cls-4">
                            <path id="Path_3-62" d="M0 0h3.323v14.608H0z" class="cls-5" transform="rotate(-90 4.483 4.483)"/>
                            <path id="Path_4-62" d="M0 0h3.323v14.608H0z" class="cls-5" transform="translate(5.643)"/>
                        </g>
                    </g>
                    <g id="Group_841-63" class="cls-6" transform="translate(1044 4607.027)">
                        <g id="Group_5-63" class="cls-4">
                            <path id="Path_3-63" d="M0 0h3.323v14.608H0z" class="cls-5" transform="rotate(-90 4.483 4.483)"/>
                            <path id="Path_4-63" d="M0 0h3.323v14.608H0z" class="cls-5" transform="translate(5.643)"/>
                        </g>
                    </g>
                    <g id="Group_841-64" class="cls-3" transform="translate(1093 4607.027)">
                        <g id="Group_5-64" class="cls-4">
                            <path id="Path_3-64" d="M0 0h3.323v14.608H0z" class="cls-5" transform="rotate(-90 4.483 4.483)"/>
                            <path id="Path_4-64" d="M0 0h3.323v14.608H0z" class="cls-5" transform="translate(5.643)"/>
                        </g>
                    </g>
                    <g id="Group_841-65" class="cls-3" transform="translate(1142 4607.027)">
                        <g id="Group_5-65" class="cls-4">
                            <path id="Path_3-65" d="M0 0h3.323v14.608H0z" class="cls-5" transform="rotate(-90 4.483 4.483)"/>
                            <path id="Path_4-65" d="M0 0h3.323v14.608H0z" class="cls-5" transform="translate(5.643)"/>
                        </g>
                    </g>
                    <g id="Group_841-66" class="cls-3" transform="translate(1191 4607.027)">
                        <g id="Group_5-66" class="cls-4">
                            <path id="Path_3-66" d="M0 0h3.323v14.608H0z" class="cls-5" transform="rotate(-90 4.483 4.483)"/>
                            <path id="Path_4-66" d="M0 0h3.323v14.608H0z" class="cls-5" transform="translate(5.643)"/>
                        </g>
                    </g>
                    <g id="Group_841-67" class="cls-3" transform="translate(701 4656.027)">
                        <g id="Group_5-67" class="cls-4">
                            <path id="Path_3-67" d="M0 0h3.323v14.608H0z" class="cls-5" transform="rotate(-90 4.483 4.483)"/>
                            <path id="Path_4-67" d="M0 0h3.323v14.608H0z" class="cls-5" transform="translate(5.643)"/>
                        </g>
                    </g>
                    <g id="Group_841-68" class="cls-8" transform="translate(750 4656.027)">
                        <g id="Group_5-68" class="cls-4">
                            <path id="Path_3-68" d="M0 0h3.323v14.608H0z" class="cls-5" transform="rotate(-90 4.483 4.483)"/>
                            <path id="Path_4-68" d="M0 0h3.323v14.608H0z" class="cls-5" transform="translate(5.643)"/>
                        </g>
                    </g>
                    <g id="Group_841-69" class="cls-3" transform="translate(799 4656.027)">
                        <g id="Group_5-69" class="cls-4">
                            <path id="Path_3-69" d="M0 0h3.323v14.608H0z" class="cls-5" transform="rotate(-90 4.483 4.483)"/>
                            <path id="Path_4-69" d="M0 0h3.323v14.608H0z" class="cls-5" transform="translate(5.643)"/>
                        </g>
                    </g>
                    <g id="Group_841-70" class="cls-6" transform="translate(848 4656.027)">
                        <g id="Group_5-70" class="cls-4">
                            <path id="Path_3-70" d="M0 0h3.323v14.608H0z" class="cls-5" transform="rotate(-90 4.483 4.483)"/>
                            <path id="Path_4-70" d="M0 0h3.323v14.608H0z" class="cls-5" transform="translate(5.643)"/>
                        </g>
                    </g>
                    <g id="Group_841-71" class="cls-3" transform="translate(897 4656.027)">
                        <g id="Group_5-71" class="cls-4">
                            <path id="Path_3-71" d="M0 0h3.323v14.608H0z" class="cls-5" transform="rotate(-90 4.483 4.483)"/>
                            <path id="Path_4-71" d="M0 0h3.323v14.608H0z" class="cls-5" transform="translate(5.643)"/>
                        </g>
                    </g>
                    <g id="Group_841-72" class="cls-3" transform="translate(946 4656.027)">
                        <g id="Group_5-72" class="cls-4">
                            <path id="Path_3-72" d="M0 0h3.323v14.608H0z" class="cls-5" transform="rotate(-90 4.483 4.483)"/>
                            <path id="Path_4-72" d="M0 0h3.323v14.608H0z" class="cls-5" transform="translate(5.643)"/>
                        </g>
                    </g>
                    <g id="Group_841-73" class="cls-3" transform="translate(995 4656.027)">
                        <g id="Group_5-73" class="cls-4">
                            <path id="Path_3-73" d="M0 0h3.323v14.608H0z" class="cls-5" transform="rotate(-90 4.483 4.483)"/>
                            <path id="Path_4-73" d="M0 0h3.323v14.608H0z" class="cls-5" transform="translate(5.643)"/>
                        </g>
                    </g>
                    <g id="Group_841-74" class="cls-3" transform="translate(1044 4656.027)">
                        <g id="Group_5-74" class="cls-4">
                            <path id="Path_3-74" d="M0 0h3.323v14.608H0z" class="cls-5" transform="rotate(-90 4.483 4.483)"/>
                            <path id="Path_4-74" d="M0 0h3.323v14.608H0z" class="cls-5" transform="translate(5.643)"/>
                        </g>
                    </g>
                    <g id="Group_841-75" class="cls-6" transform="translate(1093 4656.027)">
                        <g id="Group_5-75" class="cls-4">
                            <path id="Path_3-75" d="M0 0h3.323v14.608H0z" class="cls-5" transform="rotate(-90 4.483 4.483)"/>
                            <path id="Path_4-75" d="M0 0h3.323v14.608H0z" class="cls-5" transform="translate(5.643)"/>
                        </g>
                    </g>
                    <g id="Group_841-76" class="cls-6" transform="translate(1142 4656.027)">
                        <g id="Group_5-76" class="cls-4">
                            <path id="Path_3-76" d="M0 0h3.323v14.608H0z" class="cls-5" transform="rotate(-90 4.483 4.483)"/>
                            <path id="Path_4-76" d="M0 0h3.323v14.608H0z" class="cls-5" transform="translate(5.643)"/>
                        </g>
                    </g>
                    <g id="Group_841-77" class="cls-3" transform="translate(1191 4656.027)">
                        <g id="Group_5-77" class="cls-4">
                            <path id="Path_3-77" d="M0 0h3.323v14.608H0z" class="cls-5" transform="rotate(-90 4.483 4.483)"/>
                            <path id="Path_4-77" d="M0 0h3.323v14.608H0z" class="cls-5" transform="translate(5.643)"/>
                        </g>
                    </g>
                    <g id="Group_841-78" class="cls-3" transform="translate(701 4705.027)">
                        <g id="Group_5-78" class="cls-4">
                            <path id="Path_3-78" d="M0 0h3.323v14.608H0z" class="cls-5" transform="rotate(-90 4.483 4.483)"/>
                            <path id="Path_4-78" d="M0 0h3.323v14.608H0z" class="cls-5" transform="translate(5.643)"/>
                        </g>
                    </g>
                    <g id="Group_841-79" class="cls-6" transform="translate(750 4705.027)">
                        <g id="Group_5-79" class="cls-4">
                            <path id="Path_3-79" d="M0 0h3.323v14.608H0z" class="cls-5" transform="rotate(-90 4.483 4.483)"/>
                            <path id="Path_4-79" d="M0 0h3.323v14.608H0z" class="cls-5" transform="translate(5.643)"/>
                        </g>
                    </g>
                    <g id="Group_841-80" class="cls-7" transform="translate(799 4705.027)">
                        <g id="Group_5-80" class="cls-4">
                            <path id="Path_3-80" d="M0 0h3.323v14.608H0z" class="cls-5" transform="rotate(-90 4.483 4.483)"/>
                            <path id="Path_4-80" d="M0 0h3.323v14.608H0z" class="cls-5" transform="translate(5.643)"/>
                        </g>
                    </g>
                    <g id="Group_841-81" class="cls-8" transform="translate(848 4705.027)">
                        <g id="Group_5-81" class="cls-4">
                            <path id="Path_3-81" d="M0 0h3.323v14.608H0z" class="cls-5" transform="rotate(-90 4.483 4.483)"/>
                            <path id="Path_4-81" d="M0 0h3.323v14.608H0z" class="cls-5" transform="translate(5.643)"/>
                        </g>
                    </g>
                    <g id="Group_841-82" class="cls-6" transform="translate(897 4705.027)">
                        <g id="Group_5-82" class="cls-4">
                            <path id="Path_3-82" d="M0 0h3.323v14.608H0z" class="cls-5" transform="rotate(-90 4.483 4.483)"/>
                            <path id="Path_4-82" d="M0 0h3.323v14.608H0z" class="cls-5" transform="translate(5.643)"/>
                        </g>
                    </g>
                    <g id="Group_841-83" class="cls-3" transform="translate(946 4705.027)">
                        <g id="Group_5-83" class="cls-4">
                            <path id="Path_3-83" d="M0 0h3.323v14.608H0z" class="cls-5" transform="rotate(-90 4.483 4.483)"/>
                            <path id="Path_4-83" d="M0 0h3.323v14.608H0z" class="cls-5" transform="translate(5.643)"/>
                        </g>
                    </g>
                    <g id="Group_841-84" class="cls-6" transform="translate(995 4705.027)">
                        <g id="Group_5-84" class="cls-4">
                            <path id="Path_3-84" d="M0 0h3.323v14.608H0z" class="cls-5" transform="rotate(-90 4.483 4.483)"/>
                            <path id="Path_4-84" d="M0 0h3.323v14.608H0z" class="cls-5" transform="translate(5.643)"/>
                        </g>
                    </g>
                    <g id="Group_841-85" class="cls-6" transform="translate(1044 4705.027)">
                        <g id="Group_5-85" class="cls-4">
                            <path id="Path_3-85" d="M0 0h3.323v14.608H0z" class="cls-5" transform="rotate(-90 4.483 4.483)"/>
                            <path id="Path_4-85" d="M0 0h3.323v14.608H0z" class="cls-5" transform="translate(5.643)"/>
                        </g>
                    </g>
                    <g id="Group_841-86" class="cls-3" transform="translate(1093 4705.027)">
                        <g id="Group_5-86" class="cls-4">
                            <path id="Path_3-86" d="M0 0h3.323v14.608H0z" class="cls-5" transform="rotate(-90 4.483 4.483)"/>
                            <path id="Path_4-86" d="M0 0h3.323v14.608H0z" class="cls-5" transform="translate(5.643)"/>
                        </g>
                    </g>
                    <g id="Group_841-87" class="cls-3" transform="translate(1142 4705.027)">
                        <g id="Group_5-87" class="cls-4">
                            <path id="Path_3-87" d="M0 0h3.323v14.608H0z" class="cls-5" transform="rotate(-90 4.483 4.483)"/>
                            <path id="Path_4-87" d="M0 0h3.323v14.608H0z" class="cls-5" transform="translate(5.643)"/>
                        </g>
                    </g>
                    <g id="Group_841-88" class="cls-8" transform="translate(1191 4705.027)">
                        <g id="Group_5-88" class="cls-4">
                            <path id="Path_3-88" d="M0 0h3.323v14.608H0z" class="cls-5" transform="rotate(-90 4.483 4.483)"/>
                            <path id="Path_4-88" d="M0 0h3.323v14.608H0z" class="cls-5" transform="translate(5.643)"/>
                        </g>
                    </g>
                    <g id="Group_841-89" class="cls-3" transform="translate(701 4754.027)">
                        <g id="Group_5-89" class="cls-4">
                            <path id="Path_3-89" d="M0 0h3.323v14.608H0z" class="cls-5" transform="rotate(-90 4.483 4.483)"/>
                            <path id="Path_4-89" d="M0 0h3.323v14.608H0z" class="cls-5" transform="translate(5.643)"/>
                        </g>
                    </g>
                    <g id="Group_841-90" class="cls-6" transform="translate(750 4754.027)">
                        <g id="Group_5-90" class="cls-4">
                            <path id="Path_3-90" d="M0 0h3.323v14.608H0z" class="cls-5" transform="rotate(-90 4.483 4.483)"/>
                            <path id="Path_4-90" d="M0 0h3.323v14.608H0z" class="cls-5" transform="translate(5.643)"/>
                        </g>
                    </g>
                    <g id="Group_841-91" class="cls-3" transform="translate(799 4754.027)">
                        <g id="Group_5-91" class="cls-4">
                            <path id="Path_3-91" d="M0 0h3.323v14.608H0z" class="cls-5" transform="rotate(-90 4.483 4.483)"/>
                            <path id="Path_4-91" d="M0 0h3.323v14.608H0z" class="cls-5" transform="translate(5.643)"/>
                        </g>
                    </g>
                    <g id="Group_841-92" class="cls-6" transform="translate(848 4754.027)">
                        <g id="Group_5-92" class="cls-4">
                            <path id="Path_3-92" d="M0 0h3.323v14.608H0z" class="cls-5" transform="rotate(-90 4.483 4.483)"/>
                            <path id="Path_4-92" d="M0 0h3.323v14.608H0z" class="cls-5" transform="translate(5.643)"/>
                        </g>
                    </g>
                    <g id="Group_841-93" class="cls-3" transform="translate(897 4754.027)">
                        <g id="Group_5-93" class="cls-4">
                            <path id="Path_3-93" d="M0 0h3.323v14.608H0z" class="cls-5" transform="rotate(-90 4.483 4.483)"/>
                            <path id="Path_4-93" d="M0 0h3.323v14.608H0z" class="cls-5" transform="translate(5.643)"/>
                        </g>
                    </g>
                    <g id="Group_841-94" class="cls-3" transform="translate(946 4754.027)">
                        <g id="Group_5-94" class="cls-4">
                            <path id="Path_3-94" d="M0 0h3.323v14.608H0z" class="cls-5" transform="rotate(-90 4.483 4.483)"/>
                            <path id="Path_4-94" d="M0 0h3.323v14.608H0z" class="cls-5" transform="translate(5.643)"/>
                        </g>
                    </g>
                    <g id="Group_841-95" class="cls-3" transform="translate(995 4754.027)">
                        <g id="Group_5-95" class="cls-4">
                            <path id="Path_3-95" d="M0 0h3.323v14.608H0z" class="cls-5" transform="rotate(-90 4.483 4.483)"/>
                            <path id="Path_4-95" d="M0 0h3.323v14.608H0z" class="cls-5" transform="translate(5.643)"/>
                        </g>
                    </g>
                    <g id="Group_841-96" class="cls-3" transform="translate(1044 4754.027)">
                        <g id="Group_5-96" class="cls-4">
                            <path id="Path_3-96" d="M0 0h3.323v14.608H0z" class="cls-5" transform="rotate(-90 4.483 4.483)"/>
                            <path id="Path_4-96" d="M0 0h3.323v14.608H0z" class="cls-5" transform="translate(5.643)"/>
                        </g>
                    </g>
                    <g id="Group_841-97" class="cls-6" transform="translate(1093 4754.027)">
                        <g id="Group_5-97" class="cls-4">
                            <path id="Path_3-97" d="M0 0h3.323v14.608H0z" class="cls-5" transform="rotate(-90 4.483 4.483)"/>
                            <path id="Path_4-97" d="M0 0h3.323v14.608H0z" class="cls-5" transform="translate(5.643)"/>
                        </g>
                    </g>
                    <g id="Group_841-98" class="cls-6" transform="translate(1142 4754.027)">
                        <g id="Group_5-98" class="cls-4">
                            <path id="Path_3-98" d="M0 0h3.323v14.608H0z" class="cls-5" transform="rotate(-90 4.483 4.483)"/>
                            <path id="Path_4-98" d="M0 0h3.323v14.608H0z" class="cls-5" transform="translate(5.643)"/>
                        </g>
                    </g>
                    <g id="Group_841-99" class="cls-3" transform="translate(1191 4754.027)">
                        <g id="Group_5-99" class="cls-4">
                            <path id="Path_3-99" d="M0 0h3.323v14.608H0z" class="cls-5" transform="rotate(-90 4.483 4.483)"/>
                            <path id="Path_4-99" d="M0 0h3.323v14.608H0z" class="cls-5" transform="translate(5.643)"/>
                        </g>
                    </g>
                </g>
            </g>
        </g>
        <g id="marketing" transform="translate(858 5485)">
            <path id="Path_490" d="M4.1 192.947h142.408a3.1 3.1 0 0 0 3.1-3.1v-46.435a40.293 40.293 0 0 0-40.247-40.247H96.974a3.1 3.1 0 0 1-3.1-3.1V87.627a30.9 30.9 0 0 0 12.384-24.709h1.548a10.811 10.811 0 0 0 1.551-21.518V25.767A24.8 24.8 0 0 0 84.59 1H66.014a24.8 24.8 0 0 0-24.767 24.767V41.4a10.811 10.811 0 0 0 1.548 21.514h1.548a30.9 30.9 0 0 0 12.384 24.713v12.443a3.1 3.1 0 0 1-3.1 3.1h-12.38A40.293 40.293 0 0 0 1 143.412v46.439a3.1 3.1 0 0 0 3.1 3.1zm39.8-83.59h1.31l24.907 74.72-13.589-11.321-2.928-20.495a3.1 3.1 0 0 0-1.916-2.436l-13.195-5.263zm68.212 35.188l-13.195 5.263A3.1 3.1 0 0 0 97 152.245l-2.929 20.5-13.583 11.317 24.907-74.7h1.305zM97.63 113.072L75.3 180.065l-22.326-66.993 4.285 4.285a25.517 25.517 0 0 0 36.086 0zm45.783 30.34v43.343H86.952l12.006-10a3.124 3.124 0 0 0 1.08-1.941l2.842-19.9 13.817-5.526a3.1 3.1 0 0 0 1.91-3.347L113 109.558a34.1 34.1 0 0 1 30.412 33.854zm-30.959-91.33a4.644 4.644 0 0 1-4.644 4.644h-1.548v-9.287h1.548a4.644 4.644 0 0 1 4.643 4.644zm-69.659 4.645a4.644 4.644 0 0 1 0-9.288h1.548v9.288zm4.644-30.959A18.594 18.594 0 0 1 66.014 7.192H84.59a18.594 18.594 0 0 1 18.576 18.576v15.48h-6.192a3.1 3.1 0 0 1-3.1-3.1v-9.285a3.1 3.1 0 0 0-4.074-2.938L82.333 28.4l-1.746-1.743a3.1 3.1 0 0 0-2.189-.892H59.823a3.1 3.1 0 0 0-3.1 3.1v9.288a3.1 3.1 0 0 1-3.1 3.1h-6.184zm3.1 37.151v-15.48h3.1a9.288 9.288 0 0 0 9.288-9.288v-6.192h14.2l2.189 2.189a3.1 3.1 0 0 0 3.167.749l5.214-1.74v4.994a9.288 9.288 0 0 0 9.288 9.288h3.1v15.48a24.767 24.767 0 0 1-49.535 0zM75.3 93.878a30.743 30.743 0 0 0 12.386-2.6v8.8a9.288 9.288 0 0 0 5.653 8.545l-4.371 4.371a19.328 19.328 0 0 1-27.331 0l-4.371-4.371a9.288 9.288 0 0 0 5.653-8.545v-8.8a30.739 30.739 0 0 0 12.381 2.6zM7.192 143.412a34.1 34.1 0 0 1 30.414-33.854L32 146.038a3.1 3.1 0 0 0 1.91 3.347l13.817 5.526 2.842 19.9a3.124 3.124 0 0 0 1.08 1.941l12.006 10H7.192z" class="cls-9"/>
            <path id="Path_491" d="M94.9 61.963a9.656 9.656 0 0 0 13.579-13.73l-36.4-36.4a9.658 9.658 0 0 0-13.726 13.585l-1.548 6.238a59.568 59.568 0 0 1-15.671 27.675 14.025 14.025 0 0 0 17.405 21.786l17.845 17.845A9.6 9.6 0 1 0 89.941 85.4l-5.21-5.2 2.721-2.721a9.288 9.288 0 0 0 0-13.136l-.378-.375c.529-.149 1.05-.31 1.582-.455zm-29.652-46.77a3.508 3.508 0 0 1 2.452 1.015l36.4 36.4a3.471 3.471 0 0 1-2.455 5.926 3.508 3.508 0 0 1-2.455-1.015l-36.4-36.4a3.471 3.471 0 0 1 2.455-5.926zM43.2 69.26a7.811 7.811 0 0 1 2.3-5.551c1.3-1.3 2.526-2.672 3.715-4.074l11.454 11.454c-1.4 1.186-2.786 2.409-4.077 3.715A7.851 7.851 0 0 1 43.2 69.26zm43.345 22.91a3.406 3.406 0 0 1-5.8 2.4L63.242 77.065a59.644 59.644 0 0 1 5.347-4.257l16.974 16.975a3.368 3.368 0 0 1 .981 2.4zm-3.471-23.455a3.1 3.1 0 0 1 0 4.381l-2.721 2.731-6.44-6.436a59.861 59.861 0 0 1 6.628-3.195zm-17.433-1.421L53 54.659a65.649 65.649 0 0 0 9.8-21.51l.656-2.625 26.312 26.315-2.622.656a65.68 65.68 0 0 0-21.5 9.811z" class="cls-9" transform="translate(75.443 16.767)"/>
            <path id="Path_492" d="M73.961 19.192V13h-.533a24.062 24.062 0 0 0-17.136 7.1l4.378 4.378a17.922 17.922 0 0 1 12.758-5.285z" class="cls-9" transform="translate(115.89 25.151)"/>
            <path id="Path_493" d="M64.77 8h-6.192v.529a17.928 17.928 0 0 1-5.285 12.761l4.378 4.378a24.077 24.077 0 0 0 7.1-17.139z" class="cls-9" transform="translate(109.602 14.671)"/>
        </g>
    </g>
</svg>
