<svg xmlns="http://www.w3.org/2000/svg" width="113.894" height="112.092" viewBox="0 0 113.894 112.092">
    <defs>
        <style>
            .cls-1{fill:#b9ddfd}.cls-2{fill:#9bc9ff}.cls-3{fill:#5dabed}
        </style>
    </defs>
    <g id="data-sharing">
        <path id="Path_525" d="M39.734 104.242A31.734 31.734 0 1 1 8 135.976a31.734 31.734 0 0 1 31.734-31.734zm9.334 31.734a9.334 9.334 0 1 0-9.334 9.334 9.334 9.334 0 0 0 9.334-9.334zm0 0" class="cls-1" transform="translate(40.559 -79.93)"/>
        <path id="Path_526" d="M136 234.109a1.867 1.867 0 1 0 1.867-1.867 1.867 1.867 0 0 0-1.867 1.867zm0 0" class="cls-2" transform="translate(-57.574 -178.063)"/>
        <path id="Path_527" d="M432 234.109a1.867 1.867 0 1 0 1.867-1.867 1.867 1.867 0 0 0-1.867 1.867zm0 0" class="cls-2" transform="translate(-422.642 -178.063)"/>
        <path id="Path_528" d="M240 42.109a1.867 1.867 0 1 0 1.867-1.867A1.867 1.867 0 0 0 240 42.109zm0 0" class="cls-2" transform="translate(-185.841 -30.864)"/>
        <path id="Path_529" d="M240 426.109a1.867 1.867 0 1 0 1.867-1.867 1.867 1.867 0 0 0-1.867 1.867zm0 0" class="cls-2" transform="translate(-185.841 -325.262)"/>
        <g id="Group_902">
            <path id="Path_530" d="M235.733 423.709a3.733 3.733 0 1 0-3.733-3.733 3.734 3.734 0 0 0 3.733 3.733zm0-3.733" class="cls-1" transform="translate(-179.708 -319.129)"/>
            <path id="Path_531" d="M211.034 44.9a11.127 11.127 0 0 1 6.48 2.082l29.2-29.2a11.223 11.223 0 1 1 2.64 2.64l-29.2 29.2a11.126 11.126 0 0 1 0 12.959l29.2 29.2a11.223 11.223 0 1 1-2.64 2.64l-29.2-29.2a11.2 11.2 0 1 1-6.48-20.32zm50.082-28.321a7.467 7.467 0 1 0-10.562 0 7.654 7.654 0 0 0 10.562-.004zm-10.562 89.6a7.654 7.654 0 0 0 10.562 0 7.467 7.467 0 1 0-10.562 0zm-39.52-42.613a7.467 7.467 0 1 0-7.467-7.467 7.467 7.467 0 0 0 7.467 7.465zm0 0" class="cls-3" transform="translate(-199.809 -.051)"/>
            <path id="Path_532" d="M0 129.843a33.6 33.6 0 1 1 33.6 33.6 33.6 33.6 0 0 1-33.6-33.6zm33.6 29.867a29.867 29.867 0 1 0-29.867-29.867A29.868 29.868 0 0 0 33.6 159.71zm0 0" class="cls-3" transform="translate(46.692 -73.797)"/>
            <path id="Path_533" d="M99.068 142.562a22.424 22.424 0 0 0-31.677 0 1.867 1.867 0 0 1-2.64-2.641 26.156 26.156 0 0 1 36.96 0 1.867 1.867 0 0 1-2.64 2.64zm0 0" class="cls-3" transform="translate(-3.323 -101.422)"/>
            <path id="Path_534" d="M67.286 310.327a22.424 22.424 0 0 0 31.677 0 1.867 1.867 0 0 1 2.64 2.641 26.156 26.156 0 0 1-36.96 0 1.867 1.867 0 0 1 2.64-2.64zm0 0" class="cls-3" transform="translate(-3.219 -237.509)"/>
            <path id="Path_535" d="M118.4 203.442a11.2 11.2 0 1 1-11.2-11.2 11.2 11.2 0 0 1 11.2 11.2zm-18.667 0a7.467 7.467 0 1 0 7.467-7.467 7.467 7.467 0 0 0-7.467 7.467zm0 0" class="cls-3" transform="translate(-26.907 -147.397)"/>
            <path id="Path_536" d="M128 227.976a3.733 3.733 0 1 0 3.733-3.733 3.734 3.734 0 0 0-3.733 3.733zm0 0" class="cls-1" transform="translate(-51.441 -171.93)"/>
            <path id="Path_537" d="M424 227.976a3.733 3.733 0 1 0 3.733-3.733 3.734 3.734 0 0 0-3.733 3.733zm0 0" class="cls-1" transform="translate(-416.509 -171.93)"/>
            <path id="Path_538" d="M232 35.976a3.733 3.733 0 1 0 3.733-3.733A3.734 3.734 0 0 0 232 35.976zm0 0" class="cls-1" transform="translate(-179.708 -24.731)"/>
            <path id="Path_539" d="M203.733 232.242H200v3.733h3.733zm0 0" class="cls-3" transform="translate(-136.507 -178.063)"/>
            <path id="Path_540" d="M227.733 232.242H224v3.733h3.733zm0 0" class="cls-3" transform="translate(-166.108 -178.063)"/>
            <path id="Path_541" d="M251.733 232.242H248v3.733h3.733zm0 0" class="cls-3" transform="translate(-195.708 -178.063)"/>
            <path id="Path_542" d="M299.733 232.242H296v3.733h3.733zm0 0" class="cls-3" transform="translate(-254.908 -178.063)"/>
            <path id="Path_543" d="M323.733 232.242H320v3.733h3.733zm0 0" class="cls-3" transform="translate(-284.508 -178.063)"/>
            <path id="Path_544" d="M347.733 232.242H344v3.733h3.733zm0 0" class="cls-3" transform="translate(-314.108 -178.063)"/>
            <path id="Path_545" d="M371.733 232.242H368v3.733h3.733zm0 0" class="cls-3" transform="translate(-343.708 -178.063)"/>
        </g>
    </g>
</svg>
