<svg xmlns="http://www.w3.org/2000/svg" width="436.783" height="363.154" viewBox="0 0 436.783 363.154">
  <defs>
    <style>
      .cls-1, .cls-12, .cls-13 {
        fill: #b9ddfd;
      }

      .cls-2 {
        fill: #f4f5f5;
      }

      .cls-3 {
        fill: #499ade;
      }

      .cls-4 {
        fill: #8ec8fc;
      }

      .cls-28, .cls-5, .cls-9 {
        fill: none;
      }

      .cls-5 {
        stroke: #cae3f8;
      }

      .cls-5, .cls-9 {
        stroke-width: 2px;
      }

      .cls-6 {
        fill: #86ded8;
      }

      .cls-7 {
        fill: #00a297;
      }

      .cls-8 {
        fill: #5fd8d0;
      }

      .cls-9 {
        stroke: #5fd8d0;
      }

      .cls-10 {
        fill: #bd96de;
      }

      .cls-11 {
        fill: #aa66e3;
      }

      .cls-12 {
        opacity: 0.281;
      }

      .cls-13 {
        opacity: 0.451;
      }

      .cls-14, .cls-15, .cls-16 {
        fill: #5dabed;
      }

      .cls-14 {
        opacity: 0.207;
      }

      .cls-15 {
        opacity: 0.37;
      }

      .cls-17 {
        fill: #dee6eb;
      }

      .cls-18 {
        fill: #bccdd8;
      }

      .cls-19 {
        fill: #498bc4;
      }

      .cls-20 {
        fill: #292929;
      }

      .cls-21 {
        fill: #d0e0ed;
      }

      .cls-22 {
        fill: #fff;
      }

      .cls-23 {
        fill: #f5f8f9;
      }

      .cls-24 {
        fill: #dbe1e8;
      }

      .cls-25 {
        fill: #8bc6f8;
      }

      .cls-26 {
        fill: #e8f3ff;
      }

      .cls-27 {
        stroke: none;
      }
    </style>
  </defs>
  <g id="Group_544" data-name="Group 544" transform="translate(-750.004 -2608)">
    <g id="Group_520" data-name="Group 520" transform="translate(-9 -15)">
      <g id="Group_517" data-name="Group 517" transform="translate(86.257 41)">
        <g id="checklist" transform="translate(796.743 2637)">
          <path id="Path_328" data-name="Path 328" class="cls-1" d="M5.014,16H60.166a5.014,5.014,0,0,1,5.014,5.014V88.7a5.014,5.014,0,0,1-5.014,5.014H5.014A5.014,5.014,0,0,1,0,88.7V21.014A5.014,5.014,0,0,1,5.014,16Zm0,0" transform="translate(0 -13.493)"/>
          <path id="Path_329" data-name="Path 329" class="cls-2" d="M32,99.176V48H87.152v67.687H48.51Zm0,0" transform="translate(-26.986 -40.479)"/>
          <path id="Path_330" data-name="Path 330" class="cls-3" d="M48.51,374.625v16.51L32,374.625Zm0,0" transform="translate(-26.986 -315.928)"/>
          <path id="Path_331" data-name="Path 331" class="cls-3" d="M128,10.028V0h25.069V10.028a5.014,5.014,0,0,1-5.014,5.014H133.014A5.014,5.014,0,0,1,128,10.028Zm0,0" transform="translate(-107.945)"/>
          <g id="Group_516" data-name="Group 516" transform="translate(11.03 19.451)">
            <path id="Path_333" data-name="Path 333" class="cls-4" d="M76.29,264.938,71.4,261.272a2.507,2.507,0,1,1,3.008-4.011l1.13.847,4.36-5.089a2.508,2.508,0,0,1,3.808,3.264Zm0,0" transform="translate(-70.399 -232.09)"/>
            <path id="Path_334" data-name="Path 334" class="cls-4" d="M194.507,160h17.548a2.507,2.507,0,1,1,0,5.014H194.507a2.507,2.507,0,1,1,0-5.014Zm0,0" transform="translate(-172.947 -154.382)"/>
            <path id="Path_335" data-name="Path 335" class="cls-4" d="M194.507,304h17.548a2.507,2.507,0,1,1,0,5.014H194.507a2.507,2.507,0,1,1,0-5.014Zm0,0" transform="translate(-172.947 -275.82)"/>
            <g id="Rectangle_68" data-name="Rectangle 68" class="cls-5" transform="translate(-0.03 1.549)">
              <rect class="cls-27" width="13" height="13" rx="3"/>
              <rect class="cls-28" x="1" y="1" width="11" height="11" rx="2"/>
            </g>
          </g>
        </g>
        <g id="checklist-2" data-name="checklist" transform="translate(868.645 2582)">
          <path id="Path_328-2" data-name="Path 328" class="cls-6" d="M5.944,16H71.333a5.945,5.945,0,0,1,5.944,5.944v80.25a5.945,5.945,0,0,1-5.944,5.944H5.944A5.945,5.945,0,0,1,0,102.194V21.944A5.945,5.945,0,0,1,5.944,16Zm0,0" transform="translate(0 -13.028)"/>
          <path id="Path_329-2" data-name="Path 329" class="cls-2" d="M32,108.675V48H97.389v80.25H51.575Zm0,0" transform="translate(-26.056 -39.083)"/>
          <path id="Path_330-2" data-name="Path 330" class="cls-7" d="M51.575,374.625V394.2L32,374.625Zm0,0" transform="translate(-26.056 -305.034)"/>
          <path id="Path_331-2" data-name="Path 331" class="cls-7" d="M128,11.889V0h29.722V11.889a5.945,5.945,0,0,1-5.944,5.944H133.944A5.945,5.945,0,0,1,128,11.889Zm0,0" transform="translate(-104.222)"/>
          <g id="Group_516-2" data-name="Group 516" transform="translate(13.346 24.898)">
            <path id="Path_334-2" data-name="Path 334" class="cls-8" d="M194.972,160h20.805a2.972,2.972,0,1,1,0,5.944H194.972a2.972,2.972,0,1,1,0-5.944Zm0,0" transform="translate(-169.68 -155.176)"/>
            <path id="Path_335-2" data-name="Path 335" class="cls-8" d="M194.972,304h20.805a2.972,2.972,0,1,1,0,5.944H194.972a2.972,2.972,0,1,1,0-5.944Zm0,0" transform="translate(-169.68 -272.426)"/>
            <g id="Ellipse_43" data-name="Ellipse 43" class="cls-9" transform="translate(-0.992 0.102)">
              <circle class="cls-27" cx="8" cy="8" r="8"/>
              <circle class="cls-28" cx="8" cy="8" r="7"/>
            </g>
            <g id="Ellipse_44" data-name="Ellipse 44" class="cls-9" transform="translate(-0.992 26.102)">
              <circle class="cls-27" cx="8" cy="8" r="8"/>
              <circle class="cls-28" cx="8" cy="8" r="7"/>
            </g>
            <circle id="Ellipse_49" data-name="Ellipse 49" class="cls-8" cx="4.5" cy="4.5" r="4.5" transform="translate(2.551 29.602)"/>
          </g>
        </g>
        <g id="checklist-3" data-name="checklist" transform="translate(936 2647.004)">
          <path id="Path_328-3" data-name="Path 328" class="cls-10" d="M3.763,16h41.4a3.763,3.763,0,0,1,3.763,3.763v50.8a3.763,3.763,0,0,1-3.763,3.763H3.763A3.763,3.763,0,0,1,0,70.568v-50.8A3.763,3.763,0,0,1,3.763,16Zm0,0" transform="translate(0 -14.118)"/>
          <path id="Path_329-3" data-name="Path 329" class="cls-2" d="M32,86.412V48H73.4V98.8h-29Zm0,0" transform="translate(-28.237 -42.355)"/>
          <path id="Path_330-3" data-name="Path 330" class="cls-11" d="M44.392,374.625v12.392L32,374.625Zm0,0" transform="translate(-28.237 -330.568)"/>
          <path id="Path_331-3" data-name="Path 331" class="cls-11" d="M128,7.527V0h18.816V7.527a3.763,3.763,0,0,1-3.763,3.763h-11.29A3.763,3.763,0,0,1,128,7.527Zm0,0" transform="translate(-112.947)"/>
          <g id="Group_516-3" data-name="Group 516" transform="translate(8.279 14.6)">
            <path id="Path_332" data-name="Path 332" class="cls-10" d="M74.821,133.747,71.152,131a1.882,1.882,0,0,1,2.258-3.01l.848.636,3.272-3.82a1.882,1.882,0,0,1,2.858,2.45Zm0,0" transform="translate(-70.399 -124.145)"/>
            <path id="Path_333-2" data-name="Path 333" class="cls-10" d="M74.821,261.747,71.152,259a1.882,1.882,0,1,1,2.258-3.01l.848.636,3.272-3.82a1.882,1.882,0,0,1,2.858,2.45Zm0,0" transform="translate(-70.399 -237.092)"/>
            <path id="Path_334-3" data-name="Path 334" class="cls-10" d="M193.882,160h13.171a1.882,1.882,0,1,1,0,3.763H193.882a1.882,1.882,0,1,1,0-3.763Zm0,0" transform="translate(-177.699 -155.783)"/>
            <path id="Path_335-3" data-name="Path 335" class="cls-10" d="M193.882,304h13.171a1.882,1.882,0,1,1,0,3.763H193.882a1.882,1.882,0,1,1,0-3.763Zm0,0" transform="translate(-177.699 -282.849)"/>
          </g>
        </g>
      </g>
      <g id="Group_519" data-name="Group 519" transform="translate(-4 -12)">
        <g id="Group_518" data-name="Group 518" transform="translate(14.666 -33)">
          <circle id="Ellipse_45" data-name="Ellipse 45" class="cls-12" cx="13" cy="13" r="13" transform="translate(962.333 2791)"/>
          <circle id="Ellipse_46" data-name="Ellipse 46" class="cls-13" cx="13" cy="13" r="13" transform="translate(962.333 2806)"/>
          <ellipse id="Ellipse_47" data-name="Ellipse 47" class="cls-14" cx="13" cy="13.5" rx="13" ry="13.5" transform="translate(962.333 2820)"/>
          <ellipse id="Ellipse_48" data-name="Ellipse 48" class="cls-15" cx="13" cy="13.5" rx="13" ry="13.5" transform="translate(962.333 2835)"/>
        </g>
        <path id="right-arrow" class="cls-16" d="M69.069,25.523,43.88.334A1.145,1.145,0,0,0,43.07,0H22.461a1.145,1.145,0,0,0-.811,1.956l24.38,24.378L21.65,50.711a1.145,1.145,0,0,0,.811,1.956H43.07a1.145,1.145,0,0,0,.811-.334L69.069,27.144a1.145,1.145,0,0,0,0-1.619Z" transform="translate(1016.333 2802.686) rotate(90)"/>
      </g>
    </g>
    <g id="Group_543" data-name="Group 543">
      <g id="Group_521" data-name="Group 521">
        <g id="shield" transform="translate(732.523 2874.946)">
          <path id="Path_336" data-name="Path 336" class="cls-17" d="M62.379,0,30.912,8.979V24.754A50.536,50.536,0,0,0,61.54,71.241l.839.336.839-.336A50.536,50.536,0,0,0,93.846,24.754V8.979Z" transform="translate(0)"/>
          <path id="Path_337" data-name="Path 337" class="cls-18" d="M287.467,8.979V24.754a50.536,50.536,0,0,1-30.628,46.487l-.839.336V0Z" transform="translate(-193.621)"/>
          <path id="Path_338" data-name="Path 338" class="cls-16" d="M114.012,62.425,90.936,69.012v9.44A42.158,42.158,0,0,0,113,115.541l1.007.545,1.007-.545a42.157,42.157,0,0,0,22.069-37.089v-9.44Z" transform="translate(-51.633 -53.698)"/>
          <path id="Path_339" data-name="Path 339" class="cls-19" d="M279.076,69.012v9.44a42.158,42.158,0,0,1-22.069,37.089l-1.007.545V62.425Z" transform="translate(-193.621 -53.698)"/>
        </g>
        <path id="Path_499" data-name="Path 499" class="cls-20" d="M1-10.182H3.261L6.284-2.8H6.4l3.023-7.378h2.257V0H9.913V-7H9.819L7-.03H5.683L2.869-7.01H2.774V0H1Zm14.532,0V0H13.692V-10.182Zm1.556,1.546v-1.546h8.124v1.546H22.069V0h-1.83V-8.636Zm11.529-1.546V0H26.777V-10.182ZM37.446-6.93a2.719,2.719,0,0,0-.341-.723,2.3,2.3,0,0,0-.517-.549,2.152,2.152,0,0,0-.689-.346,2.919,2.919,0,0,0-.845-.117,2.642,2.642,0,0,0-1.462.413,2.757,2.757,0,0,0-1.007,1.211A4.644,4.644,0,0,0,32.221-5.1a4.717,4.717,0,0,0,.363,1.954,2.743,2.743,0,0,0,1.009,1.216,2.717,2.717,0,0,0,1.5.415,2.86,2.86,0,0,0,1.345-.3,2.1,2.1,0,0,0,.877-.848,2.594,2.594,0,0,0,.308-1.29l.418.065H35.278V-5.33H39.41v1.223a4.411,4.411,0,0,1-.557,2.262A3.787,3.787,0,0,1,37.322-.375a4.719,4.719,0,0,1-2.237.515,4.722,4.722,0,0,1-2.468-.634,4.327,4.327,0,0,1-1.656-1.8,6.079,6.079,0,0,1-.594-2.782,6.452,6.452,0,0,1,.35-2.2A4.761,4.761,0,0,1,31.7-8.931,4.232,4.232,0,0,1,33.18-9.966a4.746,4.746,0,0,1,1.849-.355,4.908,4.908,0,0,1,1.576.246,4.249,4.249,0,0,1,1.3.7A3.9,3.9,0,0,1,38.843-8.3a3.784,3.784,0,0,1,.482,1.372ZM42.184,0H40.215L43.8-10.182h2.277L49.666,0H47.7L44.978-8.094H44.9Zm.065-3.992h5.369v1.482H42.249Zm7.08-4.643v-1.546h8.124v1.546H54.3V0h-1.83V-8.636Zm11.529-1.546V0H59.013V-10.182Zm11.1,5.091a6,6,0,0,1-.614,2.816,4.384,4.384,0,0,1-1.67,1.792,4.632,4.632,0,0,1-2.394.621,4.618,4.618,0,0,1-2.394-.624,4.4,4.4,0,0,1-1.67-1.795A5.983,5.983,0,0,1,62.6-5.091a6,6,0,0,1,.614-2.816A4.384,4.384,0,0,1,64.887-9.7a4.632,4.632,0,0,1,2.394-.621,4.632,4.632,0,0,1,2.394.621,4.384,4.384,0,0,1,1.67,1.792A6,6,0,0,1,71.959-5.091Zm-1.854,0a4.741,4.741,0,0,0-.36-1.956,2.722,2.722,0,0,0-1-1.208,2.647,2.647,0,0,0-1.467-.41,2.647,2.647,0,0,0-1.467.41,2.722,2.722,0,0,0-1,1.208,4.741,4.741,0,0,0-.36,1.956,4.741,4.741,0,0,0,.36,1.956,2.722,2.722,0,0,0,1,1.208,2.647,2.647,0,0,0,1.467.41,2.647,2.647,0,0,0,1.467-.41,2.722,2.722,0,0,0,1-1.208A4.741,4.741,0,0,0,70.1-5.091Zm11.972-5.091V0H80.435l-4.8-6.935h-.085V0H73.709V-10.182h1.651l4.793,6.94h.089v-6.94Zm7.537,2.8A1.36,1.36,0,0,0,89.029-8.4a2.266,2.266,0,0,0-1.335-.363,2.54,2.54,0,0,0-.989.174,1.465,1.465,0,0,0-.631.472,1.148,1.148,0,0,0-.224.681A1.016,1.016,0,0,0,86-6.881a1.267,1.267,0,0,0,.4.4,2.756,2.756,0,0,0,.562.271,6.042,6.042,0,0,0,.621.184l.955.239a6.651,6.651,0,0,1,1.111.363,3.97,3.97,0,0,1,.96.577,2.573,2.573,0,0,1,.674.84,2.528,2.528,0,0,1,.249,1.153,2.748,2.748,0,0,1-.457,1.574A3,3,0,0,1,89.75-.226a5.153,5.153,0,0,1-2.086.38A5.28,5.28,0,0,1,85.6-.214a3.055,3.055,0,0,1-1.362-1.074,3.17,3.17,0,0,1-.529-1.72h1.815a1.542,1.542,0,0,0,.328.885,1.735,1.735,0,0,0,.753.527,2.953,2.953,0,0,0,1.042.174A2.838,2.838,0,0,0,88.706-1.6a1.682,1.682,0,0,0,.713-.507,1.214,1.214,0,0,0,.263-.763.983.983,0,0,0-.234-.659,1.754,1.754,0,0,0-.639-.437,6.478,6.478,0,0,0-.957-.316l-1.158-.3a4.627,4.627,0,0,1-1.986-.982,2.248,2.248,0,0,1-.728-1.752,2.616,2.616,0,0,1,.49-1.576A3.219,3.219,0,0,1,85.8-9.946a4.669,4.669,0,0,1,1.914-.375,4.517,4.517,0,0,1,1.9.375,3.125,3.125,0,0,1,1.285,1.039,2.664,2.664,0,0,1,.482,1.524Z" transform="translate(749 2971)"/>
        <path id="Icon_ionic-ios-settings" data-name="Icon ionic-ios-settings" class="cls-21" d="M29.271,18A3.474,3.474,0,0,1,31.5,14.759a13.772,13.772,0,0,0-1.666-4.015,3.521,3.521,0,0,1-1.413.3,3.467,3.467,0,0,1-3.171-4.88A13.73,13.73,0,0,0,21.241,4.5a3.471,3.471,0,0,1-6.483,0,13.772,13.772,0,0,0-4.015,1.666,3.467,3.467,0,0,1-3.171,4.88,3.406,3.406,0,0,1-1.413-.3A14.076,14.076,0,0,0,4.5,14.766a3.473,3.473,0,0,1,.007,6.483,13.772,13.772,0,0,0,1.666,4.015,3.468,3.468,0,0,1,4.577,4.577,13.852,13.852,0,0,0,4.015,1.666,3.465,3.465,0,0,1,6.469,0,13.772,13.772,0,0,0,4.015-1.666,3.472,3.472,0,0,1,4.577-4.577,13.852,13.852,0,0,0,1.666-4.015A3.491,3.491,0,0,1,29.271,18ZM18.063,23.618a5.625,5.625,0,1,1,5.625-5.625A5.623,5.623,0,0,1,18.063,23.618Z" transform="translate(777 2889.731)"/>
        <path id="Subtraction_2" data-name="Subtraction 2" class="cls-22" d="M10.265,19.238h0A13.827,13.827,0,0,1,6.25,17.572a3.493,3.493,0,0,0-.717-3.86,3.486,3.486,0,0,0-3.86-.717A13.754,13.754,0,0,1,.007,8.979,3.458,3.458,0,0,0,2.229,5.738,3.45,3.45,0,0,0,0,2.5,14.08,14.08,0,0,1,1.66-1.525a3.406,3.406,0,0,0,1.413.3A3.446,3.446,0,0,0,5.527-2.236,3.485,3.485,0,0,0,6.243-6.1a13.776,13.776,0,0,1,4.015-1.667A3.493,3.493,0,0,0,13.5-5.54V.1A5.626,5.626,0,0,0,9.562,9.679a5.589,5.589,0,0,0,3.938,1.67v5.668a3.441,3.441,0,0,0-3.234,2.221Z" transform="translate(781.5 2902)"/>
      </g>
      <g id="Group_530" data-name="Group 530" transform="translate(357)">
        <path id="Path_501" data-name="Path 501" class="cls-20" d="M2.312,0H.343L3.928-10.182H6.2L9.794,0H7.825L5.106-8.094h-.08Zm.065-3.992H7.746v1.482H2.376ZM19.5-10.182V0H17.863l-4.8-6.935h-.085V0H11.136V-10.182h1.651l4.793,6.94h.089v-6.94ZM22.815,0H20.846L24.43-10.182h2.277L30.3,0H28.328L25.609-8.094h-.08Zm.065-3.992h5.369v1.482H22.879ZM31.639,0V-10.182h1.844v8.636h4.484V0Zm6.2-10.182h2.083l2.491,4.5h.1l2.491-4.5h2.083L43.387-3.8V0H41.548V-3.8Zm16.093,2.8A1.36,1.36,0,0,0,53.353-8.4a2.266,2.266,0,0,0-1.335-.363,2.54,2.54,0,0,0-.989.174,1.465,1.465,0,0,0-.631.472,1.148,1.148,0,0,0-.224.681,1.016,1.016,0,0,0,.147.552,1.267,1.267,0,0,0,.4.4,2.756,2.756,0,0,0,.562.271,6.043,6.043,0,0,0,.621.184l.955.239a6.651,6.651,0,0,1,1.111.363,3.97,3.97,0,0,1,.96.577,2.573,2.573,0,0,1,.674.84,2.528,2.528,0,0,1,.249,1.153,2.748,2.748,0,0,1-.457,1.574,3,3,0,0,1-1.32,1.059,5.153,5.153,0,0,1-2.086.38,5.28,5.28,0,0,1-2.061-.368,3.055,3.055,0,0,1-1.362-1.074,3.17,3.17,0,0,1-.529-1.72H49.85a1.543,1.543,0,0,0,.328.885,1.735,1.735,0,0,0,.753.527,2.953,2.953,0,0,0,1.042.174A2.838,2.838,0,0,0,53.029-1.6a1.682,1.682,0,0,0,.713-.507,1.214,1.214,0,0,0,.263-.763.983.983,0,0,0-.234-.659,1.754,1.754,0,0,0-.639-.437,6.478,6.478,0,0,0-.957-.316l-1.158-.3a4.627,4.627,0,0,1-1.986-.982A2.248,2.248,0,0,1,48.3-7.318a2.616,2.616,0,0,1,.49-1.576,3.219,3.219,0,0,1,1.335-1.051,4.669,4.669,0,0,1,1.914-.375,4.517,4.517,0,0,1,1.9.375,3.125,3.125,0,0,1,1.285,1.039,2.664,2.664,0,0,1,.482,1.524Zm5.4-2.8V0H57.491V-10.182Zm7.537,2.8A1.36,1.36,0,0,0,66.289-8.4a2.266,2.266,0,0,0-1.335-.363,2.54,2.54,0,0,0-.989.174,1.465,1.465,0,0,0-.631.472,1.148,1.148,0,0,0-.224.681,1.016,1.016,0,0,0,.147.552,1.267,1.267,0,0,0,.4.4,2.756,2.756,0,0,0,.562.271,6.042,6.042,0,0,0,.621.184l.955.239a6.651,6.651,0,0,1,1.111.363,3.97,3.97,0,0,1,.96.577,2.573,2.573,0,0,1,.674.84,2.528,2.528,0,0,1,.249,1.153,2.748,2.748,0,0,1-.457,1.574A3,3,0,0,1,67.01-.226a5.153,5.153,0,0,1-2.086.38,5.28,5.28,0,0,1-2.061-.368A3.055,3.055,0,0,1,61.5-1.288a3.17,3.17,0,0,1-.529-1.72h1.815a1.543,1.543,0,0,0,.328.885,1.735,1.735,0,0,0,.753.527,2.953,2.953,0,0,0,1.042.174A2.838,2.838,0,0,0,65.966-1.6a1.682,1.682,0,0,0,.713-.507,1.214,1.214,0,0,0,.263-.763.983.983,0,0,0-.234-.659,1.754,1.754,0,0,0-.639-.437,6.478,6.478,0,0,0-.957-.316l-1.158-.3a4.627,4.627,0,0,1-1.986-.982,2.248,2.248,0,0,1-.728-1.752,2.616,2.616,0,0,1,.49-1.576,3.219,3.219,0,0,1,1.335-1.051,4.669,4.669,0,0,1,1.914-.375,4.517,4.517,0,0,1,1.9.375,3.125,3.125,0,0,1,1.285,1.039,2.664,2.664,0,0,1,.482,1.524Z" transform="translate(761 2971)"/>
        <g id="research" transform="translate(762 2878.6)">
          <g id="Group_531" data-name="Group 531" transform="translate(46.67 40.203)">
            <path id="Path_362" data-name="Path 362" class="cls-16" d="M379.627,312.856a5.821,5.821,0,0,1-8.223,0l-9.635-9.635a1.939,1.939,0,0,1,.39-3.042,13.523,13.523,0,0,0,4.791-4.791,1.938,1.938,0,0,1,3.042-.39l9.635,9.635A5.82,5.82,0,0,1,379.627,312.856Z" transform="translate(-361.202 -294.431)"/>
          </g>
          <path id="Path_363" data-name="Path 363" class="cls-19" d="M404.277,312.856,389.51,298.089a13.438,13.438,0,0,0,2.091-2.7,1.938,1.938,0,0,1,3.042-.39l9.635,9.635A5.82,5.82,0,0,1,404.277,312.856Z" transform="translate(-339.183 -254.228)"/>
          <g id="Group_533" data-name="Group 533" transform="translate(0 2.481)">
            <g id="Group_532" data-name="Group 532">
              <path id="Path_364" data-name="Path 364" class="cls-22" d="M27.337,9.328,23.5,2.481H13.693l-5.978,7.3L0,16.174V66.7a1.939,1.939,0,0,0,1.938,1.938H23.5l3.834-7.712Z" transform="translate(0 -2.481)"/>
            </g>
          </g>
          <path id="Path_365" data-name="Path 365" class="cls-18" d="M205.4,4.419V66.7a1.939,1.939,0,0,1-1.938,1.938H181.9V2.481h21.563A1.939,1.939,0,0,1,205.4,4.419Z" transform="translate(-158.397 0)"/>
          <g id="Group_534" data-name="Group 534" transform="translate(24.722 18.248)">
            <path id="Path_366" data-name="Path 366" class="cls-23" d="M221.33,148.771a16.118,16.118,0,0,1-13.779,7.955h-.1a16.108,16.108,0,1,1-.01-32.217h.114a16.106,16.106,0,0,1,13.779,24.259Z" transform="translate(-191.34 -124.511)"/>
          </g>
          <g id="Group_535" data-name="Group 535" transform="translate(0 2.481)">
            <path id="Path_367" data-name="Path 367" class="cls-18" d="M13.693,2.481V14.236a1.939,1.939,0,0,1-1.938,1.938H0v-.646a1.942,1.942,0,0,1,.567-1.371L11.676,3.048a1.942,1.942,0,0,1,1.371-.567h.646Z" transform="translate(0 -2.481)"/>
          </g>
          <g id="Group_536" data-name="Group 536" transform="translate(5.768 33.62)">
            <path id="Path_368" data-name="Path 368" class="cls-17" d="M54.668,247.357H46.576a1.938,1.938,0,1,1,0-3.876h8.091a1.938,1.938,0,0,1,0,3.876Z" transform="translate(-44.638 -243.481)"/>
          </g>
          <g id="Group_537" data-name="Group 537" transform="translate(5.768 41.372)">
            <path id="Path_369" data-name="Path 369" class="cls-17" d="M54.668,307.357H46.576a1.938,1.938,0,0,1,0-3.876h8.091a1.938,1.938,0,0,1,0,3.876Z" transform="translate(-44.638 -303.481)"/>
          </g>
          <g id="Group_538" data-name="Group 538" transform="translate(5.768 49.125)">
            <path id="Path_370" data-name="Path 370" class="cls-17" d="M54.668,367.357H46.576a1.938,1.938,0,1,1,0-3.876h8.091a1.938,1.938,0,0,1,0,3.876Z" transform="translate(-44.638 -363.481)"/>
          </g>
          <g id="Group_539" data-name="Group 539" transform="translate(5.768 25.867)">
            <path id="Path_371" data-name="Path 371" class="cls-17" d="M54.668,187.357H46.576a1.938,1.938,0,0,1,0-3.876h8.091a1.938,1.938,0,0,1,0,3.876Z" transform="translate(-44.638 -183.481)"/>
          </g>
          <path id="Path_372" data-name="Path 372" class="cls-24" d="M330.589,148.78a16.118,16.118,0,0,1-13.779,7.955V124.521a16.106,16.106,0,0,1,13.779,24.259Z" transform="translate(-275.876 -106.272)"/>
          <g id="Group_541" data-name="Group 541" transform="translate(30.16 31.152)">
            <g id="Group_540" data-name="Group 540">
              <path id="Path_373" data-name="Path 373" class="cls-16" d="M245.572,230.087l-1.375-2.9-2.234-2.234a1.936,1.936,0,0,0-2.74,0l-5.233,5.232a1.938,1.938,0,1,0,2.742,2.74l3.861-3.861,3.6,3.6,1.375-1.321Z" transform="translate(-233.422 -224.383)"/>
            </g>
          </g>
          <path id="Path_374" data-name="Path 374" class="cls-19" d="M327.017,210.554l-7.329,7.329a1.939,1.939,0,0,1-2.74,0l-.138-.138v-5.482l1.509,1.509,5.958-5.958a1.938,1.938,0,1,1,2.74,2.74Z" transform="translate(-275.876 -178.308)"/>
          <g id="Group_542" data-name="Group 542" transform="translate(23.508 17.026)">
            <path id="Path_375" data-name="Path 375" class="cls-25" d="M199.364,145.826a13.447,13.447,0,1,1,0-26.893l2.2-2.006-2.2-1.87a17.323,17.323,0,1,0,0,34.644l2.405-2.054Z" transform="translate(-181.938 -115.049)"/>
          </g>
          <path id="Path_376" data-name="Path 376" class="cls-25" d="M331.637,141.2a17.324,17.324,0,0,1-14.827,8.555V145.88a13.447,13.447,0,0,0,0-26.893v-3.876a17.322,17.322,0,0,1,14.827,26.09Z" transform="translate(-275.876 -98.077)"/>
        </g>
      </g>
      <g id="Group_529" data-name="Group 529" transform="translate(4)">
        <path id="Path_500" data-name="Path 500" class="cls-20" d="M10.1-5.091a6,6,0,0,1-.614,2.816A4.384,4.384,0,0,1,7.818-.482,4.632,4.632,0,0,1,5.424.139,4.618,4.618,0,0,1,3.03-.485,4.4,4.4,0,0,1,1.36-2.279,5.983,5.983,0,0,1,.746-5.091,6,6,0,0,1,1.36-7.907,4.384,4.384,0,0,1,3.03-9.7a4.632,4.632,0,0,1,2.394-.621A4.632,4.632,0,0,1,7.818-9.7a4.384,4.384,0,0,1,1.67,1.792A6,6,0,0,1,10.1-5.091Zm-1.854,0a4.741,4.741,0,0,0-.36-1.956,2.722,2.722,0,0,0-1-1.208,2.647,2.647,0,0,0-1.467-.41,2.647,2.647,0,0,0-1.467.41,2.722,2.722,0,0,0-1,1.208A4.741,4.741,0,0,0,2.6-5.091a4.741,4.741,0,0,0,.36,1.956,2.722,2.722,0,0,0,1,1.208,2.647,2.647,0,0,0,1.467.41,2.647,2.647,0,0,0,1.467-.41,2.722,2.722,0,0,0,1-1.208A4.741,4.741,0,0,0,8.248-5.091ZM11.852,0V-10.182H15.67a4.056,4.056,0,0,1,1.971.437,2.939,2.939,0,0,1,1.208,1.2,3.6,3.6,0,0,1,.41,1.733,3.591,3.591,0,0,1-.413,1.74,2.933,2.933,0,0,1-1.218,1.2,4.131,4.131,0,0,1-1.984.435H13.115V-4.957H15.4A2.334,2.334,0,0,0,16.521-5.2a1.521,1.521,0,0,0,.649-.656,2.1,2.1,0,0,0,.211-.96,2.066,2.066,0,0,0-.211-.955,1.483,1.483,0,0,0-.651-.644,2.425,2.425,0,0,0-1.131-.231H13.7V0Zm9.009,0V-10.182h3.818a4.056,4.056,0,0,1,1.971.437,2.939,2.939,0,0,1,1.208,1.2,3.6,3.6,0,0,1,.41,1.733,3.591,3.591,0,0,1-.413,1.74,2.933,2.933,0,0,1-1.218,1.2,4.131,4.131,0,0,1-1.984.435H22.124V-4.957h2.282A2.334,2.334,0,0,0,25.529-5.2a1.521,1.521,0,0,0,.649-.656,2.1,2.1,0,0,0,.211-.96,2.066,2.066,0,0,0-.211-.955,1.483,1.483,0,0,0-.651-.644A2.425,2.425,0,0,0,24.4-8.641h-1.69V0ZM38.967-5.091a6,6,0,0,1-.614,2.816,4.384,4.384,0,0,1-1.67,1.792,4.632,4.632,0,0,1-2.394.621A4.618,4.618,0,0,1,31.9-.485a4.4,4.4,0,0,1-1.67-1.795,5.983,5.983,0,0,1-.614-2.811,6,6,0,0,1,.614-2.816A4.384,4.384,0,0,1,31.9-9.7a4.632,4.632,0,0,1,2.394-.621,4.632,4.632,0,0,1,2.394.621,4.384,4.384,0,0,1,1.67,1.792A6,6,0,0,1,38.967-5.091Zm-1.854,0a4.741,4.741,0,0,0-.36-1.956,2.722,2.722,0,0,0-1-1.208,2.647,2.647,0,0,0-1.467-.41,2.647,2.647,0,0,0-1.467.41,2.722,2.722,0,0,0-1,1.208,4.741,4.741,0,0,0-.36,1.956,4.741,4.741,0,0,0,.36,1.956,2.722,2.722,0,0,0,1,1.208,2.647,2.647,0,0,0,1.467.41,2.647,2.647,0,0,0,1.467-.41,2.722,2.722,0,0,0,1-1.208A4.741,4.741,0,0,0,37.113-5.091ZM40.717,0V-10.182h3.818a4.3,4.3,0,0,1,1.971.408,2.807,2.807,0,0,1,1.208,1.141,3.441,3.441,0,0,1,.41,1.708,3.335,3.335,0,0,1-.415,1.7,2.752,2.752,0,0,1-1.221,1.109,4.514,4.514,0,0,1-1.979.39H41.791V-5.26h2.471a2.823,2.823,0,0,0,1.124-.191,1.334,1.334,0,0,0,.649-.562,1.816,1.816,0,0,0,.211-.912,1.884,1.884,0,0,0-.214-.927,1.376,1.376,0,0,0-.651-.587,2.714,2.714,0,0,0-1.129-.2h-1.69V0Zm5.26-4.614L48.5,0H46.44L43.964-4.614Zm3.4-4.022v-1.546H57.5v1.546H54.354V0h-1.83V-8.636Zm16.1-1.546h1.844V-3.53a3.577,3.577,0,0,1-.515,1.924,3.494,3.494,0,0,1-1.444,1.3,4.8,4.8,0,0,1-2.173.465,4.812,4.812,0,0,1-2.178-.465,3.477,3.477,0,0,1-1.442-1.3,3.59,3.59,0,0,1-.512-1.924v-6.652h1.844v6.5a2.264,2.264,0,0,0,.281,1.134,1.991,1.991,0,0,0,.793.778,2.485,2.485,0,0,0,1.213.281,2.5,2.5,0,0,0,1.216-.281A1.97,1.97,0,0,0,65.2-2.55a2.28,2.28,0,0,0,.278-1.134Zm12.22,0V0H76.06l-4.8-6.935h-.085V0H69.334V-10.182h1.651l4.793,6.94h.089v-6.94Zm3.848,0V0H79.7V-10.182Zm1.556,1.546v-1.546h8.124v1.546H88.082V0h-1.83V-8.636Zm11.529-1.546V0H92.79V-10.182ZM96.638,0V-10.182h6.622v1.546H98.482v2.764h4.435v1.546H98.482v2.779H103.3V0Zm14.04-7.383a1.36,1.36,0,0,0-.584-1.014,2.266,2.266,0,0,0-1.335-.363,2.54,2.54,0,0,0-.989.174,1.465,1.465,0,0,0-.631.472,1.148,1.148,0,0,0-.224.681,1.016,1.016,0,0,0,.147.552,1.267,1.267,0,0,0,.4.4,2.756,2.756,0,0,0,.562.271,6.042,6.042,0,0,0,.621.184l.955.239a6.651,6.651,0,0,1,1.111.363,3.97,3.97,0,0,1,.96.577,2.573,2.573,0,0,1,.674.84,2.528,2.528,0,0,1,.249,1.153,2.748,2.748,0,0,1-.457,1.574,3,3,0,0,1-1.32,1.059,5.153,5.153,0,0,1-2.086.38,5.28,5.28,0,0,1-2.061-.368,3.055,3.055,0,0,1-1.362-1.074,3.17,3.17,0,0,1-.529-1.72h1.815a1.542,1.542,0,0,0,.328.885,1.735,1.735,0,0,0,.753.527,2.953,2.953,0,0,0,1.042.174A2.838,2.838,0,0,0,109.77-1.6a1.682,1.682,0,0,0,.713-.507,1.214,1.214,0,0,0,.263-.763.983.983,0,0,0-.234-.659,1.754,1.754,0,0,0-.639-.437,6.478,6.478,0,0,0-.957-.316l-1.158-.3a4.627,4.627,0,0,1-1.986-.982,2.248,2.248,0,0,1-.728-1.752,2.616,2.616,0,0,1,.49-1.576,3.219,3.219,0,0,1,1.335-1.051,4.669,4.669,0,0,1,1.914-.375,4.517,4.517,0,0,1,1.9.375,3.125,3.125,0,0,1,1.285,1.039,2.664,2.664,0,0,1,.482,1.524Z" transform="translate(919 2971)"/>
        <g id="opportunities" transform="translate(941.999 2877.863)">
          <g id="Group_527" data-name="Group 527" transform="translate(0.001 0)">
            <path id="Path_355" data-name="Path 355" class="cls-16" d="M207.851,6.068,202.27.754a2.731,2.731,0,0,0-3.767,0l-5.581,5.314a2.731,2.731,0,1,0,3.767,3.954l.966-.92V63.842a2.731,2.731,0,0,0,5.462,0V9.1l.966.92a2.731,2.731,0,1,0,3.767-3.954Z" transform="translate(-167.1 0)"/>
            <g id="Group_526" data-name="Group 526" transform="translate(0 23.652)">
              <path id="Path_356" data-name="Path 356" class="cls-19" d="M306.53,188.334l-5.316-5.579a2.731,2.731,0,0,0-3.955,3.766l.963,1.011a22.551,22.551,0,0,0-21.535,22.536V222.1a2.731,2.731,0,0,0,5.462,0v-12.03a17.089,17.089,0,0,1,15.974-17.062l-.864.907a2.731,2.731,0,0,0,3.955,3.766l5.316-5.579A2.729,2.729,0,0,0,306.53,188.334Z" transform="translate(-240.711 -181.908)"/>
              <g id="Group_524" data-name="Group 524" transform="translate(35.976 11.098)">
                <path id="Path_357" data-name="Path 357" class="cls-16" d="M298.124,267.26c-6.168,0-11.9.273-16.594,4.967a16.992,16.992,0,0,0-4.353,7.38,22.8,22.8,0,0,0-.49,4.715v11.963a2.774,2.774,0,0,0,2.632,2.795,2.731,2.731,0,0,0,2.831-2.728v-12.03a17.132,17.132,0,0,1,8.822-14.973A24.073,24.073,0,0,1,298.124,267.26Z" transform="translate(-276.687 -267.26)"/>
              </g>
              <path id="Path_358" data-name="Path 358" class="cls-19" d="M23.967,194.112a22.407,22.407,0,0,0-14.906-6.58l.964-1.012a2.731,2.731,0,0,0-3.955-3.766L.754,188.334a2.729,2.729,0,0,0,0,3.766l5.316,5.579a2.731,2.731,0,0,0,3.955-3.766l-.863-.906a17.089,17.089,0,0,1,15.95,17.061V222.1a2.731,2.731,0,0,0,5.462,0v-12.03a22.41,22.41,0,0,0-6.606-15.956Z" transform="translate(-0.001 -181.908)"/>
              <g id="Group_525" data-name="Group 525" transform="translate(9.137 11.098)">
                <path id="Path_359" data-name="Path 359" class="cls-16" d="M70.269,267.26c6.168,0,11.9.273,16.594,4.967a16.992,16.992,0,0,1,4.353,7.38,22.8,22.8,0,0,1,.49,4.715v11.963a2.774,2.774,0,0,1-2.632,2.795,2.731,2.731,0,0,1-2.83-2.728v-12.03a17.132,17.132,0,0,0-8.822-14.973,24.073,24.073,0,0,0-7.153-2.089Z" transform="translate(-70.269 -267.26)"/>
              </g>
            </g>
          </g>
          <g id="Group_528" data-name="Group 528" transform="translate(7.943 8.692)">
            <path id="Path_360" data-name="Path 360" class="cls-26" d="M318.317,86.456a1,1,0,1,1,.22.025A.954.954,0,0,1,318.317,86.456Zm2.983-7.441a1,1,0,1,1,.542.161A1,1,0,0,1,321.3,79.016Zm5.041-6.233a1,1,0,1,1,.762.351A1.005,1.005,0,0,1,326.341,72.783Zm6.613-4.521a1,1,0,1,1,.916.593A1,1,0,0,1,332.954,68.262Z" transform="translate(-284.187 -66.846)"/>
            <path id="Path_361" data-name="Path 361" class="cls-26" d="M76.444,85.7a1,1,0,1,1,1.2.762,1.019,1.019,0,0,1-.22.024A1.006,1.006,0,0,1,76.444,85.7Zm-3.172-6.98a1,1,0,1,1,.845.461A1,1,0,0,1,73.272,78.716ZM68.2,72.892a1.006,1.006,0,1,1,.654.241,1,1,0,0,1-.654-.241Zm-6.525-4.124a1,1,0,1,1,.411.088A1,1,0,0,1,61.679,68.768Z" transform="translate(-61.086 -66.847)"/>
          </g>
        </g>
      </g>
    </g>
  </g>
</svg>
