<svg xmlns="http://www.w3.org/2000/svg" width="113.596" height="147.674" viewBox="0 0 113.596 147.674">
    <defs>
        <style>
            .cls-7{fill:#8ec8fc}
        </style>
    </defs>
    <g id="Group_1000" transform="translate(-612 -293.425)">
        <g id="Group_1001">
            <g id="Group_234" transform="translate(-10.09 -19)">
                <g id="Group_194" transform="translate(622.09 312.425)">
                    <g id="clipboards" transform="translate(0 0)">
                        <path id="Path_64" fill="#b9ddfd" d="M150.236 188.955H59.36A11.36 11.36 0 0 1 48 177.6V75.36A11.36 11.36 0 0 1 59.36 64h90.877A11.36 11.36 0 0 1 161.6 75.36V177.6a11.36 11.36 0 0 1-11.364 11.355z" transform="translate(-48 -41.281)"/>
                        <path id="Path_65" fill="#f4f5f5" d="M170.877 96H80v77.949a3.786 3.786 0 0 0 1.109 2.677l20.5 20.5a3.787 3.787 0 0 0 2.677 1.109h66.589V96z" transform="translate(-68.64 -61.921)"/>
                        <path id="Path_66" fill="#5dabed" d="M167.838 17.7a7.817 7.817 0 0 1-5.38-5.38 17.045 17.045 0 0 0-32.755 0 7.83 7.83 0 0 1-5.389 5.383A17.047 17.047 0 0 0 112 33.943v11.5h68.157V34.078A17.048 17.048 0 0 0 167.838 17.7zm-21.685 5.018a5.68 5.68 0 1 1 5.68-5.68 5.68 5.68 0 0 1-5.68 5.681z" transform="translate(-89.282)"/>
                        <path id="Path_67" fill="#499ade" d="M112 96v11.36h68.157V96z" transform="translate(-89.282 -61.921)"/>
                        <path id="Path_68" fill="#cdcccc" d="M138.792 327.3a7.614 7.614 0 0 1 1.849 4.981v14.794a3.769 3.769 0 0 0 1.568.352h16.712z" transform="translate(-106.562 -211.112)"/>
                        <path id="Path_69" fill="#e6e6e5" d="M103.358 327.571A7.573 7.573 0 0 0 95.785 320H80.991a3.775 3.775 0 0 0 .757 1.109l20.5 20.5a3.778 3.778 0 0 0 1.109.757v-14.795z" transform="translate(-69.28 -206.403)"/>
                    </g>
                </g>
            </g>
            <g id="Group_516" transform="translate(644.873 353.451)">
                <path id="Path_334" d="M194.884 160h29.188a2.884 2.884 0 1 1 0 5.768h-29.188a2.884 2.884 0 1 1 0-5.768zm0 0" class="cls-7" transform="translate(-170.077 -153.77)"/>
                <path id="Path_335" d="M194.884 304h29.188a2.884 2.884 0 1 1 0 5.768h-29.188a2.884 2.884 0 1 1 0-5.768zm0 0" class="cls-7" transform="translate(-170.077 -263.761)"/>
                <g id="Rectangle_68" fill="none" stroke="#8ec8fc" stroke-width="2px" transform="translate(-1.03 0.549)">
                    <rect width="16.955" height="16.955" stroke="none" rx="3"/>
                    <rect width="14.955" height="14.955" x="1" y="1" rx="2"/>
                </g>
            </g>
            <path id="Icon_material-check-box" d="M20.27 4.5H6.471A1.971 1.971 0 0 0 4.5 6.471v13.8a1.971 1.971 0 0 0 1.971 1.971h13.8a1.971 1.971 0 0 0 1.971-1.971v-13.8A1.971 1.971 0 0 0 20.27 4.5zM11.4 18.3l-4.929-4.929 1.39-1.39L11.4 15.51l7.481-7.481 1.39 1.4z" class="cls-7" transform="translate(639.414 382.987)"/>
        </g>
    </g>
</svg>
