<svg xmlns="http://www.w3.org/2000/svg" width="126.69" height="26.552" viewBox="0 0 126.69 26.552">
    <g>
        <g>
            <path fill="#009f9b" d="M0 0H5V25H0z" transform="translate(-90.81 186.1) translate(193.722 -184.683) translate(9.278 -.317)"/>
            <path fill="#006fc6" d="M0 0H5V24H0z" transform="translate(-90.81 186.1) translate(193.722 -184.683) rotate(-90 7.23 7.452)"/>
            <path fill="#61438c" d="M0 5V0h5v5z" transform="translate(-90.81 186.1) translate(193.722 -184.683) translate(9.278 9.683)"/>
        </g>
        <path fill="#292929" d="M6.758-31.548a.91.91 0 0 1-.664-.284.91.91 0 0 1-.284-.668v-24.652a.892.892 0 0 1 .284-.683.942.942 0 0 1 .664-.266h4.021a1.292 1.292 0 0 1 1.29.721l9.255 14.565v-14.337a.892.892 0 0 1 .284-.683.942.942 0 0 1 .664-.266h4.552a.924.924 0 0 1 .683.266.924.924 0 0 1 .266.683v24.617a.99.99 0 0 1-.266.7.892.892 0 0 1-.683.284h-4.059a1.357 1.357 0 0 1-1.252-.721L12.258-46.3v13.8a.942.942 0 0 1-.266.664.892.892 0 0 1-.683.284zm27.272 0a.91.91 0 0 1-.664-.284.91.91 0 0 1-.284-.664v-24.656a.892.892 0 0 1 .284-.683.942.942 0 0 1 .664-.266h17.714a.924.924 0 0 1 .683.266.924.924 0 0 1 .266.683v3.566a.942.942 0 0 1-.266.664.892.892 0 0 1-.683.284h-12.1v5.121H50.91a.892.892 0 0 1 .683.284.99.99 0 0 1 .266.7v3.3a.942.942 0 0 1-.266.664.892.892 0 0 1-.683.284H39.644v5.272h12.4a.924.924 0 0 1 .683.266.924.924 0 0 1 .266.683v3.564a.942.942 0 0 1-.266.664.892.892 0 0 1-.683.284zm21.772 0a.762.762 0 0 1-.55-.247.762.762 0 0 1-.247-.55 1.151 1.151 0 0 1 .038-.341l8.914-24.352a1.379 1.379 0 0 1 .493-.759 1.531 1.531 0 0 1 .986-.3h5.614a1.53 1.53 0 0 1 .986.3 1.379 1.379 0 0 1 .493.759l8.876 24.352.076.341a.762.762 0 0 1-.247.55.8.8 0 0 1-.588.247h-4.664a1.179 1.179 0 0 1-1.214-.8l-1.479-3.869H63.162l-1.442 3.872a1.207 1.207 0 0 1-1.252.8zm15.97-10.128L68.244-51.69l-3.527 10.014zm16.8 10.128a.91.91 0 0 1-.664-.284.91.91 0 0 1-.284-.664v-19.649h-6.749a.91.91 0 0 1-.664-.284.91.91 0 0 1-.284-.664v-4.059a.892.892 0 0 1 .284-.683.942.942 0 0 1 .664-.266h20.407a.924.924 0 0 1 .683.266.924.924 0 0 1 .266.683v4.059a.924.924 0 0 1-.266.683.924.924 0 0 1-.683.266h-6.751V-32.5a.942.942 0 0 1-.266.664.892.892 0 0 1-.683.284z" transform="translate(-90.81 186.1) translate(85 -128)"/>
    </g>
</svg>
