<svg width="301" height="293" viewBox="0 0 301 293" fill="none" xmlns="http://www.w3.org/2000/svg">
<g clip-path="url(#clip0_879_3329)">
<path d="M190.952 65.8411H110.115C108.273 65.8433 106.507 66.5759 105.205 67.8781C103.902 69.1804 103.169 70.946 103.167 72.7876V252.402L102.241 252.684L82.4099 258.756C81.4701 259.042 80.455 258.944 79.5874 258.483C78.7198 258.022 78.0707 257.236 77.7825 256.297L18.7955 63.6691C18.5084 62.7295 18.6063 61.7144 19.0675 60.8469C19.5287 59.9794 20.3156 59.3305 21.2552 59.0427L51.8141 49.6881L140.406 22.578L170.964 13.2233C171.429 13.0803 171.918 13.0303 172.402 13.0762C172.887 13.1222 173.357 13.2632 173.787 13.4911C174.217 13.7191 174.598 14.0296 174.907 14.4048C175.217 14.78 175.45 15.2126 175.592 15.6778L190.67 64.9149L190.952 65.8411Z" fill="#F2F2F2"/>
<path d="M208.592 64.9149L190.42 5.57291C190.117 4.58417 189.623 3.66467 188.965 2.86696C188.307 2.06926 187.498 1.40898 186.585 0.92386C185.672 0.438741 184.672 0.138282 183.642 0.0396645C182.613 -0.0589526 181.574 0.0462043 180.585 0.349116L137.621 13.4966L49.0349 40.6113L6.07092 53.7634C4.07504 54.3761 2.40387 55.7555 1.42421 57.5987C0.444562 59.442 0.23647 61.5986 0.845623 63.5951L62.9546 266.402C63.4494 268.013 64.4479 269.424 65.8035 270.427C67.1591 271.429 68.8005 271.971 70.4867 271.973C71.2672 271.973 72.0432 271.856 72.7888 271.625L102.241 262.613L103.167 262.326V261.358L102.241 261.641L72.5156 270.741C70.7539 271.278 68.851 271.094 67.2245 270.23C65.598 269.367 64.3807 267.893 63.8394 266.133L1.7352 63.3218C1.46704 62.4498 1.37357 61.5334 1.46016 60.6252C1.54675 59.7169 1.81168 58.8347 2.2398 58.029C2.66792 57.2233 3.25082 56.5099 3.9551 55.9297C4.65939 55.3496 5.47122 54.914 6.34413 54.6479L49.3081 41.4958L137.895 14.3858L180.859 1.23365C181.521 1.03164 182.209 0.928646 182.902 0.928001C184.387 0.931336 185.833 1.41016 187.026 2.29435C188.22 3.17854 189.099 4.42162 189.535 5.84152L207.624 64.9149L207.911 65.8411H208.875L208.592 64.9149Z" fill="#3F3D56"/>
<path d="M57.3286 59.1941C56.4358 59.1935 55.5667 58.9068 54.8488 58.3762C54.1309 57.8456 53.602 57.0989 53.3397 56.2457L47.3732 36.7622C47.2128 36.2388 47.1572 35.689 47.2094 35.1441C47.2617 34.5993 47.4208 34.07 47.6776 33.5867C47.9345 33.1033 48.2841 32.6752 48.7064 32.3269C49.1288 31.9786 49.6156 31.7169 50.1392 31.5568L131.638 6.61232C132.695 6.28978 133.837 6.39978 134.814 6.91818C135.79 7.43658 136.521 8.32101 136.845 9.37737L142.812 28.8611C143.134 29.9181 143.024 31.0598 142.505 32.0357C141.987 33.0116 141.102 33.742 140.046 34.0668L58.5466 59.0112C58.152 59.1323 57.7415 59.194 57.3286 59.1941Z" fill="#499ADE"/>
<path d="M88.5835 20.8186C93.7001 20.8186 97.8479 16.6719 97.8479 11.5566C97.8479 6.44129 93.7001 2.29453 88.5835 2.29453C83.4669 2.29453 79.319 6.44129 79.319 11.5566C79.319 16.6719 83.4669 20.8186 88.5835 20.8186Z" fill="#5DABED"/>
<path d="M88.5835 17.4216C91.8235 17.4216 94.45 14.7957 94.45 11.5566C94.45 8.31742 91.8235 5.69156 88.5835 5.69156C85.3435 5.69156 82.7169 8.31742 82.7169 11.5566C82.7169 14.7957 85.3435 17.4216 88.5835 17.4216Z" fill="white"/>
<path d="M279.655 269.606H123.086C122.042 269.605 121.041 269.19 120.303 268.452C119.565 267.714 119.15 266.714 119.148 265.67V78.1133C119.149 77.0697 119.565 76.0691 120.303 75.3312C121.041 74.5932 122.042 74.1781 123.086 74.1769H279.655C280.699 74.1781 281.7 74.5933 282.438 75.3312C283.176 76.0692 283.591 77.0697 283.592 78.1133V265.67C283.591 266.714 283.176 267.714 282.438 268.452C281.7 269.19 280.699 269.605 279.655 269.606Z" fill="#F2F2F2"/>
<path d="M207.624 64.9149H110.115C108.028 64.9178 106.026 65.7482 104.55 67.224C103.074 68.6998 102.243 70.7005 102.241 72.7876V261.641L103.167 261.358V72.7876C103.169 70.946 103.902 69.1804 105.205 67.8781C106.507 66.5759 108.273 65.8433 110.115 65.8411H207.911L207.624 64.9149ZM292.625 64.9149H110.115C108.028 64.9178 106.026 65.7482 104.55 67.224C103.074 68.6998 102.243 70.7005 102.241 72.7876V284.889C102.243 286.976 103.074 288.976 104.55 290.452C106.026 291.928 108.028 292.758 110.115 292.761H292.625C294.713 292.758 296.714 291.928 298.19 290.452C299.666 288.976 300.497 286.976 300.5 284.889V72.7876C300.497 70.7005 299.666 68.6998 298.19 67.224C296.714 65.7482 294.713 64.9178 292.625 64.9149ZM299.574 284.889C299.571 286.73 298.839 288.496 297.536 289.798C296.233 291.1 294.467 291.833 292.625 291.835H110.115C108.273 291.833 106.507 291.1 105.205 289.798C103.902 288.496 103.169 286.73 103.167 284.889V72.7876C103.169 70.946 103.902 69.1804 105.205 67.8781C106.507 66.5759 108.273 65.8433 110.115 65.8411H292.625C294.467 65.8433 296.233 66.5759 297.536 67.8781C298.839 69.1804 299.571 70.946 299.574 72.7876V284.889Z" fill="#3F3D56"/>
<path d="M243.987 85.2914H158.754C157.649 85.2902 156.589 84.8506 155.807 84.0693C155.026 83.2879 154.586 82.2285 154.585 81.1235V60.747C154.586 59.6419 155.026 58.5825 155.807 57.8012C156.589 57.0198 157.649 56.5803 158.754 56.579H243.987C245.092 56.5803 246.152 57.0198 246.933 57.8012C247.715 58.5825 248.155 59.6419 248.156 60.747V81.1235C248.155 82.2285 247.715 83.2879 246.934 84.0693C246.152 84.8506 245.092 85.2902 243.987 85.2914Z" fill="#499ADE"/>
<path d="M201.37 57.9683C206.487 57.9683 210.635 53.8216 210.635 48.7063C210.635 43.591 206.487 39.4442 201.37 39.4442C196.254 39.4442 192.106 43.591 192.106 48.7063C192.106 53.8216 196.254 57.9683 201.37 57.9683Z" fill="#5DABED"/>
<path d="M201.37 54.3477C204.487 54.3477 207.013 51.822 207.013 48.7063C207.013 45.5906 204.487 43.0648 201.37 43.0648C198.254 43.0648 195.727 45.5906 195.727 48.7063C195.727 51.822 198.254 54.3477 201.37 54.3477Z" fill="white"/>
<circle cx="201.005" cy="178.838" r="51" fill="#E7E7E7"/>
<path fill-rule="evenodd" clip-rule="evenodd" d="M202.327 154.963H186.888V217.47H243.354V159.497H206.107L202.327 154.963Z" fill="#499ADE"/>
<path d="M179.998 168.777H260.021V209.47C260.021 213.888 256.439 217.47 252.021 217.47H179.998V168.777Z" fill="#B9DDFD"/>
<path d="M174.125 154.963H186.888V211.089C186.888 214.613 184.031 217.47 180.507 217.47C176.982 217.47 174.125 214.613 174.125 211.089V154.963Z" fill="#499ADE"/>
<path fill-rule="evenodd" clip-rule="evenodd" d="M180.493 184.34C189.57 183.065 196.554 175.267 196.554 165.838C196.554 155.519 188.189 147.153 177.869 147.153C167.55 147.153 159.184 155.519 159.184 165.838C159.184 171.72 161.902 176.967 166.15 180.392L166.053 180.366C170.342 183.915 179.892 190.724 183.778 189.566C182.596 188.213 180.295 185.286 180.493 184.34Z" fill="white"/>
<rect x="186.876" y="168.777" width="9.6106" height="13.6133" fill="#B9DDFD"/>
<g clip-path="url(#clip1_879_3329)">
<path d="M179.632 165.838L185.007 160.476C185.242 160.24 185.374 159.921 185.374 159.588C185.374 159.255 185.242 158.936 185.007 158.701C184.771 158.465 184.452 158.333 184.119 158.333C183.786 158.333 183.467 158.465 183.232 158.701L177.869 164.076L172.507 158.701C172.271 158.465 171.952 158.333 171.619 158.333C171.286 158.333 170.967 158.465 170.732 158.701C170.496 158.936 170.364 159.255 170.364 159.588C170.364 159.921 170.496 160.24 170.732 160.476L176.107 165.838L170.732 171.201C170.614 171.317 170.521 171.455 170.458 171.607C170.394 171.76 170.362 171.923 170.362 172.088C170.362 172.253 170.394 172.417 170.458 172.569C170.521 172.721 170.614 172.859 170.732 172.976C170.848 173.093 170.986 173.186 171.138 173.249C171.291 173.313 171.454 173.345 171.619 173.345C171.784 173.345 171.947 173.313 172.1 173.249C172.252 173.186 172.39 173.093 172.507 172.976L177.869 167.601L183.232 172.976C183.348 173.093 183.486 173.186 183.638 173.249C183.791 173.313 183.954 173.345 184.119 173.345C184.284 173.345 184.447 173.313 184.6 173.249C184.752 173.186 184.89 173.093 185.007 172.976C185.124 172.859 185.217 172.721 185.28 172.569C185.344 172.417 185.376 172.253 185.376 172.088C185.376 171.923 185.344 171.76 185.28 171.607C185.217 171.455 185.124 171.317 185.007 171.201L179.632 165.838Z" fill="#FE625E"/>
</g>
<line x1="207.792" y1="185.358" x2="216.746" y2="182.05" stroke="#F4FAFF" stroke-width="2" stroke-linecap="round"/>
<line x1="232.686" y1="181.815" x2="241.598" y2="185.236" stroke="#F4FAFF" stroke-width="2" stroke-linecap="round"/>
<circle cx="213.421" cy="192.277" r="3.5" fill="#F4FAFF"/>
<circle cx="235.882" cy="192.277" r="3.5" fill="#F4FAFF"/>
<line x1="222.526" y1="204.819" x2="226.817" y2="204.819" stroke="#F4FAFF" stroke-width="2" stroke-linecap="round"/>
</g>
<defs>
<clipPath id="clip0_879_3329">
<rect width="300" height="292.761" fill="white" transform="translate(0.5)"/>
</clipPath>
<clipPath id="clip1_879_3329">
<rect width="30" height="30" fill="white" transform="translate(162.869 150.838)"/>
</clipPath>
</defs>
</svg>
