<svg xmlns="http://www.w3.org/2000/svg" width="144.787" height="141.974" viewBox="0 0 144.787 141.974">
    <defs>
        <style>
            .cls-1{fill:#5dabed}.cls-2{fill:#b9ddfd}.cls-4{fill:#499ade}
        </style>
    </defs>
    <g id="Group_194" transform="translate(-899 -199.538)">
        <path id="Path_62" d="M360.385 76.865l2.328-2.328a4.3 4.3 0 0 0-6.087-6.087l-2.326 2.329-2.33-2.329a4.3 4.3 0 0 0-6.087 6.087l2.328 2.328-2.328 2.328a4.3 4.3 0 1 0 6.086 6.087l2.328-2.328 2.328 2.328a4.3 4.3 0 1 0 6.086-6.087z" class="cls-1" transform="translate(632.285 147.237)"/>
        <path id="Path_63" d="M30.128 258.343a2.188 2.188 0 0 0-3.094 0l-2.061 2.057-2.061-2.061a2.188 2.188 0 1 0-3.094 3.094l2.061 2.061-2.061 2.061a2.188 2.188 0 1 0 3.094 3.094l2.061-2.061 2.061 2.061a2.188 2.188 0 0 0 3.094-3.094l-2.062-2.055 2.061-2.061a2.188 2.188 0 0 0 .001-3.096z" class="cls-2" transform="translate(929.663 -58.164)"/>
        <g id="clipboards" transform="translate(899 222.963)">
            <path id="Path_64" d="M130.072 164.31H57.119A9.119 9.119 0 0 1 48 155.191V73.119A9.119 9.119 0 0 1 57.119 64h72.953a9.119 9.119 0 0 1 9.119 9.119v82.072a9.119 9.119 0 0 1-9.119 9.119z" class="cls-2" transform="translate(-48 -45.762)"/>
            <path id="Path_65" fill="#f4f5f5" d="M152.953 96H80v62.575a3.04 3.04 0 0 0 .89 2.149l16.458 16.458a3.04 3.04 0 0 0 2.149.89h53.456V96z" transform="translate(-70.881 -68.643)"/>
            <path id="Path_66" d="M156.825 14.21a6.275 6.275 0 0 1-4.319-4.319 13.683 13.683 0 0 0-26.295 0 6.286 6.286 0 0 1-4.326 4.322A13.685 13.685 0 0 0 112 27.248v9.228h54.714v-9.119a13.685 13.685 0 0 0-9.889-13.147zm-17.408 4.028a4.56 4.56 0 1 1 4.56-4.56 4.56 4.56 0 0 1-4.56 4.56z" class="cls-1" transform="translate(-93.763)"/>
            <path id="Path_67" d="M112 96v9.119h54.714V96z" class="cls-4" transform="translate(-93.763 -68.643)"/>
            <path id="Path_68" fill="#cdcccc" d="M138.792 327.3a6.112 6.112 0 0 1 1.484 4v11.876a3.026 3.026 0 0 0 1.259.282h13.416z" transform="translate(-112.919 -234.028)"/>
            <path id="Path_69" fill="#e6e6e5" d="M98.947 326.078a6.08 6.08 0 0 0-6.08-6.08H80.991a3.03 3.03 0 0 0 .608.89l16.458 16.458a3.033 3.033 0 0 0 .89.608v-11.876z" transform="translate(-71.589 -228.807)"/>
        </g>
        <g id="Group_193" transform="rotate(-2 7580.412 -27566.88)">
            <g id="Layer_2" transform="translate(48.702 19.143)">
                <g id="chevron-left">
                    <path id="Path_47" d="M.368 3.246a.324.324 0 0 0 .234-.1l1.253-1.3a.324.324 0 0 0 0-.454L.556.1A.326.326 0 0 0 .1.556l1.066 1.068L.134 2.695a.323.323 0 0 0 .234.552z"/>
                </g>
            </g>
            <path id="Path_57" d="M0 35.918a35.918 35.918 0 1 1 35.918 35.918H6.455a2.674 2.674 0 0 1-1.891-4.564l5.956-5.956A35.8 35.8 0 0 1 0 35.918z" class="cls-1" transform="translate(0 .001)"/>
            <path id="Path_58" d="M4.566 67.274a2.672 2.672 0 0 0 1.888 4.563h12.115a2.672 2.672 0 0 1-1.889-4.563l3.693-3.7a3.342 3.342 0 0 0 .186-4.52A35.923 35.923 0 0 1 41.972.512a35.92 35.92 0 0 0-31.452 60.8z" class="cls-4"/>
            <path id="Path_59" fill="#f8f3f1" d="M8.151 15.241L1.47 8.56a5.014 5.014 0 0 1 7.091-7.091l6.681 6.681 6.681-6.682a5.014 5.014 0 0 1 7.091 7.092l-6.681 6.681 6.681 6.681a5.014 5.014 0 0 1-7.091 7.091l-6.681-6.681-6.682 6.681a5.014 5.014 0 0 1-7.091-7.091z" transform="translate(24.79 20.821)"/>
        </g>
    </g>
</svg>
