<svg xmlns="http://www.w3.org/2000/svg" width="149.579" height="148.975" viewBox="0 0 149.579 148.975">
    <defs>
        <style>
            .cls-1{fill:#5dabed}.cls-2{fill:#b9ddfd}.cls-3{fill:#f4f5f5}.cls-4{fill:#499ade}
        </style>
    </defs>
    <g id="Group_234" transform="translate(-622.09 -289)">
        <g id="Group_194" transform="translate(-276.91 89.462)">
            <path id="Path_62" d="M360.385 76.865l2.328-2.328a4.3 4.3 0 0 0-6.087-6.087l-2.326 2.329-2.33-2.329a4.3 4.3 0 0 0-6.087 6.087l2.328 2.328-2.328 2.328a4.3 4.3 0 1 0 6.086 6.087l2.328-2.328 2.328 2.328a4.3 4.3 0 1 0 6.086-6.087z" class="cls-1" transform="translate(632.285 147.237)"/>
            <path id="Path_63" d="M30.128 258.343a2.188 2.188 0 0 0-3.094 0l-2.061 2.057-2.061-2.061a2.188 2.188 0 1 0-3.094 3.094l2.061 2.061-2.061 2.061a2.188 2.188 0 1 0 3.094 3.094l2.061-2.061 2.061 2.061a2.188 2.188 0 0 0 3.094-3.094l-2.062-2.055 2.061-2.061a2.188 2.188 0 0 0 .001-3.096z" class="cls-2" transform="translate(929.663 -58.164)"/>
            <g id="clipboards" transform="translate(899 222.963)">
                <path id="Path_64" d="M130.072 164.31H57.119A9.119 9.119 0 0 1 48 155.191V73.119A9.119 9.119 0 0 1 57.119 64h72.953a9.119 9.119 0 0 1 9.119 9.119v82.072a9.119 9.119 0 0 1-9.119 9.119z" class="cls-2" transform="translate(-48 -45.762)"/>
                <path id="Path_65" d="M152.953 96H80v62.575a3.04 3.04 0 0 0 .89 2.149l16.458 16.458a3.04 3.04 0 0 0 2.149.89h53.456V96z" class="cls-3" transform="translate(-70.881 -68.643)"/>
                <path id="Path_66" d="M156.825 14.21a6.275 6.275 0 0 1-4.319-4.319 13.683 13.683 0 0 0-26.295 0 6.286 6.286 0 0 1-4.326 4.322A13.685 13.685 0 0 0 112 27.248v9.228h54.714v-9.119a13.685 13.685 0 0 0-9.889-13.147zm-17.408 4.028a4.56 4.56 0 1 1 4.56-4.56 4.56 4.56 0 0 1-4.56 4.56z" class="cls-1" transform="translate(-93.763)"/>
                <path id="Path_67" d="M112 96v9.119h54.714V96z" class="cls-4" transform="translate(-93.763 -68.643)"/>
                <path id="Path_68" fill="#cdcccc" d="M138.792 327.3a6.112 6.112 0 0 1 1.484 4v11.876a3.026 3.026 0 0 0 1.259.282h13.416z" transform="translate(-112.919 -234.028)"/>
                <path id="Path_69" fill="#e6e6e5" d="M98.947 326.078a6.08 6.08 0 0 0-6.08-6.08H80.991a3.03 3.03 0 0 0 .608.89l16.458 16.458a3.033 3.033 0 0 0 .89.608v-11.876z" transform="translate(-71.589 -228.807)"/>
            </g>
            <g id="Group_193" transform="rotate(-2 7166.328 -28733.502)">
                <g id="Layer_2" transform="translate(25.245 9.923)">
                    <g id="chevron-left">
                        <path id="Path_47" d="M.191 1.683a.168.168 0 0 0 .121-.052L.961.958a.168.168 0 0 0 0-.235L.288.049a.169.169 0 1 0-.239.239L.6.842.07 1.4a.167.167 0 0 0 .121.286z"/>
                    </g>
                </g>
                <path id="Path_57" d="M0 18.618a18.618 18.618 0 1 1 18.618 18.619H3.346a1.386 1.386 0 0 1-.98-2.366l3.087-3.087A18.559 18.559 0 0 1 0 18.618z" class="cls-1"/>
                <path id="Path_58" d="M2.367 34.872a1.385 1.385 0 0 0 .979 2.365h6.28a1.385 1.385 0 0 1-.979-2.365l1.914-1.915a1.733 1.733 0 0 0 .1-2.343A18.621 18.621 0 0 1 21.756.265a18.619 18.619 0 0 0-16.3 31.519z" class="cls-4"/>
                <path id="Path_59" fill="#f8f3f1" d="M4.225 7.9L.762 4.437A2.6 2.6 0 0 1 4.437.761L7.9 4.225 11.364.761a2.6 2.6 0 0 1 3.676 3.676L11.576 7.9l3.463 3.463a2.6 2.6 0 0 1-3.676 3.676L7.9 11.576l-3.463 3.463a2.6 2.6 0 1 1-3.676-3.675z" transform="translate(12.85 10.793)"/>
            </g>
        </g>
        <g id="magnifying-glass" transform="rotate(-90 555.489 -117.512)">
            <g id="Group_226" transform="translate(22.28 46.855)">
                <path id="Path_71" fill="#dfe7f4" d="M151.291 296.742l-8.039 8.041a2.4 2.4 0 0 1-3.4-3.4l8.039-8.041a2.4 2.4 0 0 1 3.4 0 2.4 2.4 0 0 1 0 3.4z" transform="translate(-139.151 -292.642)"/>
            </g>
            <path id="Path_72" fill="#c7cfe1" d="M154.976 300.436l-8.039 8.041a2.4 2.4 0 0 1-3.4 0l11.437-11.437a2.4 2.4 0 0 1 .002 3.396z" transform="translate(-120.556 -249.481)"/>
            <g id="Group_228" transform="translate(24.68 2.402)">
                <g id="Group_227">
                    <path id="Path_73" d="M209.034 42.447a27.483 27.483 0 1 1-8.049-19.4 27.479 27.479 0 0 1 8.049 19.4z" class="cls-2" transform="translate(-154.139 -15)"/>
                </g>
            </g>
            <path id="Path_74" fill="#95c9f5" d="M251.2 84.677a27.449 27.449 0 0 1-46.856 19.41l38.812-38.807a27.353 27.353 0 0 1 8.049 19.4z" transform="translate(-171.63 -54.828)"/>
            <g id="Group_230" transform="translate(31.886 9.608)">
                <g id="Group_229">
                    <path id="Path_75" d="M199.149 80.253a2.4 2.4 0 1 0 4.8 0 15.457 15.457 0 0 1 15.439-15.439 2.4 2.4 0 1 0 0-4.8 20.265 20.265 0 0 0-20.243 20.243z" class="cls-3" transform="translate(-199.149 -60.01)"/>
                </g>
            </g>
            <g id="Group_232" transform="translate(22.278)">
                <g id="Group_231">
                    <path id="Path_76" d="M190.086 8.753a29.835 29.835 0 1 0 8.752 21.094 29.751 29.751 0 0 0-8.752-21.094zm-21.1 46.142a25.033 25.033 0 1 1 25.044-25.047 24.9 24.9 0 0 1-25.04 25.047z" class="cls-1" transform="translate(-139.139)"/>
                </g>
            </g>
            <path id="Path_77" d="M244.7 75.764a29.847 29.847 0 0 1-50.955 21.109l3.4-3.4a25.038 25.038 0 1 0 35.41-35.41l3.4-3.4a29.758 29.758 0 0 1 8.745 21.101z" class="cls-4" transform="translate(-162.727 -45.917)"/>
            <g id="Group_233" transform="translate(.001 51.497)">
                <path id="Path_78" d="M29.775 332.532l-18.882 18.883a2.4 2.4 0 0 1-3.4 0l-3.4-3.4-3.4-3.4a2.4 2.4 0 0 1 0-3.4l18.883-18.883a2.4 2.4 0 0 1 3.4 0l3.4 3.4 3.394 3.4a2.4 2.4 0 0 1 .005 3.4z" class="cls-1" transform="translate(-.001 -321.64)"/>
            </g>
            <path id="Path_79" d="M51.282 354.042L32.4 372.925a2.4 2.4 0 0 1-3.4 0l-3.4-3.4 22.288-22.275 3.394 3.4a2.4 2.4 0 0 1 0 3.392z" class="cls-4" transform="translate(-21.508 -291.652)"/>
        </g>
    </g>
</svg>
