<svg xmlns="http://www.w3.org/2000/svg" width="540.5" height="443" viewBox="0 0 540.5 443">
    <defs>
        <style>
            .cls-3{opacity:.459}.cls-4{opacity:.521}.cls-10,.cls-5{fill:#fff}.cls-5{opacity:.324}.cls-6{opacity:.939}.cls-7{opacity:.77}.cls-8{opacity:.41}.cls-9{opacity:.301}
        </style>
    </defs>
    <g id="Group_851" transform="translate(-683 -4853)">
        <g id="Group_844" transform="translate(0 507)">
            <g id="Group_843">
                <rect id="Rectangle_92" width="540.5" height="443" fill="#2e577b" rx="8" transform="translate(683 4346)"/>
                <g id="Group_842" opacity="0.639">
                    <g id="Group_841" class="cls-3" transform="translate(701 4362.027)">
                        <g id="Group_5" class="cls-4">
                            <path id="Path_3" d="M0 0h3.323v14.608H0z" class="cls-5" transform="rotate(-90 4.483 4.483)"/>
                            <path id="Path_4" d="M0 0h3.323v14.608H0z" class="cls-5" transform="translate(5.643)"/>
                        </g>
                    </g>
                    <g id="Group_841-2" class="cls-6" transform="translate(750 4362.027)">
                        <g id="Group_5-2" class="cls-4">
                            <path id="Path_3-2" d="M0 0h3.323v14.608H0z" class="cls-5" transform="rotate(-90 4.483 4.483)"/>
                            <path id="Path_4-2" d="M0 0h3.323v14.608H0z" class="cls-5" transform="translate(5.643)"/>
                        </g>
                    </g>
                    <g id="Group_841-3" class="cls-7" transform="translate(799 4362.027)">
                        <g id="Group_5-3" class="cls-4">
                            <path id="Path_3-3" d="M0 0h3.323v14.608H0z" class="cls-5" transform="rotate(-90 4.483 4.483)"/>
                            <path id="Path_4-3" d="M0 0h3.323v14.608H0z" class="cls-5" transform="translate(5.643)"/>
                        </g>
                    </g>
                    <g id="Group_841-4" class="cls-3" transform="translate(848 4362.027)">
                        <g id="Group_5-4" class="cls-4">
                            <path id="Path_3-4" d="M0 0h3.323v14.608H0z" class="cls-5" transform="rotate(-90 4.483 4.483)"/>
                            <path id="Path_4-4" d="M0 0h3.323v14.608H0z" class="cls-5" transform="translate(5.643)"/>
                        </g>
                    </g>
                    <g id="Group_841-5" class="cls-3" transform="translate(897 4362.027)">
                        <g id="Group_5-5" class="cls-4">
                            <path id="Path_3-5" d="M0 0h3.323v14.608H0z" class="cls-5" transform="rotate(-90 4.483 4.483)"/>
                            <path id="Path_4-5" d="M0 0h3.323v14.608H0z" class="cls-5" transform="translate(5.643)"/>
                        </g>
                    </g>
                    <g id="Group_841-6" class="cls-8" transform="translate(946 4362.027)">
                        <g id="Group_5-6" class="cls-4">
                            <path id="Path_3-6" d="M0 0h3.323v14.608H0z" class="cls-5" transform="rotate(-90 4.483 4.483)"/>
                            <path id="Path_4-6" d="M0 0h3.323v14.608H0z" class="cls-5" transform="translate(5.643)"/>
                        </g>
                    </g>
                    <g id="Group_841-7" class="cls-7" transform="translate(995 4362.027)">
                        <g id="Group_5-7" class="cls-4">
                            <path id="Path_3-7" d="M0 0h3.323v14.608H0z" class="cls-5" transform="rotate(-90 4.483 4.483)"/>
                            <path id="Path_4-7" d="M0 0h3.323v14.608H0z" class="cls-5" transform="translate(5.643)"/>
                        </g>
                    </g>
                    <g id="Group_841-8" class="cls-3" transform="translate(1044 4362.027)">
                        <g id="Group_5-8" class="cls-4">
                            <path id="Path_3-8" d="M0 0h3.323v14.608H0z" class="cls-5" transform="rotate(-90 4.483 4.483)"/>
                            <path id="Path_4-8" d="M0 0h3.323v14.608H0z" class="cls-5" transform="translate(5.643)"/>
                        </g>
                    </g>
                    <g id="Group_841-9" class="cls-3" transform="translate(1093 4362.027)">
                        <g id="Group_5-9" class="cls-4">
                            <path id="Path_3-9" d="M0 0h3.323v14.608H0z" class="cls-5" transform="rotate(-90 4.483 4.483)"/>
                            <path id="Path_4-9" d="M0 0h3.323v14.608H0z" class="cls-5" transform="translate(5.643)"/>
                        </g>
                    </g>
                    <g id="Group_841-10" class="cls-3" transform="translate(1142 4362.027)">
                        <g id="Group_5-10" class="cls-4">
                            <path id="Path_3-10" d="M0 0h3.323v14.608H0z" class="cls-5" transform="rotate(-90 4.483 4.483)"/>
                            <path id="Path_4-10" d="M0 0h3.323v14.608H0z" class="cls-5" transform="translate(5.643)"/>
                        </g>
                    </g>
                    <g id="Group_841-11" class="cls-8" transform="translate(1191 4362.027)">
                        <g id="Group_5-11" class="cls-4">
                            <path id="Path_3-11" d="M0 0h3.323v14.608H0z" class="cls-5" transform="rotate(-90 4.483 4.483)"/>
                            <path id="Path_4-11" d="M0 0h3.323v14.608H0z" class="cls-5" transform="translate(5.643)"/>
                        </g>
                    </g>
                    <g id="Group_841-12" class="cls-3" transform="translate(701 4411.027)">
                        <g id="Group_5-12" class="cls-4">
                            <path id="Path_3-12" d="M0 0h3.323v14.608H0z" class="cls-5" transform="rotate(-90 4.483 4.483)"/>
                            <path id="Path_4-12" d="M0 0h3.323v14.608H0z" class="cls-5" transform="translate(5.643)"/>
                        </g>
                    </g>
                    <g id="Group_841-13" class="cls-3" transform="translate(750 4411.027)">
                        <g id="Group_5-13" class="cls-4">
                            <path id="Path_3-13" d="M0 0h3.323v14.608H0z" class="cls-5" transform="rotate(-90 4.483 4.483)"/>
                            <path id="Path_4-13" d="M0 0h3.323v14.608H0z" class="cls-5" transform="translate(5.643)"/>
                        </g>
                    </g>
                    <g id="Group_841-14" class="cls-6" transform="translate(799 4411.027)">
                        <g id="Group_5-14" class="cls-4">
                            <path id="Path_3-14" d="M0 0h3.323v14.608H0z" class="cls-5" transform="rotate(-90 4.483 4.483)"/>
                            <path id="Path_4-14" d="M0 0h3.323v14.608H0z" class="cls-5" transform="translate(5.643)"/>
                        </g>
                    </g>
                    <g id="Group_841-15" class="cls-6" transform="translate(848 4411.027)">
                        <g id="Group_5-15" class="cls-4">
                            <path id="Path_3-15" d="M0 0h3.323v14.608H0z" class="cls-5" transform="rotate(-90 4.483 4.483)"/>
                            <path id="Path_4-15" d="M0 0h3.323v14.608H0z" class="cls-5" transform="translate(5.643)"/>
                        </g>
                    </g>
                    <g id="Group_841-16" class="cls-3" transform="translate(897 4411.027)">
                        <g id="Group_5-16" class="cls-4">
                            <path id="Path_3-16" d="M0 0h3.323v14.608H0z" class="cls-5" transform="rotate(-90 4.483 4.483)"/>
                            <path id="Path_4-16" d="M0 0h3.323v14.608H0z" class="cls-5" transform="translate(5.643)"/>
                        </g>
                    </g>
                    <g id="Group_841-17" class="cls-6" transform="translate(946 4411.027)">
                        <g id="Group_5-17" class="cls-4">
                            <path id="Path_3-17" d="M0 0h3.323v14.608H0z" class="cls-5" transform="rotate(-90 4.483 4.483)"/>
                            <path id="Path_4-17" d="M0 0h3.323v14.608H0z" class="cls-5" transform="translate(5.643)"/>
                        </g>
                    </g>
                    <g id="Group_841-18" class="cls-3" transform="translate(995 4411.027)">
                        <g id="Group_5-18" class="cls-4">
                            <path id="Path_3-18" d="M0 0h3.323v14.608H0z" class="cls-5" transform="rotate(-90 4.483 4.483)"/>
                            <path id="Path_4-18" d="M0 0h3.323v14.608H0z" class="cls-5" transform="translate(5.643)"/>
                        </g>
                    </g>
                    <g id="Group_841-19" class="cls-6" transform="translate(1044 4411.027)">
                        <g id="Group_5-19" class="cls-4">
                            <path id="Path_3-19" d="M0 0h3.323v14.608H0z" class="cls-5" transform="rotate(-90 4.483 4.483)"/>
                            <path id="Path_4-19" d="M0 0h3.323v14.608H0z" class="cls-5" transform="translate(5.643)"/>
                        </g>
                    </g>
                    <g id="Group_841-20" class="cls-3" transform="translate(1093 4411.027)">
                        <g id="Group_5-20" class="cls-4">
                            <path id="Path_3-20" d="M0 0h3.323v14.608H0z" class="cls-5" transform="rotate(-90 4.483 4.483)"/>
                            <path id="Path_4-20" d="M0 0h3.323v14.608H0z" class="cls-5" transform="translate(5.643)"/>
                        </g>
                    </g>
                    <g id="Group_841-21" class="cls-6" transform="translate(1142 4411.027)">
                        <g id="Group_5-21" class="cls-4">
                            <path id="Path_3-21" d="M0 0h3.323v14.608H0z" class="cls-5" transform="rotate(-90 4.483 4.483)"/>
                            <path id="Path_4-21" d="M0 0h3.323v14.608H0z" class="cls-5" transform="translate(5.643)"/>
                        </g>
                    </g>
                    <g id="Group_841-22" class="cls-3" transform="translate(1191 4411.027)">
                        <g id="Group_5-22" class="cls-4">
                            <path id="Path_3-22" d="M0 0h3.323v14.608H0z" class="cls-5" transform="rotate(-90 4.483 4.483)"/>
                            <path id="Path_4-22" d="M0 0h3.323v14.608H0z" class="cls-5" transform="translate(5.643)"/>
                        </g>
                    </g>
                    <g id="Group_841-23" class="cls-3" transform="translate(701 4460.027)">
                        <g id="Group_5-23" class="cls-4">
                            <path id="Path_3-23" d="M0 0h3.323v14.608H0z" class="cls-5" transform="rotate(-90 4.483 4.483)"/>
                            <path id="Path_4-23" d="M0 0h3.323v14.608H0z" class="cls-5" transform="translate(5.643)"/>
                        </g>
                    </g>
                    <g id="Group_841-24" class="cls-8" transform="translate(750 4460.027)">
                        <g id="Group_5-24" class="cls-4">
                            <path id="Path_3-24" d="M0 0h3.323v14.608H0z" class="cls-5" transform="rotate(-90 4.483 4.483)"/>
                            <path id="Path_4-24" d="M0 0h3.323v14.608H0z" class="cls-5" transform="translate(5.643)"/>
                        </g>
                    </g>
                    <g id="Group_841-25" class="cls-3" transform="translate(799 4460.027)">
                        <g id="Group_5-25" class="cls-4">
                            <path id="Path_3-25" d="M0 0h3.323v14.608H0z" class="cls-5" transform="rotate(-90 4.483 4.483)"/>
                            <path id="Path_4-25" d="M0 0h3.323v14.608H0z" class="cls-5" transform="translate(5.643)"/>
                        </g>
                    </g>
                    <g id="Group_841-26" class="cls-3" transform="translate(848 4460.027)">
                        <g id="Group_5-26" class="cls-4">
                            <path id="Path_3-26" d="M0 0h3.323v14.608H0z" class="cls-5" transform="rotate(-90 4.483 4.483)"/>
                            <path id="Path_4-26" d="M0 0h3.323v14.608H0z" class="cls-5" transform="translate(5.643)"/>
                        </g>
                    </g>
                    <g id="Group_841-27" class="cls-3" transform="translate(897 4460.027)">
                        <g id="Group_5-27" class="cls-4">
                            <path id="Path_3-27" d="M0 0h3.323v14.608H0z" class="cls-5" transform="rotate(-90 4.483 4.483)"/>
                            <path id="Path_4-27" d="M0 0h3.323v14.608H0z" class="cls-5" transform="translate(5.643)"/>
                        </g>
                    </g>
                    <g id="Group_841-28" class="cls-9" transform="translate(946 4460.027)">
                        <g id="Group_5-28" class="cls-4">
                            <path id="Path_3-28" d="M0 0h3.323v14.608H0z" class="cls-5" transform="rotate(-90 4.483 4.483)"/>
                            <path id="Path_4-28" d="M0 0h3.323v14.608H0z" class="cls-5" transform="translate(5.643)"/>
                        </g>
                    </g>
                    <g id="Group_841-29" class="cls-3" transform="translate(995 4460.027)">
                        <g id="Group_5-29" class="cls-4">
                            <path id="Path_3-29" d="M0 0h3.323v14.608H0z" class="cls-5" transform="rotate(-90 4.483 4.483)"/>
                            <path id="Path_4-29" d="M0 0h3.323v14.608H0z" class="cls-5" transform="translate(5.643)"/>
                        </g>
                    </g>
                    <g id="Group_841-30" class="cls-3" transform="translate(1044 4460.027)">
                        <g id="Group_5-30" class="cls-4">
                            <path id="Path_3-30" d="M0 0h3.323v14.608H0z" class="cls-5" transform="rotate(-90 4.483 4.483)"/>
                            <path id="Path_4-30" d="M0 0h3.323v14.608H0z" class="cls-5" transform="translate(5.643)"/>
                        </g>
                    </g>
                    <g id="Group_841-31" class="cls-8" transform="translate(1093 4460.027)">
                        <g id="Group_5-31" class="cls-4">
                            <path id="Path_3-31" d="M0 0h3.323v14.608H0z" class="cls-5" transform="rotate(-90 4.483 4.483)"/>
                            <path id="Path_4-31" d="M0 0h3.323v14.608H0z" class="cls-5" transform="translate(5.643)"/>
                        </g>
                    </g>
                    <g id="Group_841-32" class="cls-7" transform="translate(1142 4460.027)">
                        <g id="Group_5-32" class="cls-4">
                            <path id="Path_3-32" d="M0 0h3.323v14.608H0z" class="cls-5" transform="rotate(-90 4.483 4.483)"/>
                            <path id="Path_4-32" d="M0 0h3.323v14.608H0z" class="cls-5" transform="translate(5.643)"/>
                        </g>
                    </g>
                    <g id="Group_841-33" class="cls-6" transform="translate(1191 4460.027)">
                        <g id="Group_5-33" class="cls-4">
                            <path id="Path_3-33" d="M0 0h3.323v14.608H0z" class="cls-5" transform="rotate(-90 4.483 4.483)"/>
                            <path id="Path_4-33" d="M0 0h3.323v14.608H0z" class="cls-5" transform="translate(5.643)"/>
                        </g>
                    </g>
                    <g id="Group_841-34" class="cls-6" transform="translate(701 4509.027)">
                        <g id="Group_5-34" class="cls-4">
                            <path id="Path_3-34" d="M0 0h3.323v14.608H0z" class="cls-5" transform="rotate(-90 4.483 4.483)"/>
                            <path id="Path_4-34" d="M0 0h3.323v14.608H0z" class="cls-5" transform="translate(5.643)"/>
                        </g>
                    </g>
                    <g id="Group_841-35" class="cls-3" transform="translate(750 4509.027)">
                        <g id="Group_5-35" class="cls-4">
                            <path id="Path_3-35" d="M0 0h3.323v14.608H0z" class="cls-5" transform="rotate(-90 4.483 4.483)"/>
                            <path id="Path_4-35" d="M0 0h3.323v14.608H0z" class="cls-5" transform="translate(5.643)"/>
                        </g>
                    </g>
                    <g id="Group_841-36" class="cls-6" transform="translate(799 4509.027)">
                        <g id="Group_5-36" class="cls-4">
                            <path id="Path_3-36" d="M0 0h3.323v14.608H0z" class="cls-5" transform="rotate(-90 4.483 4.483)"/>
                            <path id="Path_4-36" d="M0 0h3.323v14.608H0z" class="cls-5" transform="translate(5.643)"/>
                        </g>
                    </g>
                    <g id="Group_841-37" class="cls-9" transform="translate(848 4509.027)">
                        <g id="Group_5-37" class="cls-4">
                            <path id="Path_3-37" d="M0 0h3.323v14.608H0z" class="cls-5" transform="rotate(-90 4.483 4.483)"/>
                            <path id="Path_4-37" d="M0 0h3.323v14.608H0z" class="cls-5" transform="translate(5.643)"/>
                        </g>
                    </g>
                    <g id="Group_841-38" class="cls-9" transform="translate(897 4509.027)">
                        <g id="Group_5-38" class="cls-4">
                            <path id="Path_3-38" d="M0 0h3.323v14.608H0z" class="cls-5" transform="rotate(-90 4.483 4.483)"/>
                            <path id="Path_4-38" d="M0 0h3.323v14.608H0z" class="cls-5" transform="translate(5.643)"/>
                        </g>
                    </g>
                    <g id="Group_841-39" class="cls-3" transform="translate(946 4509.027)">
                        <g id="Group_5-39" class="cls-4">
                            <path id="Path_3-39" d="M0 0h3.323v14.608H0z" class="cls-5" transform="rotate(-90 4.483 4.483)"/>
                            <path id="Path_4-39" d="M0 0h3.323v14.608H0z" class="cls-5" transform="translate(5.643)"/>
                        </g>
                    </g>
                    <g id="Group_841-40" class="cls-9" transform="translate(995 4509.027)">
                        <g id="Group_5-40" class="cls-4">
                            <path id="Path_3-40" d="M0 0h3.323v14.608H0z" class="cls-5" transform="rotate(-90 4.483 4.483)"/>
                            <path id="Path_4-40" d="M0 0h3.323v14.608H0z" class="cls-5" transform="translate(5.643)"/>
                        </g>
                    </g>
                    <g id="Group_841-41" class="cls-6" transform="translate(1044 4509.027)">
                        <g id="Group_5-41" class="cls-4">
                            <path id="Path_3-41" d="M0 0h3.323v14.608H0z" class="cls-5" transform="rotate(-90 4.483 4.483)"/>
                            <path id="Path_4-41" d="M0 0h3.323v14.608H0z" class="cls-5" transform="translate(5.643)"/>
                        </g>
                    </g>
                    <g id="Group_841-42" class="cls-3" transform="translate(1093 4509.027)">
                        <g id="Group_5-42" class="cls-4">
                            <path id="Path_3-42" d="M0 0h3.323v14.608H0z" class="cls-5" transform="rotate(-90 4.483 4.483)"/>
                            <path id="Path_4-42" d="M0 0h3.323v14.608H0z" class="cls-5" transform="translate(5.643)"/>
                        </g>
                    </g>
                    <g id="Group_841-43" class="cls-3" transform="translate(1142 4509.027)">
                        <g id="Group_5-43" class="cls-4">
                            <path id="Path_3-43" d="M0 0h3.323v14.608H0z" class="cls-5" transform="rotate(-90 4.483 4.483)"/>
                            <path id="Path_4-43" d="M0 0h3.323v14.608H0z" class="cls-5" transform="translate(5.643)"/>
                        </g>
                    </g>
                    <g id="Group_841-44" class="cls-3" transform="translate(1191 4509.027)">
                        <g id="Group_5-44" class="cls-4">
                            <path id="Path_3-44" d="M0 0h3.323v14.608H0z" class="cls-5" transform="rotate(-90 4.483 4.483)"/>
                            <path id="Path_4-44" d="M0 0h3.323v14.608H0z" class="cls-5" transform="translate(5.643)"/>
                        </g>
                    </g>
                    <g id="Group_841-45" class="cls-3" transform="translate(701 4558.027)">
                        <g id="Group_5-45" class="cls-4">
                            <path id="Path_3-45" d="M0 0h3.323v14.608H0z" class="cls-5" transform="rotate(-90 4.483 4.483)"/>
                            <path id="Path_4-45" d="M0 0h3.323v14.608H0z" class="cls-5" transform="translate(5.643)"/>
                        </g>
                    </g>
                    <g id="Group_841-46" class="cls-7" transform="translate(750 4558.027)">
                        <g id="Group_5-46" class="cls-4">
                            <path id="Path_3-46" d="M0 0h3.323v14.608H0z" class="cls-5" transform="rotate(-90 4.483 4.483)"/>
                            <path id="Path_4-46" d="M0 0h3.323v14.608H0z" class="cls-5" transform="translate(5.643)"/>
                        </g>
                    </g>
                    <g id="Group_841-47" class="cls-3" transform="translate(799 4558.027)">
                        <g id="Group_5-47" class="cls-4">
                            <path id="Path_3-47" d="M0 0h3.323v14.608H0z" class="cls-5" transform="rotate(-90 4.483 4.483)"/>
                            <path id="Path_4-47" d="M0 0h3.323v14.608H0z" class="cls-5" transform="translate(5.643)"/>
                        </g>
                    </g>
                    <g id="Group_841-48" class="cls-9" transform="translate(848 4558.027)">
                        <g id="Group_5-48" class="cls-4">
                            <path id="Path_3-48" d="M0 0h3.323v14.608H0z" class="cls-5" transform="rotate(-90 4.483 4.483)"/>
                            <path id="Path_4-48" d="M0 0h3.323v14.608H0z" class="cls-5" transform="translate(5.643)"/>
                        </g>
                    </g>
                    <g id="Group_841-49" class="cls-3" transform="translate(897 4558.027)">
                        <g id="Group_5-49" class="cls-4">
                            <path id="Path_3-49" d="M0 0h3.323v14.608H0z" class="cls-5" transform="rotate(-90 4.483 4.483)"/>
                            <path id="Path_4-49" d="M0 0h3.323v14.608H0z" class="cls-5" transform="translate(5.643)"/>
                        </g>
                    </g>
                    <g id="Group_841-50" class="cls-3" transform="translate(946 4558.027)">
                        <g id="Group_5-50" class="cls-4">
                            <path id="Path_3-50" d="M0 0h3.323v14.608H0z" class="cls-5" transform="rotate(-90 4.483 4.483)"/>
                            <path id="Path_4-50" d="M0 0h3.323v14.608H0z" class="cls-5" transform="translate(5.643)"/>
                        </g>
                    </g>
                    <g id="Group_841-51" class="cls-9" transform="translate(995 4558.027)">
                        <g id="Group_5-51" class="cls-4">
                            <path id="Path_3-51" d="M0 0h3.323v14.608H0z" class="cls-5" transform="rotate(-90 4.483 4.483)"/>
                            <path id="Path_4-51" d="M0 0h3.323v14.608H0z" class="cls-5" transform="translate(5.643)"/>
                        </g>
                    </g>
                    <g id="Group_841-52" class="cls-3" transform="translate(1044 4558.027)">
                        <g id="Group_5-52" class="cls-4">
                            <path id="Path_3-52" d="M0 0h3.323v14.608H0z" class="cls-5" transform="rotate(-90 4.483 4.483)"/>
                            <path id="Path_4-52" d="M0 0h3.323v14.608H0z" class="cls-5" transform="translate(5.643)"/>
                        </g>
                    </g>
                    <g id="Group_841-53" class="cls-3" transform="translate(1093 4558.027)">
                        <g id="Group_5-53" class="cls-4">
                            <path id="Path_3-53" d="M0 0h3.323v14.608H0z" class="cls-5" transform="rotate(-90 4.483 4.483)"/>
                            <path id="Path_4-53" d="M0 0h3.323v14.608H0z" class="cls-5" transform="translate(5.643)"/>
                        </g>
                    </g>
                    <g id="Group_841-54" class="cls-6" transform="translate(1142 4558.027)">
                        <g id="Group_5-54" class="cls-4">
                            <path id="Path_3-54" d="M0 0h3.323v14.608H0z" class="cls-5" transform="rotate(-90 4.483 4.483)"/>
                            <path id="Path_4-54" d="M0 0h3.323v14.608H0z" class="cls-5" transform="translate(5.643)"/>
                        </g>
                    </g>
                    <g id="Group_841-55" class="cls-3" transform="translate(1191 4558.027)">
                        <g id="Group_5-55" class="cls-4">
                            <path id="Path_3-55" d="M0 0h3.323v14.608H0z" class="cls-5" transform="rotate(-90 4.483 4.483)"/>
                            <path id="Path_4-55" d="M0 0h3.323v14.608H0z" class="cls-5" transform="translate(5.643)"/>
                        </g>
                    </g>
                    <g id="Group_841-56" class="cls-6" transform="translate(701 4607.027)">
                        <g id="Group_5-56" class="cls-4">
                            <path id="Path_3-56" d="M0 0h3.323v14.608H0z" class="cls-5" transform="rotate(-90 4.483 4.483)"/>
                            <path id="Path_4-56" d="M0 0h3.323v14.608H0z" class="cls-5" transform="translate(5.643)"/>
                        </g>
                    </g>
                    <g id="Group_841-57" class="cls-3" transform="translate(750 4607.027)">
                        <g id="Group_5-57" class="cls-4">
                            <path id="Path_3-57" d="M0 0h3.323v14.608H0z" class="cls-5" transform="rotate(-90 4.483 4.483)"/>
                            <path id="Path_4-57" d="M0 0h3.323v14.608H0z" class="cls-5" transform="translate(5.643)"/>
                        </g>
                    </g>
                    <g id="Group_841-58" class="cls-7" transform="translate(799 4607.027)">
                        <g id="Group_5-58" class="cls-4">
                            <path id="Path_3-58" d="M0 0h3.323v14.608H0z" class="cls-5" transform="rotate(-90 4.483 4.483)"/>
                            <path id="Path_4-58" d="M0 0h3.323v14.608H0z" class="cls-5" transform="translate(5.643)"/>
                        </g>
                    </g>
                    <g id="Group_841-59" class="cls-3" transform="translate(848 4607.027)">
                        <g id="Group_5-59" class="cls-4">
                            <path id="Path_3-59" d="M0 0h3.323v14.608H0z" class="cls-5" transform="rotate(-90 4.483 4.483)"/>
                            <path id="Path_4-59" d="M0 0h3.323v14.608H0z" class="cls-5" transform="translate(5.643)"/>
                        </g>
                    </g>
                    <g id="Group_841-60" class="cls-9" transform="translate(897 4607.027)">
                        <g id="Group_5-60" class="cls-4">
                            <path id="Path_3-60" d="M0 0h3.323v14.608H0z" class="cls-5" transform="rotate(-90 4.483 4.483)"/>
                            <path id="Path_4-60" d="M0 0h3.323v14.608H0z" class="cls-5" transform="translate(5.643)"/>
                        </g>
                    </g>
                    <g id="Group_841-61" class="cls-9" transform="translate(946 4607.027)">
                        <g id="Group_5-61" class="cls-4">
                            <path id="Path_3-61" d="M0 0h3.323v14.608H0z" class="cls-5" transform="rotate(-90 4.483 4.483)"/>
                            <path id="Path_4-61" d="M0 0h3.323v14.608H0z" class="cls-5" transform="translate(5.643)"/>
                        </g>
                    </g>
                    <g id="Group_841-62" class="cls-9" transform="translate(995 4607.027)">
                        <g id="Group_5-62" class="cls-4">
                            <path id="Path_3-62" d="M0 0h3.323v14.608H0z" class="cls-5" transform="rotate(-90 4.483 4.483)"/>
                            <path id="Path_4-62" d="M0 0h3.323v14.608H0z" class="cls-5" transform="translate(5.643)"/>
                        </g>
                    </g>
                    <g id="Group_841-63" class="cls-6" transform="translate(1044 4607.027)">
                        <g id="Group_5-63" class="cls-4">
                            <path id="Path_3-63" d="M0 0h3.323v14.608H0z" class="cls-5" transform="rotate(-90 4.483 4.483)"/>
                            <path id="Path_4-63" d="M0 0h3.323v14.608H0z" class="cls-5" transform="translate(5.643)"/>
                        </g>
                    </g>
                    <g id="Group_841-64" class="cls-3" transform="translate(1093 4607.027)">
                        <g id="Group_5-64" class="cls-4">
                            <path id="Path_3-64" d="M0 0h3.323v14.608H0z" class="cls-5" transform="rotate(-90 4.483 4.483)"/>
                            <path id="Path_4-64" d="M0 0h3.323v14.608H0z" class="cls-5" transform="translate(5.643)"/>
                        </g>
                    </g>
                    <g id="Group_841-65" class="cls-3" transform="translate(1142 4607.027)">
                        <g id="Group_5-65" class="cls-4">
                            <path id="Path_3-65" d="M0 0h3.323v14.608H0z" class="cls-5" transform="rotate(-90 4.483 4.483)"/>
                            <path id="Path_4-65" d="M0 0h3.323v14.608H0z" class="cls-5" transform="translate(5.643)"/>
                        </g>
                    </g>
                    <g id="Group_841-66" class="cls-3" transform="translate(1191 4607.027)">
                        <g id="Group_5-66" class="cls-4">
                            <path id="Path_3-66" d="M0 0h3.323v14.608H0z" class="cls-5" transform="rotate(-90 4.483 4.483)"/>
                            <path id="Path_4-66" d="M0 0h3.323v14.608H0z" class="cls-5" transform="translate(5.643)"/>
                        </g>
                    </g>
                    <g id="Group_841-67" class="cls-3" transform="translate(701 4656.027)">
                        <g id="Group_5-67" class="cls-4">
                            <path id="Path_3-67" d="M0 0h3.323v14.608H0z" class="cls-5" transform="rotate(-90 4.483 4.483)"/>
                            <path id="Path_4-67" d="M0 0h3.323v14.608H0z" class="cls-5" transform="translate(5.643)"/>
                        </g>
                    </g>
                    <g id="Group_841-68" class="cls-8" transform="translate(750 4656.027)">
                        <g id="Group_5-68" class="cls-4">
                            <path id="Path_3-68" d="M0 0h3.323v14.608H0z" class="cls-5" transform="rotate(-90 4.483 4.483)"/>
                            <path id="Path_4-68" d="M0 0h3.323v14.608H0z" class="cls-5" transform="translate(5.643)"/>
                        </g>
                    </g>
                    <g id="Group_841-69" class="cls-3" transform="translate(799 4656.027)">
                        <g id="Group_5-69" class="cls-4">
                            <path id="Path_3-69" d="M0 0h3.323v14.608H0z" class="cls-5" transform="rotate(-90 4.483 4.483)"/>
                            <path id="Path_4-69" d="M0 0h3.323v14.608H0z" class="cls-5" transform="translate(5.643)"/>
                        </g>
                    </g>
                    <g id="Group_841-70" class="cls-9" transform="translate(848 4656.027)">
                        <g id="Group_5-70" class="cls-4">
                            <path id="Path_3-70" d="M0 0h3.323v14.608H0z" class="cls-5" transform="rotate(-90 4.483 4.483)"/>
                            <path id="Path_4-70" d="M0 0h3.323v14.608H0z" class="cls-5" transform="translate(5.643)"/>
                        </g>
                    </g>
                    <g id="Group_841-71" class="cls-9" transform="translate(897 4656.027)">
                        <g id="Group_5-71" class="cls-4">
                            <path id="Path_3-71" d="M0 0h3.323v14.608H0z" class="cls-5" transform="rotate(-90 4.483 4.483)"/>
                            <path id="Path_4-71" d="M0 0h3.323v14.608H0z" class="cls-5" transform="translate(5.643)"/>
                        </g>
                    </g>
                    <g id="Group_841-72" class="cls-3" transform="translate(946 4656.027)">
                        <g id="Group_5-72" class="cls-4">
                            <path id="Path_3-72" d="M0 0h3.323v14.608H0z" class="cls-5" transform="rotate(-90 4.483 4.483)"/>
                            <path id="Path_4-72" d="M0 0h3.323v14.608H0z" class="cls-5" transform="translate(5.643)"/>
                        </g>
                    </g>
                    <g id="Group_841-73" class="cls-9" transform="translate(995 4656.027)">
                        <g id="Group_5-73" class="cls-4">
                            <path id="Path_3-73" d="M0 0h3.323v14.608H0z" class="cls-5" transform="rotate(-90 4.483 4.483)"/>
                            <path id="Path_4-73" d="M0 0h3.323v14.608H0z" class="cls-5" transform="translate(5.643)"/>
                        </g>
                    </g>
                    <g id="Group_841-74" class="cls-3" transform="translate(1044 4656.027)">
                        <g id="Group_5-74" class="cls-4">
                            <path id="Path_3-74" d="M0 0h3.323v14.608H0z" class="cls-5" transform="rotate(-90 4.483 4.483)"/>
                            <path id="Path_4-74" d="M0 0h3.323v14.608H0z" class="cls-5" transform="translate(5.643)"/>
                        </g>
                    </g>
                    <g id="Group_841-75" class="cls-6" transform="translate(1093 4656.027)">
                        <g id="Group_5-75" class="cls-4">
                            <path id="Path_3-75" d="M0 0h3.323v14.608H0z" class="cls-5" transform="rotate(-90 4.483 4.483)"/>
                            <path id="Path_4-75" d="M0 0h3.323v14.608H0z" class="cls-5" transform="translate(5.643)"/>
                        </g>
                    </g>
                    <g id="Group_841-76" class="cls-6" transform="translate(1142 4656.027)">
                        <g id="Group_5-76" class="cls-4">
                            <path id="Path_3-76" d="M0 0h3.323v14.608H0z" class="cls-5" transform="rotate(-90 4.483 4.483)"/>
                            <path id="Path_4-76" d="M0 0h3.323v14.608H0z" class="cls-5" transform="translate(5.643)"/>
                        </g>
                    </g>
                    <g id="Group_841-77" class="cls-3" transform="translate(1191 4656.027)">
                        <g id="Group_5-77" class="cls-4">
                            <path id="Path_3-77" d="M0 0h3.323v14.608H0z" class="cls-5" transform="rotate(-90 4.483 4.483)"/>
                            <path id="Path_4-77" d="M0 0h3.323v14.608H0z" class="cls-5" transform="translate(5.643)"/>
                        </g>
                    </g>
                    <g id="Group_841-78" class="cls-3" transform="translate(701 4705.027)">
                        <g id="Group_5-78" class="cls-4">
                            <path id="Path_3-78" d="M0 0h3.323v14.608H0z" class="cls-5" transform="rotate(-90 4.483 4.483)"/>
                            <path id="Path_4-78" d="M0 0h3.323v14.608H0z" class="cls-5" transform="translate(5.643)"/>
                        </g>
                    </g>
                    <g id="Group_841-79" class="cls-6" transform="translate(750 4705.027)">
                        <g id="Group_5-79" class="cls-4">
                            <path id="Path_3-79" d="M0 0h3.323v14.608H0z" class="cls-5" transform="rotate(-90 4.483 4.483)"/>
                            <path id="Path_4-79" d="M0 0h3.323v14.608H0z" class="cls-5" transform="translate(5.643)"/>
                        </g>
                    </g>
                    <g id="Group_841-80" class="cls-7" transform="translate(799 4705.027)">
                        <g id="Group_5-80" class="cls-4">
                            <path id="Path_3-80" d="M0 0h3.323v14.608H0z" class="cls-5" transform="rotate(-90 4.483 4.483)"/>
                            <path id="Path_4-80" d="M0 0h3.323v14.608H0z" class="cls-5" transform="translate(5.643)"/>
                        </g>
                    </g>
                    <g id="Group_841-81" class="cls-8" transform="translate(848 4705.027)">
                        <g id="Group_5-81" class="cls-4">
                            <path id="Path_3-81" d="M0 0h3.323v14.608H0z" class="cls-5" transform="rotate(-90 4.483 4.483)"/>
                            <path id="Path_4-81" d="M0 0h3.323v14.608H0z" class="cls-5" transform="translate(5.643)"/>
                        </g>
                    </g>
                    <g id="Group_841-82" class="cls-6" transform="translate(897 4705.027)">
                        <g id="Group_5-82" class="cls-4">
                            <path id="Path_3-82" d="M0 0h3.323v14.608H0z" class="cls-5" transform="rotate(-90 4.483 4.483)"/>
                            <path id="Path_4-82" d="M0 0h3.323v14.608H0z" class="cls-5" transform="translate(5.643)"/>
                        </g>
                    </g>
                    <g id="Group_841-83" class="cls-3" transform="translate(946 4705.027)">
                        <g id="Group_5-83" class="cls-4">
                            <path id="Path_3-83" d="M0 0h3.323v14.608H0z" class="cls-5" transform="rotate(-90 4.483 4.483)"/>
                            <path id="Path_4-83" d="M0 0h3.323v14.608H0z" class="cls-5" transform="translate(5.643)"/>
                        </g>
                    </g>
                    <g id="Group_841-84" class="cls-6" transform="translate(995 4705.027)">
                        <g id="Group_5-84" class="cls-4">
                            <path id="Path_3-84" d="M0 0h3.323v14.608H0z" class="cls-5" transform="rotate(-90 4.483 4.483)"/>
                            <path id="Path_4-84" d="M0 0h3.323v14.608H0z" class="cls-5" transform="translate(5.643)"/>
                        </g>
                    </g>
                    <g id="Group_841-85" class="cls-6" transform="translate(1044 4705.027)">
                        <g id="Group_5-85" class="cls-4">
                            <path id="Path_3-85" d="M0 0h3.323v14.608H0z" class="cls-5" transform="rotate(-90 4.483 4.483)"/>
                            <path id="Path_4-85" d="M0 0h3.323v14.608H0z" class="cls-5" transform="translate(5.643)"/>
                        </g>
                    </g>
                    <g id="Group_841-86" class="cls-3" transform="translate(1093 4705.027)">
                        <g id="Group_5-86" class="cls-4">
                            <path id="Path_3-86" d="M0 0h3.323v14.608H0z" class="cls-5" transform="rotate(-90 4.483 4.483)"/>
                            <path id="Path_4-86" d="M0 0h3.323v14.608H0z" class="cls-5" transform="translate(5.643)"/>
                        </g>
                    </g>
                    <g id="Group_841-87" class="cls-3" transform="translate(1142 4705.027)">
                        <g id="Group_5-87" class="cls-4">
                            <path id="Path_3-87" d="M0 0h3.323v14.608H0z" class="cls-5" transform="rotate(-90 4.483 4.483)"/>
                            <path id="Path_4-87" d="M0 0h3.323v14.608H0z" class="cls-5" transform="translate(5.643)"/>
                        </g>
                    </g>
                    <g id="Group_841-88" class="cls-8" transform="translate(1191 4705.027)">
                        <g id="Group_5-88" class="cls-4">
                            <path id="Path_3-88" d="M0 0h3.323v14.608H0z" class="cls-5" transform="rotate(-90 4.483 4.483)"/>
                            <path id="Path_4-88" d="M0 0h3.323v14.608H0z" class="cls-5" transform="translate(5.643)"/>
                        </g>
                    </g>
                    <g id="Group_841-89" class="cls-3" transform="translate(701 4754.027)">
                        <g id="Group_5-89" class="cls-4">
                            <path id="Path_3-89" d="M0 0h3.323v14.608H0z" class="cls-5" transform="rotate(-90 4.483 4.483)"/>
                            <path id="Path_4-89" d="M0 0h3.323v14.608H0z" class="cls-5" transform="translate(5.643)"/>
                        </g>
                    </g>
                    <g id="Group_841-90" class="cls-6" transform="translate(750 4754.027)">
                        <g id="Group_5-90" class="cls-4">
                            <path id="Path_3-90" d="M0 0h3.323v14.608H0z" class="cls-5" transform="rotate(-90 4.483 4.483)"/>
                            <path id="Path_4-90" d="M0 0h3.323v14.608H0z" class="cls-5" transform="translate(5.643)"/>
                        </g>
                    </g>
                    <g id="Group_841-91" class="cls-3" transform="translate(799 4754.027)">
                        <g id="Group_5-91" class="cls-4">
                            <path id="Path_3-91" d="M0 0h3.323v14.608H0z" class="cls-5" transform="rotate(-90 4.483 4.483)"/>
                            <path id="Path_4-91" d="M0 0h3.323v14.608H0z" class="cls-5" transform="translate(5.643)"/>
                        </g>
                    </g>
                    <g id="Group_841-92" class="cls-6" transform="translate(848 4754.027)">
                        <g id="Group_5-92" class="cls-4">
                            <path id="Path_3-92" d="M0 0h3.323v14.608H0z" class="cls-5" transform="rotate(-90 4.483 4.483)"/>
                            <path id="Path_4-92" d="M0 0h3.323v14.608H0z" class="cls-5" transform="translate(5.643)"/>
                        </g>
                    </g>
                    <g id="Group_841-93" class="cls-3" transform="translate(897 4754.027)">
                        <g id="Group_5-93" class="cls-4">
                            <path id="Path_3-93" d="M0 0h3.323v14.608H0z" class="cls-5" transform="rotate(-90 4.483 4.483)"/>
                            <path id="Path_4-93" d="M0 0h3.323v14.608H0z" class="cls-5" transform="translate(5.643)"/>
                        </g>
                    </g>
                    <g id="Group_841-94" class="cls-3" transform="translate(946 4754.027)">
                        <g id="Group_5-94" class="cls-4">
                            <path id="Path_3-94" d="M0 0h3.323v14.608H0z" class="cls-5" transform="rotate(-90 4.483 4.483)"/>
                            <path id="Path_4-94" d="M0 0h3.323v14.608H0z" class="cls-5" transform="translate(5.643)"/>
                        </g>
                    </g>
                    <g id="Group_841-95" class="cls-3" transform="translate(995 4754.027)">
                        <g id="Group_5-95" class="cls-4">
                            <path id="Path_3-95" d="M0 0h3.323v14.608H0z" class="cls-5" transform="rotate(-90 4.483 4.483)"/>
                            <path id="Path_4-95" d="M0 0h3.323v14.608H0z" class="cls-5" transform="translate(5.643)"/>
                        </g>
                    </g>
                    <g id="Group_841-96" class="cls-3" transform="translate(1044 4754.027)">
                        <g id="Group_5-96" class="cls-4">
                            <path id="Path_3-96" d="M0 0h3.323v14.608H0z" class="cls-5" transform="rotate(-90 4.483 4.483)"/>
                            <path id="Path_4-96" d="M0 0h3.323v14.608H0z" class="cls-5" transform="translate(5.643)"/>
                        </g>
                    </g>
                    <g id="Group_841-97" class="cls-6" transform="translate(1093 4754.027)">
                        <g id="Group_5-97" class="cls-4">
                            <path id="Path_3-97" d="M0 0h3.323v14.608H0z" class="cls-5" transform="rotate(-90 4.483 4.483)"/>
                            <path id="Path_4-97" d="M0 0h3.323v14.608H0z" class="cls-5" transform="translate(5.643)"/>
                        </g>
                    </g>
                    <g id="Group_841-98" class="cls-6" transform="translate(1142 4754.027)">
                        <g id="Group_5-98" class="cls-4">
                            <path id="Path_3-98" d="M0 0h3.323v14.608H0z" class="cls-5" transform="rotate(-90 4.483 4.483)"/>
                            <path id="Path_4-98" d="M0 0h3.323v14.608H0z" class="cls-5" transform="translate(5.643)"/>
                        </g>
                    </g>
                    <g id="Group_841-99" class="cls-3" transform="translate(1191 4754.027)">
                        <g id="Group_5-99" class="cls-4">
                            <path id="Path_3-99" d="M0 0h3.323v14.608H0z" class="cls-5" transform="rotate(-90 4.483 4.483)"/>
                            <path id="Path_4-99" d="M0 0h3.323v14.608H0z" class="cls-5" transform="translate(5.643)"/>
                        </g>
                    </g>
                </g>
            </g>
        </g>
        <g id="document" transform="translate(850 4971)">
            <path id="Path_471" d="M398.2 260.542H392v5.832h8.662a2.916 2.916 0 0 0 2.875-2.426L425.4 135.636l-5.75-.98z" class="cls-10" transform="translate(-238.939 -75.403)"/>
            <path id="Path_472" d="M426.618 45.365l-34.994-6.171-1.013 5.744 32.139 5.668-2.991 17.555 5.749.98 3.478-20.413a2.916 2.916 0 0 0-2.368-3.363z" class="cls-10" transform="translate(-238.057 -14.739)"/>
            <path id="Path_473" d="M144.312 16H18.916A2.916 2.916 0 0 0 16 18.916V138.48h5.832V21.832H141.4v163.307H21.832v-40.827H16v43.743a2.916 2.916 0 0 0 2.916 2.916h125.4a2.916 2.916 0 0 0 2.916-2.916V18.916a2.916 2.916 0 0 0-2.92-2.916z" class="cls-10"/>
            <path id="Path_474" d="M86.467 262.294l-4.124 4.124 8.749 8.749a2.916 2.916 0 0 0 2.062.854h.112a2.916 2.916 0 0 0 2.1-1.016l17.5-20.413-4.428-3.8-15.449 18.023z" class="cls-10" transform="translate(-42.159 -149.205)"/>
            <path id="Path_475" d="M56 272.788a10.218 10.218 0 0 0 10.207 10.207h14.581a10.218 10.218 0 0 0 10.207-10.207v-1.458h-5.833v1.458a4.379 4.379 0 0 1-4.374 4.374H66.207a4.379 4.379 0 0 1-4.374-4.374v-14.581a4.379 4.379 0 0 1 4.374-4.374h13.122V248H66.207A10.218 10.218 0 0 0 56 258.207z" class="cls-10" transform="translate(-25.419 -147.431)"/>
            <path id="Path_476" d="M86.467 382.294l-4.124 4.124 8.749 8.749a2.916 2.916 0 0 0 2.062.854h.112a2.917 2.917 0 0 0 2.1-1.016l17.5-20.413-4.428-3.8-15.449 18.023z" class="cls-10" transform="translate(-42.159 -225.463)"/>
            <path id="Path_477" d="M56 392.788a10.218 10.218 0 0 0 10.207 10.207h14.581a10.218 10.218 0 0 0 10.207-10.207v-1.458h-5.833v1.458a4.379 4.379 0 0 1-4.374 4.374H66.207a4.379 4.379 0 0 1-4.374-4.374v-14.581a4.379 4.379 0 0 1 4.374-4.374h13.122V368H66.207A10.218 10.218 0 0 0 56 378.207z" class="cls-10" transform="translate(-25.419 -223.688)"/>
            <path id="Path_478" d="M184 368h43.743v5.832H184z" class="cls-10" transform="translate(-106.76 -223.688)"/>
            <path id="Path_479" d="M184 408h14.581v5.832H184z" class="cls-10" transform="translate(-106.76 -249.107)"/>
            <path id="Path_480" d="M240 408h23.329v5.832H240z" class="cls-10" transform="translate(-142.347 -249.107)"/>
            <path id="Path_481" d="M184 248h43.743v5.832H184z" class="cls-10" transform="translate(-106.76 -147.431)"/>
            <path id="Path_482" d="M184 288h14.581v5.832H184z" class="cls-10" transform="translate(-106.76 -172.85)"/>
            <path id="Path_483" d="M240 288h23.329v5.832H240z" class="cls-10" transform="translate(-142.347 -172.85)"/>
            <path id="Path_484" d="M176.522 59.939l-26.209-11.687a2.916 2.916 0 0 0-2.375 0l-26.209 11.687a2.916 2.916 0 0 0-1.693 3.117l2.185 13.87c0 .023.007.046.012.068a47.733 47.733 0 0 0 18.83 29.934l6.358 4.682a2.916 2.916 0 0 0 3.444.011l6.057-4.4A47.719 47.719 0 0 0 176 77.109c0-.023.008-.045.011-.068l2.206-13.983a2.916 2.916 0 0 0-1.692-3.118zM170.253 76.1a41.911 41.911 0 0 1-16.761 26.4l-4.329 3.148-4.639-3.417a41.925 41.925 0 0 1-16.545-26.246l-1.832-11.628 22.98-10.25 22.98 10.247z" class="cls-10" transform="translate(-66.09 -20.335)"/>
            <path id="Path_485" d="M166.277 107.149l-4.124 4.124 8.749 8.749a2.916 2.916 0 0 0 4.124 0l17.5-17.5L188.4 98.4l-15.435 15.436z" class="cls-10" transform="translate(-92.877 -52.363)"/>
            <path id="Path_486" d="M56 48h17.5v5.832H56z" class="cls-10" transform="translate(-25.419 -20.335)"/>
            <path id="Path_487" d="M56 80h11.665v5.832H56z" class="cls-10" transform="translate(-25.419 -40.671)"/>
            <path id="Path_488" d="M296 48h5.832v5.832H296z" class="cls-10" transform="translate(-177.934 -20.335)"/>
            <path id="Path_489" d="M328 48h5.832v5.832H328z" class="cls-10" transform="translate(-198.269 -20.335)"/>
        </g>
    </g>
</svg>
