<svg xmlns="http://www.w3.org/2000/svg" width="540.5" height="443" viewBox="0 0 540.5 443">
    <defs>
        <style>
            .cls-3{opacity:.459}.cls-4{opacity:.521}.cls-5,.cls-9{fill:#fff}.cls-5{opacity:.324}.cls-6{opacity:.939}.cls-7{opacity:.77}.cls-8{opacity:.41}
        </style>
    </defs>
    <g id="Group_844" transform="translate(-683 -4346)">
        <g id="Group_853">
            <g id="Group_843">
                <rect id="Rectangle_92" width="540.5" height="443" fill="#0b5c56" rx="8" transform="translate(683 4346)"/>
                <g id="Group_842" opacity="0.732">
                    <g id="Group_841" class="cls-3" transform="translate(701 4362.027)">
                        <g id="Group_5" class="cls-4">
                            <path id="Path_3" d="M0 0h3.323v14.608H0z" class="cls-5" transform="rotate(-90 4.483 4.483)"/>
                            <path id="Path_4" d="M0 0h3.323v14.608H0z" class="cls-5" transform="translate(5.643)"/>
                        </g>
                    </g>
                    <g id="Group_841-2" class="cls-6" transform="translate(750 4362.027)">
                        <g id="Group_5-2" class="cls-4">
                            <path id="Path_3-2" d="M0 0h3.323v14.608H0z" class="cls-5" transform="rotate(-90 4.483 4.483)"/>
                            <path id="Path_4-2" d="M0 0h3.323v14.608H0z" class="cls-5" transform="translate(5.643)"/>
                        </g>
                    </g>
                    <g id="Group_841-3" class="cls-7" transform="translate(799 4362.027)">
                        <g id="Group_5-3" class="cls-4">
                            <path id="Path_3-3" d="M0 0h3.323v14.608H0z" class="cls-5" transform="rotate(-90 4.483 4.483)"/>
                            <path id="Path_4-3" d="M0 0h3.323v14.608H0z" class="cls-5" transform="translate(5.643)"/>
                        </g>
                    </g>
                    <g id="Group_841-4" class="cls-3" transform="translate(848 4362.027)">
                        <g id="Group_5-4" class="cls-4">
                            <path id="Path_3-4" d="M0 0h3.323v14.608H0z" class="cls-5" transform="rotate(-90 4.483 4.483)"/>
                            <path id="Path_4-4" d="M0 0h3.323v14.608H0z" class="cls-5" transform="translate(5.643)"/>
                        </g>
                    </g>
                    <g id="Group_841-5" class="cls-3" transform="translate(897 4362.027)">
                        <g id="Group_5-5" class="cls-4">
                            <path id="Path_3-5" d="M0 0h3.323v14.608H0z" class="cls-5" transform="rotate(-90 4.483 4.483)"/>
                            <path id="Path_4-5" d="M0 0h3.323v14.608H0z" class="cls-5" transform="translate(5.643)"/>
                        </g>
                    </g>
                    <g id="Group_841-6" class="cls-8" transform="translate(946 4362.027)">
                        <g id="Group_5-6" class="cls-4">
                            <path id="Path_3-6" d="M0 0h3.323v14.608H0z" class="cls-5" transform="rotate(-90 4.483 4.483)"/>
                            <path id="Path_4-6" d="M0 0h3.323v14.608H0z" class="cls-5" transform="translate(5.643)"/>
                        </g>
                    </g>
                    <g id="Group_841-7" class="cls-7" transform="translate(995 4362.027)">
                        <g id="Group_5-7" class="cls-4">
                            <path id="Path_3-7" d="M0 0h3.323v14.608H0z" class="cls-5" transform="rotate(-90 4.483 4.483)"/>
                            <path id="Path_4-7" d="M0 0h3.323v14.608H0z" class="cls-5" transform="translate(5.643)"/>
                        </g>
                    </g>
                    <g id="Group_841-8" class="cls-3" transform="translate(1044 4362.027)">
                        <g id="Group_5-8" class="cls-4">
                            <path id="Path_3-8" d="M0 0h3.323v14.608H0z" class="cls-5" transform="rotate(-90 4.483 4.483)"/>
                            <path id="Path_4-8" d="M0 0h3.323v14.608H0z" class="cls-5" transform="translate(5.643)"/>
                        </g>
                    </g>
                    <g id="Group_841-9" class="cls-3" transform="translate(1093 4362.027)">
                        <g id="Group_5-9" class="cls-4">
                            <path id="Path_3-9" d="M0 0h3.323v14.608H0z" class="cls-5" transform="rotate(-90 4.483 4.483)"/>
                            <path id="Path_4-9" d="M0 0h3.323v14.608H0z" class="cls-5" transform="translate(5.643)"/>
                        </g>
                    </g>
                    <g id="Group_841-10" class="cls-3" transform="translate(1142 4362.027)">
                        <g id="Group_5-10" class="cls-4">
                            <path id="Path_3-10" d="M0 0h3.323v14.608H0z" class="cls-5" transform="rotate(-90 4.483 4.483)"/>
                            <path id="Path_4-10" d="M0 0h3.323v14.608H0z" class="cls-5" transform="translate(5.643)"/>
                        </g>
                    </g>
                    <g id="Group_841-11" class="cls-8" transform="translate(1191 4362.027)">
                        <g id="Group_5-11" class="cls-4">
                            <path id="Path_3-11" d="M0 0h3.323v14.608H0z" class="cls-5" transform="rotate(-90 4.483 4.483)"/>
                            <path id="Path_4-11" d="M0 0h3.323v14.608H0z" class="cls-5" transform="translate(5.643)"/>
                        </g>
                    </g>
                    <g id="Group_841-12" class="cls-3" transform="translate(701 4411.027)">
                        <g id="Group_5-12" class="cls-4">
                            <path id="Path_3-12" d="M0 0h3.323v14.608H0z" class="cls-5" transform="rotate(-90 4.483 4.483)"/>
                            <path id="Path_4-12" d="M0 0h3.323v14.608H0z" class="cls-5" transform="translate(5.643)"/>
                        </g>
                    </g>
                    <g id="Group_841-13" class="cls-3" transform="translate(750 4411.027)">
                        <g id="Group_5-13" class="cls-4">
                            <path id="Path_3-13" d="M0 0h3.323v14.608H0z" class="cls-5" transform="rotate(-90 4.483 4.483)"/>
                            <path id="Path_4-13" d="M0 0h3.323v14.608H0z" class="cls-5" transform="translate(5.643)"/>
                        </g>
                    </g>
                    <g id="Group_841-14" class="cls-6" transform="translate(799 4411.027)">
                        <g id="Group_5-14" class="cls-4">
                            <path id="Path_3-14" d="M0 0h3.323v14.608H0z" class="cls-5" transform="rotate(-90 4.483 4.483)"/>
                            <path id="Path_4-14" d="M0 0h3.323v14.608H0z" class="cls-5" transform="translate(5.643)"/>
                        </g>
                    </g>
                    <g id="Group_841-15" class="cls-6" transform="translate(848 4411.027)">
                        <g id="Group_5-15" class="cls-4">
                            <path id="Path_3-15" d="M0 0h3.323v14.608H0z" class="cls-5" transform="rotate(-90 4.483 4.483)"/>
                            <path id="Path_4-15" d="M0 0h3.323v14.608H0z" class="cls-5" transform="translate(5.643)"/>
                        </g>
                    </g>
                    <g id="Group_841-16" class="cls-3" transform="translate(897 4411.027)">
                        <g id="Group_5-16" class="cls-4">
                            <path id="Path_3-16" d="M0 0h3.323v14.608H0z" class="cls-5" transform="rotate(-90 4.483 4.483)"/>
                            <path id="Path_4-16" d="M0 0h3.323v14.608H0z" class="cls-5" transform="translate(5.643)"/>
                        </g>
                    </g>
                    <g id="Group_841-17" class="cls-6" transform="translate(946 4411.027)">
                        <g id="Group_5-17" class="cls-4">
                            <path id="Path_3-17" d="M0 0h3.323v14.608H0z" class="cls-5" transform="rotate(-90 4.483 4.483)"/>
                            <path id="Path_4-17" d="M0 0h3.323v14.608H0z" class="cls-5" transform="translate(5.643)"/>
                        </g>
                    </g>
                    <g id="Group_841-18" class="cls-3" transform="translate(995 4411.027)">
                        <g id="Group_5-18" class="cls-4">
                            <path id="Path_3-18" d="M0 0h3.323v14.608H0z" class="cls-5" transform="rotate(-90 4.483 4.483)"/>
                            <path id="Path_4-18" d="M0 0h3.323v14.608H0z" class="cls-5" transform="translate(5.643)"/>
                        </g>
                    </g>
                    <g id="Group_841-19" class="cls-6" transform="translate(1044 4411.027)">
                        <g id="Group_5-19" class="cls-4">
                            <path id="Path_3-19" d="M0 0h3.323v14.608H0z" class="cls-5" transform="rotate(-90 4.483 4.483)"/>
                            <path id="Path_4-19" d="M0 0h3.323v14.608H0z" class="cls-5" transform="translate(5.643)"/>
                        </g>
                    </g>
                    <g id="Group_841-20" class="cls-3" transform="translate(1093 4411.027)">
                        <g id="Group_5-20" class="cls-4">
                            <path id="Path_3-20" d="M0 0h3.323v14.608H0z" class="cls-5" transform="rotate(-90 4.483 4.483)"/>
                            <path id="Path_4-20" d="M0 0h3.323v14.608H0z" class="cls-5" transform="translate(5.643)"/>
                        </g>
                    </g>
                    <g id="Group_841-21" class="cls-6" transform="translate(1142 4411.027)">
                        <g id="Group_5-21" class="cls-4">
                            <path id="Path_3-21" d="M0 0h3.323v14.608H0z" class="cls-5" transform="rotate(-90 4.483 4.483)"/>
                            <path id="Path_4-21" d="M0 0h3.323v14.608H0z" class="cls-5" transform="translate(5.643)"/>
                        </g>
                    </g>
                    <g id="Group_841-22" class="cls-3" transform="translate(1191 4411.027)">
                        <g id="Group_5-22" class="cls-4">
                            <path id="Path_3-22" d="M0 0h3.323v14.608H0z" class="cls-5" transform="rotate(-90 4.483 4.483)"/>
                            <path id="Path_4-22" d="M0 0h3.323v14.608H0z" class="cls-5" transform="translate(5.643)"/>
                        </g>
                    </g>
                    <g id="Group_841-23" class="cls-3" transform="translate(701 4460.027)">
                        <g id="Group_5-23" class="cls-4">
                            <path id="Path_3-23" d="M0 0h3.323v14.608H0z" class="cls-5" transform="rotate(-90 4.483 4.483)"/>
                            <path id="Path_4-23" d="M0 0h3.323v14.608H0z" class="cls-5" transform="translate(5.643)"/>
                        </g>
                    </g>
                    <g id="Group_841-24" class="cls-8" transform="translate(750 4460.027)">
                        <g id="Group_5-24" class="cls-4">
                            <path id="Path_3-24" d="M0 0h3.323v14.608H0z" class="cls-5" transform="rotate(-90 4.483 4.483)"/>
                            <path id="Path_4-24" d="M0 0h3.323v14.608H0z" class="cls-5" transform="translate(5.643)"/>
                        </g>
                    </g>
                    <g id="Group_841-25" class="cls-3" transform="translate(799 4460.027)">
                        <g id="Group_5-25" class="cls-4">
                            <path id="Path_3-25" d="M0 0h3.323v14.608H0z" class="cls-5" transform="rotate(-90 4.483 4.483)"/>
                            <path id="Path_4-25" d="M0 0h3.323v14.608H0z" class="cls-5" transform="translate(5.643)"/>
                        </g>
                    </g>
                    <g id="Group_841-26" class="cls-3" transform="translate(848 4460.027)">
                        <g id="Group_5-26" class="cls-4">
                            <path id="Path_3-26" d="M0 0h3.323v14.608H0z" class="cls-5" transform="rotate(-90 4.483 4.483)"/>
                            <path id="Path_4-26" d="M0 0h3.323v14.608H0z" class="cls-5" transform="translate(5.643)"/>
                        </g>
                    </g>
                    <g id="Group_841-27" class="cls-3" transform="translate(897 4460.027)">
                        <g id="Group_5-27" class="cls-4">
                            <path id="Path_3-27" d="M0 0h3.323v14.608H0z" class="cls-5" transform="rotate(-90 4.483 4.483)"/>
                            <path id="Path_4-27" d="M0 0h3.323v14.608H0z" class="cls-5" transform="translate(5.643)"/>
                        </g>
                    </g>
                    <g id="Group_841-28" class="cls-3" transform="translate(946 4460.027)">
                        <g id="Group_5-28" class="cls-4">
                            <path id="Path_3-28" d="M0 0h3.323v14.608H0z" class="cls-5" transform="rotate(-90 4.483 4.483)"/>
                            <path id="Path_4-28" d="M0 0h3.323v14.608H0z" class="cls-5" transform="translate(5.643)"/>
                        </g>
                    </g>
                    <g id="Group_841-29" class="cls-3" transform="translate(995 4460.027)">
                        <g id="Group_5-29" class="cls-4">
                            <path id="Path_3-29" d="M0 0h3.323v14.608H0z" class="cls-5" transform="rotate(-90 4.483 4.483)"/>
                            <path id="Path_4-29" d="M0 0h3.323v14.608H0z" class="cls-5" transform="translate(5.643)"/>
                        </g>
                    </g>
                    <g id="Group_841-30" class="cls-3" transform="translate(1044 4460.027)">
                        <g id="Group_5-30" class="cls-4">
                            <path id="Path_3-30" d="M0 0h3.323v14.608H0z" class="cls-5" transform="rotate(-90 4.483 4.483)"/>
                            <path id="Path_4-30" d="M0 0h3.323v14.608H0z" class="cls-5" transform="translate(5.643)"/>
                        </g>
                    </g>
                    <g id="Group_841-31" class="cls-8" transform="translate(1093 4460.027)">
                        <g id="Group_5-31" class="cls-4">
                            <path id="Path_3-31" d="M0 0h3.323v14.608H0z" class="cls-5" transform="rotate(-90 4.483 4.483)"/>
                            <path id="Path_4-31" d="M0 0h3.323v14.608H0z" class="cls-5" transform="translate(5.643)"/>
                        </g>
                    </g>
                    <g id="Group_841-32" class="cls-7" transform="translate(1142 4460.027)">
                        <g id="Group_5-32" class="cls-4">
                            <path id="Path_3-32" d="M0 0h3.323v14.608H0z" class="cls-5" transform="rotate(-90 4.483 4.483)"/>
                            <path id="Path_4-32" d="M0 0h3.323v14.608H0z" class="cls-5" transform="translate(5.643)"/>
                        </g>
                    </g>
                    <g id="Group_841-33" class="cls-6" transform="translate(1191 4460.027)">
                        <g id="Group_5-33" class="cls-4">
                            <path id="Path_3-33" d="M0 0h3.323v14.608H0z" class="cls-5" transform="rotate(-90 4.483 4.483)"/>
                            <path id="Path_4-33" d="M0 0h3.323v14.608H0z" class="cls-5" transform="translate(5.643)"/>
                        </g>
                    </g>
                    <g id="Group_841-34" class="cls-6" transform="translate(701 4509.027)">
                        <g id="Group_5-34" class="cls-4">
                            <path id="Path_3-34" d="M0 0h3.323v14.608H0z" class="cls-5" transform="rotate(-90 4.483 4.483)"/>
                            <path id="Path_4-34" d="M0 0h3.323v14.608H0z" class="cls-5" transform="translate(5.643)"/>
                        </g>
                    </g>
                    <g id="Group_841-35" class="cls-3" transform="translate(750 4509.027)">
                        <g id="Group_5-35" class="cls-4">
                            <path id="Path_3-35" d="M0 0h3.323v14.608H0z" class="cls-5" transform="rotate(-90 4.483 4.483)"/>
                            <path id="Path_4-35" d="M0 0h3.323v14.608H0z" class="cls-5" transform="translate(5.643)"/>
                        </g>
                    </g>
                    <g id="Group_841-36" class="cls-6" transform="translate(799 4509.027)">
                        <g id="Group_5-36" class="cls-4">
                            <path id="Path_3-36" d="M0 0h3.323v14.608H0z" class="cls-5" transform="rotate(-90 4.483 4.483)"/>
                            <path id="Path_4-36" d="M0 0h3.323v14.608H0z" class="cls-5" transform="translate(5.643)"/>
                        </g>
                    </g>
                    <g id="Group_841-37" class="cls-3" transform="translate(848 4509.027)">
                        <g id="Group_5-37" class="cls-4">
                            <path id="Path_3-37" d="M0 0h3.323v14.608H0z" class="cls-5" transform="rotate(-90 4.483 4.483)"/>
                            <path id="Path_4-37" d="M0 0h3.323v14.608H0z" class="cls-5" transform="translate(5.643)"/>
                        </g>
                    </g>
                    <g id="Group_841-38" class="cls-3" transform="translate(897 4509.027)">
                        <g id="Group_5-38" class="cls-4">
                            <path id="Path_3-38" d="M0 0h3.323v14.608H0z" class="cls-5" transform="rotate(-90 4.483 4.483)"/>
                            <path id="Path_4-38" d="M0 0h3.323v14.608H0z" class="cls-5" transform="translate(5.643)"/>
                        </g>
                    </g>
                    <g id="Group_841-39" class="cls-3" transform="translate(946 4509.027)">
                        <g id="Group_5-39" class="cls-4">
                            <path id="Path_3-39" d="M0 0h3.323v14.608H0z" class="cls-5" transform="rotate(-90 4.483 4.483)"/>
                            <path id="Path_4-39" d="M0 0h3.323v14.608H0z" class="cls-5" transform="translate(5.643)"/>
                        </g>
                    </g>
                    <g id="Group_841-40" class="cls-3" transform="translate(995 4509.027)">
                        <g id="Group_5-40" class="cls-4">
                            <path id="Path_3-40" d="M0 0h3.323v14.608H0z" class="cls-5" transform="rotate(-90 4.483 4.483)"/>
                            <path id="Path_4-40" d="M0 0h3.323v14.608H0z" class="cls-5" transform="translate(5.643)"/>
                        </g>
                    </g>
                    <g id="Group_841-41" class="cls-6" transform="translate(1044 4509.027)">
                        <g id="Group_5-41" class="cls-4">
                            <path id="Path_3-41" d="M0 0h3.323v14.608H0z" class="cls-5" transform="rotate(-90 4.483 4.483)"/>
                            <path id="Path_4-41" d="M0 0h3.323v14.608H0z" class="cls-5" transform="translate(5.643)"/>
                        </g>
                    </g>
                    <g id="Group_841-42" class="cls-3" transform="translate(1093 4509.027)">
                        <g id="Group_5-42" class="cls-4">
                            <path id="Path_3-42" d="M0 0h3.323v14.608H0z" class="cls-5" transform="rotate(-90 4.483 4.483)"/>
                            <path id="Path_4-42" d="M0 0h3.323v14.608H0z" class="cls-5" transform="translate(5.643)"/>
                        </g>
                    </g>
                    <g id="Group_841-43" class="cls-3" transform="translate(1142 4509.027)">
                        <g id="Group_5-43" class="cls-4">
                            <path id="Path_3-43" d="M0 0h3.323v14.608H0z" class="cls-5" transform="rotate(-90 4.483 4.483)"/>
                            <path id="Path_4-43" d="M0 0h3.323v14.608H0z" class="cls-5" transform="translate(5.643)"/>
                        </g>
                    </g>
                    <g id="Group_841-44" class="cls-3" transform="translate(1191 4509.027)">
                        <g id="Group_5-44" class="cls-4">
                            <path id="Path_3-44" d="M0 0h3.323v14.608H0z" class="cls-5" transform="rotate(-90 4.483 4.483)"/>
                            <path id="Path_4-44" d="M0 0h3.323v14.608H0z" class="cls-5" transform="translate(5.643)"/>
                        </g>
                    </g>
                    <g id="Group_841-45" class="cls-3" transform="translate(701 4558.027)">
                        <g id="Group_5-45" class="cls-4">
                            <path id="Path_3-45" d="M0 0h3.323v14.608H0z" class="cls-5" transform="rotate(-90 4.483 4.483)"/>
                            <path id="Path_4-45" d="M0 0h3.323v14.608H0z" class="cls-5" transform="translate(5.643)"/>
                        </g>
                    </g>
                    <g id="Group_841-46" class="cls-7" transform="translate(750 4558.027)">
                        <g id="Group_5-46" class="cls-4">
                            <path id="Path_3-46" d="M0 0h3.323v14.608H0z" class="cls-5" transform="rotate(-90 4.483 4.483)"/>
                            <path id="Path_4-46" d="M0 0h3.323v14.608H0z" class="cls-5" transform="translate(5.643)"/>
                        </g>
                    </g>
                    <g id="Group_841-47" class="cls-3" transform="translate(799 4558.027)">
                        <g id="Group_5-47" class="cls-4">
                            <path id="Path_3-47" d="M0 0h3.323v14.608H0z" class="cls-5" transform="rotate(-90 4.483 4.483)"/>
                            <path id="Path_4-47" d="M0 0h3.323v14.608H0z" class="cls-5" transform="translate(5.643)"/>
                        </g>
                    </g>
                    <g id="Group_841-48" class="cls-3" transform="translate(848 4558.027)">
                        <g id="Group_5-48" class="cls-4">
                            <path id="Path_3-48" d="M0 0h3.323v14.608H0z" class="cls-5" transform="rotate(-90 4.483 4.483)"/>
                            <path id="Path_4-48" d="M0 0h3.323v14.608H0z" class="cls-5" transform="translate(5.643)"/>
                        </g>
                    </g>
                    <g id="Group_841-49" class="cls-3" transform="translate(897 4558.027)">
                        <g id="Group_5-49" class="cls-4">
                            <path id="Path_3-49" d="M0 0h3.323v14.608H0z" class="cls-5" transform="rotate(-90 4.483 4.483)"/>
                            <path id="Path_4-49" d="M0 0h3.323v14.608H0z" class="cls-5" transform="translate(5.643)"/>
                        </g>
                    </g>
                    <g id="Group_841-50" class="cls-3" transform="translate(946 4558.027)">
                        <g id="Group_5-50" class="cls-4">
                            <path id="Path_3-50" d="M0 0h3.323v14.608H0z" class="cls-5" transform="rotate(-90 4.483 4.483)"/>
                            <path id="Path_4-50" d="M0 0h3.323v14.608H0z" class="cls-5" transform="translate(5.643)"/>
                        </g>
                    </g>
                    <g id="Group_841-51" class="cls-3" transform="translate(995 4558.027)">
                        <g id="Group_5-51" class="cls-4">
                            <path id="Path_3-51" d="M0 0h3.323v14.608H0z" class="cls-5" transform="rotate(-90 4.483 4.483)"/>
                            <path id="Path_4-51" d="M0 0h3.323v14.608H0z" class="cls-5" transform="translate(5.643)"/>
                        </g>
                    </g>
                    <g id="Group_841-52" class="cls-3" transform="translate(1044 4558.027)">
                        <g id="Group_5-52" class="cls-4">
                            <path id="Path_3-52" d="M0 0h3.323v14.608H0z" class="cls-5" transform="rotate(-90 4.483 4.483)"/>
                            <path id="Path_4-52" d="M0 0h3.323v14.608H0z" class="cls-5" transform="translate(5.643)"/>
                        </g>
                    </g>
                    <g id="Group_841-53" class="cls-3" transform="translate(1093 4558.027)">
                        <g id="Group_5-53" class="cls-4">
                            <path id="Path_3-53" d="M0 0h3.323v14.608H0z" class="cls-5" transform="rotate(-90 4.483 4.483)"/>
                            <path id="Path_4-53" d="M0 0h3.323v14.608H0z" class="cls-5" transform="translate(5.643)"/>
                        </g>
                    </g>
                    <g id="Group_841-54" class="cls-6" transform="translate(1142 4558.027)">
                        <g id="Group_5-54" class="cls-4">
                            <path id="Path_3-54" d="M0 0h3.323v14.608H0z" class="cls-5" transform="rotate(-90 4.483 4.483)"/>
                            <path id="Path_4-54" d="M0 0h3.323v14.608H0z" class="cls-5" transform="translate(5.643)"/>
                        </g>
                    </g>
                    <g id="Group_841-55" class="cls-3" transform="translate(1191 4558.027)">
                        <g id="Group_5-55" class="cls-4">
                            <path id="Path_3-55" d="M0 0h3.323v14.608H0z" class="cls-5" transform="rotate(-90 4.483 4.483)"/>
                            <path id="Path_4-55" d="M0 0h3.323v14.608H0z" class="cls-5" transform="translate(5.643)"/>
                        </g>
                    </g>
                    <g id="Group_841-56" class="cls-6" transform="translate(701 4607.027)">
                        <g id="Group_5-56" class="cls-4">
                            <path id="Path_3-56" d="M0 0h3.323v14.608H0z" class="cls-5" transform="rotate(-90 4.483 4.483)"/>
                            <path id="Path_4-56" d="M0 0h3.323v14.608H0z" class="cls-5" transform="translate(5.643)"/>
                        </g>
                    </g>
                    <g id="Group_841-57" class="cls-3" transform="translate(750 4607.027)">
                        <g id="Group_5-57" class="cls-4">
                            <path id="Path_3-57" d="M0 0h3.323v14.608H0z" class="cls-5" transform="rotate(-90 4.483 4.483)"/>
                            <path id="Path_4-57" d="M0 0h3.323v14.608H0z" class="cls-5" transform="translate(5.643)"/>
                        </g>
                    </g>
                    <g id="Group_841-58" class="cls-7" transform="translate(799 4607.027)">
                        <g id="Group_5-58" class="cls-4">
                            <path id="Path_3-58" d="M0 0h3.323v14.608H0z" class="cls-5" transform="rotate(-90 4.483 4.483)"/>
                            <path id="Path_4-58" d="M0 0h3.323v14.608H0z" class="cls-5" transform="translate(5.643)"/>
                        </g>
                    </g>
                    <g id="Group_841-59" class="cls-3" transform="translate(848 4607.027)">
                        <g id="Group_5-59" class="cls-4">
                            <path id="Path_3-59" d="M0 0h3.323v14.608H0z" class="cls-5" transform="rotate(-90 4.483 4.483)"/>
                            <path id="Path_4-59" d="M0 0h3.323v14.608H0z" class="cls-5" transform="translate(5.643)"/>
                        </g>
                    </g>
                    <g id="Group_841-60" class="cls-3" transform="translate(897 4607.027)">
                        <g id="Group_5-60" class="cls-4">
                            <path id="Path_3-60" d="M0 0h3.323v14.608H0z" class="cls-5" transform="rotate(-90 4.483 4.483)"/>
                            <path id="Path_4-60" d="M0 0h3.323v14.608H0z" class="cls-5" transform="translate(5.643)"/>
                        </g>
                    </g>
                    <g id="Group_841-61" class="cls-3" transform="translate(946 4607.027)">
                        <g id="Group_5-61" class="cls-4">
                            <path id="Path_3-61" d="M0 0h3.323v14.608H0z" class="cls-5" transform="rotate(-90 4.483 4.483)"/>
                            <path id="Path_4-61" d="M0 0h3.323v14.608H0z" class="cls-5" transform="translate(5.643)"/>
                        </g>
                    </g>
                    <g id="Group_841-62" class="cls-3" transform="translate(995 4607.027)">
                        <g id="Group_5-62" class="cls-4">
                            <path id="Path_3-62" d="M0 0h3.323v14.608H0z" class="cls-5" transform="rotate(-90 4.483 4.483)"/>
                            <path id="Path_4-62" d="M0 0h3.323v14.608H0z" class="cls-5" transform="translate(5.643)"/>
                        </g>
                    </g>
                    <g id="Group_841-63" class="cls-6" transform="translate(1044 4607.027)">
                        <g id="Group_5-63" class="cls-4">
                            <path id="Path_3-63" d="M0 0h3.323v14.608H0z" class="cls-5" transform="rotate(-90 4.483 4.483)"/>
                            <path id="Path_4-63" d="M0 0h3.323v14.608H0z" class="cls-5" transform="translate(5.643)"/>
                        </g>
                    </g>
                    <g id="Group_841-64" class="cls-3" transform="translate(1093 4607.027)">
                        <g id="Group_5-64" class="cls-4">
                            <path id="Path_3-64" d="M0 0h3.323v14.608H0z" class="cls-5" transform="rotate(-90 4.483 4.483)"/>
                            <path id="Path_4-64" d="M0 0h3.323v14.608H0z" class="cls-5" transform="translate(5.643)"/>
                        </g>
                    </g>
                    <g id="Group_841-65" class="cls-3" transform="translate(1142 4607.027)">
                        <g id="Group_5-65" class="cls-4">
                            <path id="Path_3-65" d="M0 0h3.323v14.608H0z" class="cls-5" transform="rotate(-90 4.483 4.483)"/>
                            <path id="Path_4-65" d="M0 0h3.323v14.608H0z" class="cls-5" transform="translate(5.643)"/>
                        </g>
                    </g>
                    <g id="Group_841-66" class="cls-3" transform="translate(1191 4607.027)">
                        <g id="Group_5-66" class="cls-4">
                            <path id="Path_3-66" d="M0 0h3.323v14.608H0z" class="cls-5" transform="rotate(-90 4.483 4.483)"/>
                            <path id="Path_4-66" d="M0 0h3.323v14.608H0z" class="cls-5" transform="translate(5.643)"/>
                        </g>
                    </g>
                    <g id="Group_841-67" class="cls-3" transform="translate(701 4656.027)">
                        <g id="Group_5-67" class="cls-4">
                            <path id="Path_3-67" d="M0 0h3.323v14.608H0z" class="cls-5" transform="rotate(-90 4.483 4.483)"/>
                            <path id="Path_4-67" d="M0 0h3.323v14.608H0z" class="cls-5" transform="translate(5.643)"/>
                        </g>
                    </g>
                    <g id="Group_841-68" class="cls-8" transform="translate(750 4656.027)">
                        <g id="Group_5-68" class="cls-4">
                            <path id="Path_3-68" d="M0 0h3.323v14.608H0z" class="cls-5" transform="rotate(-90 4.483 4.483)"/>
                            <path id="Path_4-68" d="M0 0h3.323v14.608H0z" class="cls-5" transform="translate(5.643)"/>
                        </g>
                    </g>
                    <g id="Group_841-69" class="cls-3" transform="translate(799 4656.027)">
                        <g id="Group_5-69" class="cls-4">
                            <path id="Path_3-69" d="M0 0h3.323v14.608H0z" class="cls-5" transform="rotate(-90 4.483 4.483)"/>
                            <path id="Path_4-69" d="M0 0h3.323v14.608H0z" class="cls-5" transform="translate(5.643)"/>
                        </g>
                    </g>
                    <g id="Group_841-70" class="cls-6" transform="translate(848 4656.027)">
                        <g id="Group_5-70" class="cls-4">
                            <path id="Path_3-70" d="M0 0h3.323v14.608H0z" class="cls-5" transform="rotate(-90 4.483 4.483)"/>
                            <path id="Path_4-70" d="M0 0h3.323v14.608H0z" class="cls-5" transform="translate(5.643)"/>
                        </g>
                    </g>
                    <g id="Group_841-71" class="cls-3" transform="translate(897 4656.027)">
                        <g id="Group_5-71" class="cls-4">
                            <path id="Path_3-71" d="M0 0h3.323v14.608H0z" class="cls-5" transform="rotate(-90 4.483 4.483)"/>
                            <path id="Path_4-71" d="M0 0h3.323v14.608H0z" class="cls-5" transform="translate(5.643)"/>
                        </g>
                    </g>
                    <g id="Group_841-72" class="cls-3" transform="translate(946 4656.027)">
                        <g id="Group_5-72" class="cls-4">
                            <path id="Path_3-72" d="M0 0h3.323v14.608H0z" class="cls-5" transform="rotate(-90 4.483 4.483)"/>
                            <path id="Path_4-72" d="M0 0h3.323v14.608H0z" class="cls-5" transform="translate(5.643)"/>
                        </g>
                    </g>
                    <g id="Group_841-73" class="cls-3" transform="translate(995 4656.027)">
                        <g id="Group_5-73" class="cls-4">
                            <path id="Path_3-73" d="M0 0h3.323v14.608H0z" class="cls-5" transform="rotate(-90 4.483 4.483)"/>
                            <path id="Path_4-73" d="M0 0h3.323v14.608H0z" class="cls-5" transform="translate(5.643)"/>
                        </g>
                    </g>
                    <g id="Group_841-74" class="cls-3" transform="translate(1044 4656.027)">
                        <g id="Group_5-74" class="cls-4">
                            <path id="Path_3-74" d="M0 0h3.323v14.608H0z" class="cls-5" transform="rotate(-90 4.483 4.483)"/>
                            <path id="Path_4-74" d="M0 0h3.323v14.608H0z" class="cls-5" transform="translate(5.643)"/>
                        </g>
                    </g>
                    <g id="Group_841-75" class="cls-6" transform="translate(1093 4656.027)">
                        <g id="Group_5-75" class="cls-4">
                            <path id="Path_3-75" d="M0 0h3.323v14.608H0z" class="cls-5" transform="rotate(-90 4.483 4.483)"/>
                            <path id="Path_4-75" d="M0 0h3.323v14.608H0z" class="cls-5" transform="translate(5.643)"/>
                        </g>
                    </g>
                    <g id="Group_841-76" class="cls-6" transform="translate(1142 4656.027)">
                        <g id="Group_5-76" class="cls-4">
                            <path id="Path_3-76" d="M0 0h3.323v14.608H0z" class="cls-5" transform="rotate(-90 4.483 4.483)"/>
                            <path id="Path_4-76" d="M0 0h3.323v14.608H0z" class="cls-5" transform="translate(5.643)"/>
                        </g>
                    </g>
                    <g id="Group_841-77" class="cls-3" transform="translate(1191 4656.027)">
                        <g id="Group_5-77" class="cls-4">
                            <path id="Path_3-77" d="M0 0h3.323v14.608H0z" class="cls-5" transform="rotate(-90 4.483 4.483)"/>
                            <path id="Path_4-77" d="M0 0h3.323v14.608H0z" class="cls-5" transform="translate(5.643)"/>
                        </g>
                    </g>
                    <g id="Group_841-78" class="cls-3" transform="translate(701 4705.027)">
                        <g id="Group_5-78" class="cls-4">
                            <path id="Path_3-78" d="M0 0h3.323v14.608H0z" class="cls-5" transform="rotate(-90 4.483 4.483)"/>
                            <path id="Path_4-78" d="M0 0h3.323v14.608H0z" class="cls-5" transform="translate(5.643)"/>
                        </g>
                    </g>
                    <g id="Group_841-79" class="cls-6" transform="translate(750 4705.027)">
                        <g id="Group_5-79" class="cls-4">
                            <path id="Path_3-79" d="M0 0h3.323v14.608H0z" class="cls-5" transform="rotate(-90 4.483 4.483)"/>
                            <path id="Path_4-79" d="M0 0h3.323v14.608H0z" class="cls-5" transform="translate(5.643)"/>
                        </g>
                    </g>
                    <g id="Group_841-80" class="cls-7" transform="translate(799 4705.027)">
                        <g id="Group_5-80" class="cls-4">
                            <path id="Path_3-80" d="M0 0h3.323v14.608H0z" class="cls-5" transform="rotate(-90 4.483 4.483)"/>
                            <path id="Path_4-80" d="M0 0h3.323v14.608H0z" class="cls-5" transform="translate(5.643)"/>
                        </g>
                    </g>
                    <g id="Group_841-81" class="cls-8" transform="translate(848 4705.027)">
                        <g id="Group_5-81" class="cls-4">
                            <path id="Path_3-81" d="M0 0h3.323v14.608H0z" class="cls-5" transform="rotate(-90 4.483 4.483)"/>
                            <path id="Path_4-81" d="M0 0h3.323v14.608H0z" class="cls-5" transform="translate(5.643)"/>
                        </g>
                    </g>
                    <g id="Group_841-82" class="cls-6" transform="translate(897 4705.027)">
                        <g id="Group_5-82" class="cls-4">
                            <path id="Path_3-82" d="M0 0h3.323v14.608H0z" class="cls-5" transform="rotate(-90 4.483 4.483)"/>
                            <path id="Path_4-82" d="M0 0h3.323v14.608H0z" class="cls-5" transform="translate(5.643)"/>
                        </g>
                    </g>
                    <g id="Group_841-83" class="cls-3" transform="translate(946 4705.027)">
                        <g id="Group_5-83" class="cls-4">
                            <path id="Path_3-83" d="M0 0h3.323v14.608H0z" class="cls-5" transform="rotate(-90 4.483 4.483)"/>
                            <path id="Path_4-83" d="M0 0h3.323v14.608H0z" class="cls-5" transform="translate(5.643)"/>
                        </g>
                    </g>
                    <g id="Group_841-84" class="cls-6" transform="translate(995 4705.027)">
                        <g id="Group_5-84" class="cls-4">
                            <path id="Path_3-84" d="M0 0h3.323v14.608H0z" class="cls-5" transform="rotate(-90 4.483 4.483)"/>
                            <path id="Path_4-84" d="M0 0h3.323v14.608H0z" class="cls-5" transform="translate(5.643)"/>
                        </g>
                    </g>
                    <g id="Group_841-85" class="cls-6" transform="translate(1044 4705.027)">
                        <g id="Group_5-85" class="cls-4">
                            <path id="Path_3-85" d="M0 0h3.323v14.608H0z" class="cls-5" transform="rotate(-90 4.483 4.483)"/>
                            <path id="Path_4-85" d="M0 0h3.323v14.608H0z" class="cls-5" transform="translate(5.643)"/>
                        </g>
                    </g>
                    <g id="Group_841-86" class="cls-3" transform="translate(1093 4705.027)">
                        <g id="Group_5-86" class="cls-4">
                            <path id="Path_3-86" d="M0 0h3.323v14.608H0z" class="cls-5" transform="rotate(-90 4.483 4.483)"/>
                            <path id="Path_4-86" d="M0 0h3.323v14.608H0z" class="cls-5" transform="translate(5.643)"/>
                        </g>
                    </g>
                    <g id="Group_841-87" class="cls-3" transform="translate(1142 4705.027)">
                        <g id="Group_5-87" class="cls-4">
                            <path id="Path_3-87" d="M0 0h3.323v14.608H0z" class="cls-5" transform="rotate(-90 4.483 4.483)"/>
                            <path id="Path_4-87" d="M0 0h3.323v14.608H0z" class="cls-5" transform="translate(5.643)"/>
                        </g>
                    </g>
                    <g id="Group_841-88" class="cls-8" transform="translate(1191 4705.027)">
                        <g id="Group_5-88" class="cls-4">
                            <path id="Path_3-88" d="M0 0h3.323v14.608H0z" class="cls-5" transform="rotate(-90 4.483 4.483)"/>
                            <path id="Path_4-88" d="M0 0h3.323v14.608H0z" class="cls-5" transform="translate(5.643)"/>
                        </g>
                    </g>
                    <g id="Group_841-89" class="cls-3" transform="translate(701 4754.027)">
                        <g id="Group_5-89" class="cls-4">
                            <path id="Path_3-89" d="M0 0h3.323v14.608H0z" class="cls-5" transform="rotate(-90 4.483 4.483)"/>
                            <path id="Path_4-89" d="M0 0h3.323v14.608H0z" class="cls-5" transform="translate(5.643)"/>
                        </g>
                    </g>
                    <g id="Group_841-90" class="cls-6" transform="translate(750 4754.027)">
                        <g id="Group_5-90" class="cls-4">
                            <path id="Path_3-90" d="M0 0h3.323v14.608H0z" class="cls-5" transform="rotate(-90 4.483 4.483)"/>
                            <path id="Path_4-90" d="M0 0h3.323v14.608H0z" class="cls-5" transform="translate(5.643)"/>
                        </g>
                    </g>
                    <g id="Group_841-91" class="cls-3" transform="translate(799 4754.027)">
                        <g id="Group_5-91" class="cls-4">
                            <path id="Path_3-91" d="M0 0h3.323v14.608H0z" class="cls-5" transform="rotate(-90 4.483 4.483)"/>
                            <path id="Path_4-91" d="M0 0h3.323v14.608H0z" class="cls-5" transform="translate(5.643)"/>
                        </g>
                    </g>
                    <g id="Group_841-92" class="cls-6" transform="translate(848 4754.027)">
                        <g id="Group_5-92" class="cls-4">
                            <path id="Path_3-92" d="M0 0h3.323v14.608H0z" class="cls-5" transform="rotate(-90 4.483 4.483)"/>
                            <path id="Path_4-92" d="M0 0h3.323v14.608H0z" class="cls-5" transform="translate(5.643)"/>
                        </g>
                    </g>
                    <g id="Group_841-93" class="cls-3" transform="translate(897 4754.027)">
                        <g id="Group_5-93" class="cls-4">
                            <path id="Path_3-93" d="M0 0h3.323v14.608H0z" class="cls-5" transform="rotate(-90 4.483 4.483)"/>
                            <path id="Path_4-93" d="M0 0h3.323v14.608H0z" class="cls-5" transform="translate(5.643)"/>
                        </g>
                    </g>
                    <g id="Group_841-94" class="cls-3" transform="translate(946 4754.027)">
                        <g id="Group_5-94" class="cls-4">
                            <path id="Path_3-94" d="M0 0h3.323v14.608H0z" class="cls-5" transform="rotate(-90 4.483 4.483)"/>
                            <path id="Path_4-94" d="M0 0h3.323v14.608H0z" class="cls-5" transform="translate(5.643)"/>
                        </g>
                    </g>
                    <g id="Group_841-95" class="cls-3" transform="translate(995 4754.027)">
                        <g id="Group_5-95" class="cls-4">
                            <path id="Path_3-95" d="M0 0h3.323v14.608H0z" class="cls-5" transform="rotate(-90 4.483 4.483)"/>
                            <path id="Path_4-95" d="M0 0h3.323v14.608H0z" class="cls-5" transform="translate(5.643)"/>
                        </g>
                    </g>
                    <g id="Group_841-96" class="cls-3" transform="translate(1044 4754.027)">
                        <g id="Group_5-96" class="cls-4">
                            <path id="Path_3-96" d="M0 0h3.323v14.608H0z" class="cls-5" transform="rotate(-90 4.483 4.483)"/>
                            <path id="Path_4-96" d="M0 0h3.323v14.608H0z" class="cls-5" transform="translate(5.643)"/>
                        </g>
                    </g>
                    <g id="Group_841-97" class="cls-6" transform="translate(1093 4754.027)">
                        <g id="Group_5-97" class="cls-4">
                            <path id="Path_3-97" d="M0 0h3.323v14.608H0z" class="cls-5" transform="rotate(-90 4.483 4.483)"/>
                            <path id="Path_4-97" d="M0 0h3.323v14.608H0z" class="cls-5" transform="translate(5.643)"/>
                        </g>
                    </g>
                    <g id="Group_841-98" class="cls-6" transform="translate(1142 4754.027)">
                        <g id="Group_5-98" class="cls-4">
                            <path id="Path_3-98" d="M0 0h3.323v14.608H0z" class="cls-5" transform="rotate(-90 4.483 4.483)"/>
                            <path id="Path_4-98" d="M0 0h3.323v14.608H0z" class="cls-5" transform="translate(5.643)"/>
                        </g>
                    </g>
                    <g id="Group_841-99" class="cls-3" transform="translate(1191 4754.027)">
                        <g id="Group_5-99" class="cls-4">
                            <path id="Path_3-99" d="M0 0h3.323v14.608H0z" class="cls-5" transform="rotate(-90 4.483 4.483)"/>
                            <path id="Path_4-99" d="M0 0h3.323v14.608H0z" class="cls-5" transform="translate(5.643)"/>
                        </g>
                    </g>
                </g>
            </g>
            <g id="algorithm_1_" transform="translate(849 4464)">
                <g id="Group_835" transform="translate(13.457 99.236)">
                    <g id="Group_833" transform="translate(174.924)">
                        <path id="Path_461" d="M466.911 253.812a3.046 3.046 0 0 1-3.046-3.046V247.4a3.046 3.046 0 1 1 6.092 0v3.364a3.046 3.046 0 0 1-3.046 3.048z" class="cls-9" transform="translate(-463.865 -244.356)"/>
                    </g>
                    <g id="Group_834">
                        <path id="Path_462" d="M36.182 253.812a3.046 3.046 0 0 1-3.046-3.046V247.4a3.046 3.046 0 0 1 6.092 0v3.364a3.046 3.046 0 0 1-3.046 3.048z" class="cls-9" transform="translate(-33.136 -244.356)"/>
                    </g>
                </g>
                <g id="Group_836">
                    <path id="Path_463" d="M204.884 87.462h-26.912a3.046 3.046 0 0 0-3.046 3.046v10.411h-27.548V64.861l9.122-9.122a16.522 16.522 0 0 0 20.981-1.951 16.5 16.5 0 1 0-25.288-2.356l-9.12 9.12h-36.062V33h10.41a3.046 3.046 0 0 0 3.046-3.046V3.046A3.046 3.046 0 0 0 117.422 0H90.51a3.046 3.046 0 0 0-3.046 3.046v26.912A3.046 3.046 0 0 0 90.51 33h10.409v27.552H90.51a3.046 3.046 0 0 0 0 6.092h50.776v74.642H66.644v-37.313-.008V66.644h11.683a3.046 3.046 0 1 0 0-6.092H64.859l-9.118-9.118a16.5 16.5 0 1 0-4.31 4.3l9.121 9.121v36.059H33V90.508a3.046 3.046 0 0 0-3.046-3.046H3.047A3.046 3.046 0 0 0 0 90.508v26.912a3.046 3.046 0 0 0 3.046 3.046h26.913A3.046 3.046 0 0 0 33 117.42v-10.41h27.552v36.06l-9.122 9.122a16.527 16.527 0 0 0-20.981 1.951 16.5 16.5 0 1 0 25.289 2.357l9.123-9.123h36.059v27.549H90.509a3.046 3.046 0 0 0-3.046 3.046v26.912a3.046 3.046 0 0 0 3.046 3.046h26.912a3.046 3.046 0 0 0 3.046-3.046v-26.912a3.046 3.046 0 0 0-3.046-3.046h-10.41v-27.549h36.057l9.123 9.123a16.478 16.478 0 1 0 4.3-4.31l-9.119-9.119V107.01h27.548v10.41a3.046 3.046 0 0 0 3.046 3.046h26.912a3.046 3.046 0 0 0 3.046-3.046V90.508a3.045 3.045 0 0 0-3.04-3.046zM93.555 6.092h20.82v20.82H93.556V6.092zM6.093 114.374v-20.82h20.82v20.816H6.093zM34.758 49.48a10.41 10.41 0 1 1 14.722 0 10.342 10.342 0 0 1-14.722 0zm14.721 123.693a10.41 10.41 0 1 1-14.722-14.722 10.41 10.41 0 1 1 14.722 14.722zm64.9 28.665H93.555v-20.82h20.82zM158.45 34.759a10.41 10.41 0 1 1 14.722 14.722 10.422 10.422 0 0 1-14.721 0 10.423 10.423 0 0 1-.001-14.722zm14.722 123.693a10.41 10.41 0 1 1-14.722 14.722 10.41 10.41 0 1 1 14.722-14.722zm28.666-44.077h-20.82V93.554h20.82z" class="cls-9" transform="translate(-.001)"/>
                    <path id="Path_464" d="M183.128 238.942l10.091 10.092a3.046 3.046 0 0 0 4.308-4.307l-7.937-7.939 7.937-7.937a3.046 3.046 0 0 0-4.307-4.308l-10.091 10.091a3.045 3.045 0 0 0-.001 4.308z" class="cls-9" transform="translate(-108.228 -132.824)"/>
                    <path id="Path_465" d="M290.809 249.033a3.046 3.046 0 0 0 4.307 0l10.091-10.091a3.046 3.046 0 0 0 0-4.307l-10.091-10.092a3.046 3.046 0 1 0-4.308 4.307l7.937 7.939-7.937 7.937a3.046 3.046 0 0 0 .001 4.307z" class="cls-9" transform="translate(-172.178 -132.823)"/>
                    <path id="Path_466" d="M234.978 249.925a3.044 3.044 0 0 0 2.537-1.357l13.455-20.184a3.046 3.046 0 0 0-5.069-3.379l-13.454 20.185a3.047 3.047 0 0 0 2.531 4.736z" class="cls-9" transform="translate(-137.744 -132.822)"/>
                    <path id="Path_467" d="M250.768 39.225a3.046 3.046 0 1 0 0-6.092H247.4a3.046 3.046 0 0 0 0 6.092z" class="cls-9" transform="translate(-145.122 -19.677)"/>
                    <path id="Path_468" d="M247.4 469.953h3.364a3.046 3.046 0 0 0 0-6.092H247.4a3.046 3.046 0 0 0 0 6.092z" class="cls-9" transform="translate(-145.122 -275.482)"/>
                    <path id="Path_469" d="M466.911 253.812a3.046 3.046 0 0 0 3.046-3.046V247.4a3.046 3.046 0 1 0-6.092 0v3.364a3.046 3.046 0 0 0 3.046 3.048z" class="cls-9" transform="translate(-275.484 -145.12)"/>
                    <path id="Path_470" d="M36.182 244.355a3.046 3.046 0 0 0-3.046 3.046v3.364a3.046 3.046 0 0 0 6.092 0V247.4a3.046 3.046 0 0 0-3.046-3.045z" class="cls-9" transform="translate(-19.679 -145.12)"/>
                </g>
            </g>
        </g>
    </g>
</svg>
