<svg xmlns="http://www.w3.org/2000/svg" width="553" height="640.443" viewBox="0 0 553 640.443">
    <defs>
        <clipPath id="clip-path">
            <path id="Rectangle_23" fill="#2b504f" d="M6 0h547v640H6a6 6 0 0 1-6-6V6a6 6 0 0 1 6-6z"/>
        </clipPath>
        <style>
            .cls-4{fill:none}.cls-5{fill:#304e69}.cls-6{opacity:.521}.cls-7{fill:#fff;opacity:.324}.cls-8,.cls-9{stroke:none}.cls-9{fill:#314f6a}
        </style>
    </defs>
    <g id="Group_558" transform="translate(-130 -99) translate(130 99)">
        <path id="Path_23" fill="#1f405d" d="M6 0h547v640.443H6a6.206 6.206 0 0 1-6-6.394V6.394A6.206 6.206 0 0 1 6 0z"/>
        <g id="Mask_Group_4" clip-path="url(#clip-path)">
            <g id="Group_136" transform="translate(103.652 17.514)">
                <g id="Path_26" class="cls-4">
                    <path d="M43.978.658l396.2 12.234c24.69.762 45.323 21.133 46.085 45.5l12.234 390.994c.762 24.366-18.635 43.5-43.324 42.737l-396.2-12.234c-24.69-.762-45.323-21.133-46.085-45.5L.653 43.4C-.109 19.03 19.288-.1 43.978.658z" class="cls-8" transform="rotate(51 220.783 462.881)"/>
                    <path d="M42.554 1.636c-5.79 0-11.348 1.11-16.52 3.297-5.004 2.117-9.44 5.15-13.188 9.016C5.28 21.757 1.304 32.204 1.653 43.364L13.887 434.36c.183 5.823 1.515 11.508 3.962 16.899 2.365 5.21 5.666 9.928 9.811 14.02 4.146 4.094 8.926 7.354 14.208 9.691 5.465 2.419 11.23 3.737 17.136 3.92l396.195 12.234c.47.014.925.022 1.393.022 5.79 0 11.348-1.11 16.52-3.298 5.004-2.116 9.44-5.15 13.187-9.016 7.568-7.808 11.543-18.254 11.194-29.415L485.26 58.422c-.182-5.823-1.515-11.509-3.962-16.9-2.365-5.21-5.666-9.928-9.811-14.02-4.146-4.093-8.926-7.354-14.208-9.69-5.465-2.42-11.23-3.738-17.136-3.92L43.947 1.658c-.47-.015-.925-.022-1.393-.022m0-1c.474 0 .946.007 1.424.022l396.195 12.234c24.69.763 45.323 21.133 46.085 45.499l12.235 390.994c.747 23.894-17.896 42.76-41.901 42.76-.474 0-.946-.008-1.424-.023L58.973 479.888c-24.69-.762-45.323-21.133-46.085-45.498L.654 43.395C-.094 19.501 18.549.636 42.554.636z" class="cls-9" transform="rotate(51 220.783 462.881)"/>
                </g>
                <g id="Path_21" class="cls-4">
                    <path d="M27.948.418l428.785 13.241c15.69.485 28.8 13.43 29.287 28.914l18.708 597.9c.484 15.484-11.842 27.644-27.532 27.159L48.411 654.388c-15.69-.485-28.8-13.43-29.287-28.914L.415 27.578C-.069 12.093 12.257-.066 27.948.418z" class="cls-8" transform="rotate(51 73.37 617.724)"/>
                    <path d="M27.043 1.404c-3.63 0-7.115.695-10.357 2.067-3.134 1.325-5.913 3.226-8.26 5.647-4.74 4.89-7.23 11.435-7.011 18.428l18.708 597.897c.114 3.652.95 7.218 2.485 10.6 1.485 3.27 3.557 6.232 6.16 8.801 2.603 2.57 5.604 4.617 8.92 6.085 3.43 1.517 7.048 2.345 10.753 2.46l428.786 13.24c.296.01.582.014.874.014 3.63 0 7.115-.696 10.356-2.067 3.135-1.326 5.914-3.226 8.261-5.648 4.74-4.89 7.23-11.434 7.011-18.427L485.021 42.604c-.115-3.652-.95-7.219-2.486-10.6-1.484-3.271-3.556-6.232-6.159-8.801-2.603-2.57-5.604-4.617-8.92-6.085-3.43-1.518-7.048-2.345-10.754-2.46L27.917 1.418c-.294-.01-.58-.014-.874-.014m0-1c.3 0 .601.005.905.014l428.785 13.24c15.69.485 28.803 13.43 29.287 28.915l18.708 597.896c.476 15.185-11.372 27.174-26.627 27.174-.301 0-.601-.005-.905-.014L48.41 654.388c-15.69-.485-28.802-13.43-29.286-28.914L.415 27.578C-.06 12.393 11.787.404 27.043.404z" class="cls-9" transform="rotate(51 73.37 617.724)"/>
                </g>
                <g id="Group_133" transform="translate(329.896 68.331)">
                    <path id="Path_24" d="M13.345 0c7.37 0 13.345 6.367 13.345 14.221s-5.974 14.222-13.345 14.222S0 22.076 0 14.221 5.975 0 13.345 0z" class="cls-5"/>
                    <g id="Group_5" class="cls-6" transform="translate(6.844 7.779)">
                        <path id="Path_3" d="M0 0h3.22v13.286H0z" class="cls-7" transform="rotate(-90 4.345 4.345)"/>
                        <path id="Path_4" d="M0 0h3.022v14.158H0z" class="cls-7" transform="translate(5.132)"/>
                    </g>
                </g>
                <g id="Group_134" transform="translate(59.922 541.295)">
                    <ellipse id="Ellipse_1" cx="8.909" cy="9.493" class="cls-5" rx="8.909" ry="9.493"/>
                    <g id="Group_5-2" class="cls-6" transform="translate(4.806 4.644)">
                        <path id="Path_3-2" d="M0 0h2.175v8.972H0z" class="cls-7" transform="rotate(-90 2.934 2.934)"/>
                        <path id="Path_4-2" d="M0 0h2.041v9.561H0z" class="cls-7" transform="translate(3.466)"/>
                    </g>
                </g>
                <g id="Group_135" transform="translate(418.543 232.814)">
                    <path id="Path_25" d="M8.909 0c4.92 0 8.909 4.25 8.909 9.493s-3.989 9.493-8.909 9.493S0 14.737 0 9.493 3.989 0 8.909 0z" class="cls-5"/>
                    <g id="Group_5-3" class="cls-6" transform="translate(4.37 5.154)">
                        <path id="Path_3-3" d="M0 0h2.175v8.972H0z" class="cls-7" transform="rotate(-90 2.934 2.934)"/>
                        <path id="Path_4-3" d="M0 0h2.041v9.561H0z" class="cls-7" transform="translate(3.466)"/>
                    </g>
                </g>
            </g>
        </g>
    </g>
</svg>
