<svg xmlns="http://www.w3.org/2000/svg" id="savannah" width="97.147" height="97.147" viewBox="0 0 97.147 97.147">
    <defs>
        <style>
            .cls-4{fill:#dff7fd}.cls-7{fill:#6e6f83}.cls-9{fill:#ec771b}.cls-10{fill:#c55732}.cls-11{fill:#a44e3e}.cls-12{fill:#1eeadf}.cls-13{fill:#00c7bc}.cls-14{fill:#00a297}.cls-15{fill:#4ab6ba}.cls-16{fill:#5deae0}
        </style>
    </defs>
    <path id="Path_286" fill="#92eaff" d="M136.758 32.436c-21.513 27.822-64.419 24.181-80.979-6.874l-3.389-6.357a48.538 48.538 0 0 1 84.368 13.23z" transform="translate(-42.411)"/>
    <g id="Group_500" transform="translate(38.963 24.441)">
        <path id="Path_287" fill="#63dbfa" d="M261.912 136.867a48.579 48.579 0 0 1-55.382 15.792A48.824 48.824 0 0 0 258.3 129a48.5 48.5 0 0 1 3.612 7.867z" transform="translate(-206.53 -129)"/>
    </g>
    <g id="Group_508" transform="translate(0 18.573)">
        <path id="Path_288" fill="#fff" d="M97.147 127.7a49.2 49.2 0 0 1-.708 8.331q-.347 2.034-.863 4.008-.364 1.4-.808 2.771H2.377q-.441-1.369-.808-2.771-.512-1.971-.861-4.008a48.144 48.144 0 0 1-.588-4.891Q0 129.437 0 127.7a48.651 48.651 0 0 1 9.94-29.556 9.964 9.964 0 0 1 5.766 5.5c2.941-3.091 7.59-3.036 11.132-.665a9.2 9.2 0 0 1 10.529-5.162 8.894 8.894 0 0 1 5.992 9.806 9.931 9.931 0 0 1 5.214-1.122 8.981 8.981 0 0 1 2.284.417 9.519 9.519 0 0 1 5.561 4.853c1.725-2.225 4.262-2.815 7.064-2.615a8.745 8.745 0 0 1 6.848 4.328c1.385-2.078 4.632-2.989 7.039-2.354a6.218 6.218 0 0 1 4.489 5.4c1.37-2.3 6.085-2.067 7.836-.038a8.334 8.334 0 0 1 4.544-5.055l.118-.053a48.906 48.906 0 0 1 2.787 15.845c.004.151.004.311.004.471z" transform="translate(0 -97.512)"/>
        <path id="Path_289" d="M304.761 165.884a49.018 49.018 0 0 1-.71 8.331q-.349 2.034-.867 4.008-.366 1.4-.811 2.771H256V144.68a9.045 9.045 0 0 1 2.293.417 9.545 9.545 0 0 1 5.583 4.853c1.731-2.225 4.278-2.815 7.091-2.615a8.782 8.782 0 0 1 6.874 4.328c1.39-2.078 4.649-2.989 7.067-2.354a6.224 6.224 0 0 1 4.507 5.4c1.375-2.3 6.109-2.067 7.867-.038a8.345 8.345 0 0 1 4.562-5.055l.118-.053a48.168 48.168 0 0 1 1.648 5.756c.036.149.067.3.1.448a48.872 48.872 0 0 1 1.051 9.642v.475z" class="cls-4" transform="translate(-207.615 -135.696)"/>
        <path id="Path_290" d="M97.147 163.342a49.2 49.2 0 0 1-.708 8.331q-.347 2.034-.863 4.008-.364 1.4-.808 2.771a48.128 48.128 0 0 1-2.148 5.469H4.527a48.5 48.5 0 0 1-2.15-5.469q-.441-1.369-.808-2.771-.512-1.971-.861-4.008a48.146 48.146 0 0 1-.588-4.891q-.12-1.7-.12-3.44a48.671 48.671 0 0 1 5.117-21.8 12.1 12.1 0 0 1 8.214 5.238 8.524 8.524 0 0 1 6.176-2.863 9.673 9.673 0 0 1 6.76 2.674 6.462 6.462 0 0 1 7.239-4.375 6.711 6.711 0 0 1 5.03 7.023 4.674 4.674 0 0 1 5.417 2.021 8.443 8.443 0 0 1 4.62-2.128 5.418 5.418 0 0 1 2.123.2 7.334 7.334 0 0 1 4.838 5.048 8.22 8.22 0 0 1 14.966 2.267 4.687 4.687 0 0 1 4-3.072 6.659 6.659 0 0 1 5 1.693 10.855 10.855 0 0 1 2.947 4.507 5.787 5.787 0 0 1 3.892-3.592 6 6 0 0 1 5.248 1.291 7.036 7.036 0 0 1 4.419-4.7c.036.149.066.3.1.448a49.048 49.048 0 0 1 1.047 9.642c-.006.158-.006.318-.006.478z" class="cls-4" transform="translate(0 -133.154)"/>
        <path id="Path_291" fill="#c5f2f9" d="M304.761 195.485a49.017 49.017 0 0 1-.71 8.331q-.349 2.034-.867 4.008-.366 1.4-.811 2.771a48.024 48.024 0 0 1-2.156 5.468H256v-34.79a5.458 5.458 0 0 1 2.131.2 7.347 7.347 0 0 1 4.857 5.048 8.263 8.263 0 0 1 15.023 2.267 4.7 4.7 0 0 1 4.011-3.072 6.7 6.7 0 0 1 5.017 1.693 10.851 10.851 0 0 1 2.961 4.508 5.8 5.8 0 0 1 3.907-3.592 6.044 6.044 0 0 1 5.269 1.291 7.047 7.047 0 0 1 4.436-4.7c.036.149.067.3.1.448a48.873 48.873 0 0 1 1.047 9.636c.002.164.002.325.002.485z" transform="translate(-207.615 -165.433)"/>
        <path id="Path_292" fill="#7e7f92" d="M205.449 201.855a49.069 49.069 0 0 1-.448 6.627c-.078.571-.166 1.141-.263 1.7q-.349 2.034-.867 4.008-.366 1.4-.811 2.771-.566 1.746-1.261 3.43a92.393 92.393 0 0 1-68.477-4.929l23.367-14.522 4.086-2.539a2.7 2.7 0 0 1 3.248.3l4.66 4.299 20.984-13.455a2.692 2.692 0 0 1 3.251.259l12.522 11.209c0 .122 0 .242.006.364.003.158.003.318.003.478z" transform="translate(-108.302 -171.819)"/>
        <path id="Path_293" d="M304.761 201.855a49.081 49.081 0 0 1-.448 6.627c-.078.571-.166 1.141-.263 1.7q-.349 2.034-.867 4.008-.366 1.4-.811 2.771-.566 1.746-1.261 3.43A92.356 92.356 0 0 1 256 223.18v-22.237l4.086-2.539a2.7 2.7 0 0 1 3.247.3L268 203l20.984-13.455a2.692 2.692 0 0 1 3.251.259l12.522 11.209c0 .122 0 .242.006.364-.002.158-.002.318-.002.478z" class="cls-7" transform="translate(-207.615 -171.819)"/>
        <path id="Path_294" d="M240.312 251.026c-.078.571-.166 1.141-.263 1.7q-.348 2.034-.867 4.008-.366 1.4-.811 2.771-.566 1.746-1.261 3.431a92.386 92.386 0 0 1-60.169-1.381L192 251.984l1.983-1.261a4.283 4.283 0 0 1 5.326.587l4.246 4.246 21.173-13.234a4.279 4.279 0 0 1 4.918.267c2.373 1.869 6.299 4.966 10.666 8.437z" class="cls-7" transform="translate(-143.613 -214.405)"/>
        <path id="Path_295" fill="#605f74" d="M304.314 251.026c-.078.571-.166 1.141-.263 1.7q-.349 2.034-.867 4.008-.366 1.4-.811 2.771-.566 1.746-1.261 3.431A92.356 92.356 0 0 1 256 265.725v-13.741l1.983-1.261a4.283 4.283 0 0 1 5.326.587l4.246 4.246 21.173-13.234a4.279 4.279 0 0 1 4.918.267c2.374 1.869 6.3 4.966 10.668 8.437z" transform="translate(-207.615 -214.405)"/>
        <g id="Group_502" transform="translate(6.402 13.331)">
            <path id="Path_296" d="M54.5 244.379h-2.13l.114-3.569.14-4.385h1.621l.14 4.385z" class="cls-9" transform="translate(-48.794 -223.385)"/>
            <path id="Path_297" d="M59.2 244.379h-1.029v-7.953h.77l.14 4.385z" class="cls-10" transform="translate(-53.493 -223.385)"/>
            <path id="Path_298" d="M53.957 236.426v4.384h-.992l.14-4.384z" class="cls-10" transform="translate(-49.279 -223.385)"/>
            <path id="Path_299" d="M59.081 240.811h-.91v-4.385h.77z" class="cls-11" transform="translate(-53.493 -223.385)"/>
            <g id="Group_501">
                <path id="Path_300" d="M41.6 182.395a4.721 4.721 0 0 1-6.616 0 4.552 4.552 0 0 1-.877-5.316c.917-1.8 1.875-3.586 2.654-5.453l1.531-3.668 1.528 3.66c.781 1.87 1.74 3.655 2.657 5.461a4.551 4.551 0 0 1-.877 5.316z" class="cls-12" transform="translate(-33.611 -167.958)"/>
                <path id="Path_301" d="M52.046 182.395a4.7 4.7 0 0 1-3.308 1.353c-.567 0-1.135-.451-1.57-1.353a8.612 8.612 0 0 1-.4-5.386c.608-2.414 1.146-4.9 1.645-7.42l.323-1.631 1.528 3.66c.781 1.87 1.74 3.655 2.657 5.461a4.552 4.552 0 0 1-.875 5.316z" class="cls-13" transform="translate(-44.06 -167.958)"/>
                <path id="Path_302" d="M61.479 182.395a4.7 4.7 0 0 1-3.308 1.353v-15.79l1.528 3.66c.781 1.87 1.74 3.655 2.657 5.461a4.552 4.552 0 0 1-.878 5.315z" class="cls-14" transform="translate(-53.493 -167.958)"/>
            </g>
        </g>
        <g id="Group_504" transform="translate(17.808 18.173)">
            <path id="Path_303" d="M114.779 269.967h-2.13l.114-3.569.14-4.385h1.621l.14 4.385z" class="cls-9" transform="translate(-109.077 -248.973)"/>
            <path id="Path_304" d="M119.478 269.967h-1.024v-7.953h.77l.14 4.385z" class="cls-10" transform="translate(-113.776 -248.973)"/>
            <path id="Path_305" d="M114.24 262.014v4.386h-.992l.14-4.385z" class="cls-10" transform="translate(-109.562 -248.973)"/>
            <path id="Path_306" d="M119.364 266.4h-.91v-4.385h.77z" class="cls-11" transform="translate(-113.776 -248.973)"/>
            <g id="Group_503">
                <path id="Path_307" d="M101.88 207.983a4.721 4.721 0 0 1-6.616 0 4.552 4.552 0 0 1-.877-5.316c.917-1.8 1.875-3.586 2.654-5.453l1.531-3.668 1.528 3.66c.781 1.87 1.74 3.655 2.657 5.461a4.551 4.551 0 0 1-.877 5.316z" class="cls-12" transform="translate(-93.894 -193.546)"/>
                <path id="Path_308" d="M112.329 207.983a4.7 4.7 0 0 1-3.308 1.353c-.567 0-1.135-.451-1.569-1.353a8.612 8.612 0 0 1-.4-5.386c.608-2.414 1.146-4.9 1.645-7.42l.323-1.631 1.528 3.66c.781 1.87 1.74 3.655 2.657 5.461a4.552 4.552 0 0 1-.876 5.316z" class="cls-13" transform="translate(-104.343 -193.546)"/>
                <path id="Path_309" d="M121.762 207.983a4.7 4.7 0 0 1-3.308 1.353v-15.79l1.528 3.661c.781 1.87 1.74 3.655 2.657 5.461a4.552 4.552 0 0 1-.877 5.315z" class="cls-14" transform="translate(-113.776 -193.546)"/>
            </g>
        </g>
        <g id="Group_506" transform="translate(28.383 22.154)">
            <path id="Path_310" d="M170.536 291h-2.13l.114-3.569.14-4.384h1.621l.14 4.384z" class="cls-9" transform="translate(-164.834 -270.008)"/>
            <path id="Path_311" d="M175.235 291h-1.024v-7.954h.77l.14 4.384z" class="cls-10" transform="translate(-169.533 -270.008)"/>
            <path id="Path_312" d="M170 283.049v4.384h-1l.14-4.384z" class="cls-10" transform="translate(-165.318 -270.008)"/>
            <path id="Path_313" d="M175.121 287.434h-.91v-4.384h.77z" class="cls-11" transform="translate(-169.533 -270.008)"/>
            <g id="Group_505">
                <path id="Path_314" d="M157.636 229.019a4.721 4.721 0 0 1-6.616 0 4.552 4.552 0 0 1-.877-5.316c.917-1.8 1.875-3.586 2.654-5.453l1.531-3.668 1.528 3.661c.781 1.87 1.74 3.655 2.657 5.461a4.551 4.551 0 0 1-.877 5.315z" class="cls-12" transform="translate(-149.65 -214.582)"/>
                <path id="Path_315" d="M168.085 229.019a4.7 4.7 0 0 1-3.308 1.353c-.567 0-1.135-.451-1.57-1.353a8.612 8.612 0 0 1-.4-5.386c.608-2.414 1.146-4.9 1.645-7.419l.323-1.631 1.528 3.661c.781 1.87 1.74 3.655 2.657 5.461a4.551 4.551 0 0 1-.878 5.315z" class="cls-13" transform="translate(-160.099 -214.582)"/>
                <path id="Path_316" d="M177.518 229.019a4.7 4.7 0 0 1-3.308 1.353v-15.79l1.528 3.661c.781 1.87 1.74 3.655 2.657 5.461a4.551 4.551 0 0 1-.878 5.315z" class="cls-14" transform="translate(-169.532 -214.582)"/>
            </g>
        </g>
        <path id="Path_317" d="M93.5 261.044a48.648 48.648 0 0 1-44.779 30.222h-.15a48.639 48.639 0 0 1-42.92-25.915 48.82 48.82 0 0 1-4.083-10.507q-.512-1.971-.861-4.008a48.151 48.151 0 0 1-.588-4.891q-.12-1.7-.12-3.44 0-1.6.1-3.175a161.055 161.055 0 0 0 48.464 18.7 162.506 162.506 0 0 0 33.294 3.429q5.868 0 11.635-.413z" class="cls-15" transform="translate(0 -212.693)"/>
        <path id="Path_318" d="M301.11 340.515a48.807 48.807 0 0 1-44.959 30.222H256V337.5a163.791 163.791 0 0 0 33.428 3.429q5.891 0 11.682-.414z" class="cls-16" transform="translate(-207.615 -292.164)"/>
        <path id="Path_319" d="M104.384 358.778a48.762 48.762 0 0 1-5.238 6.9q-.751.826-1.538 1.615a48.3 48.3 0 0 1-34.176 14.28h-.15a48.131 48.131 0 0 1-22.242-5.409 48.833 48.833 0 0 1-20.658-20.506 47.881 47.881 0 0 1-2.2-4.771 183.966 183.966 0 0 0 45.1 9.249q7.137.552 14.417.554h.571q1.889-.006 3.77-.051 2.444-.054 4.872-.175 8.85-.431 17.472-1.686z" class="cls-16" transform="translate(-14.717 -303.004)"/>
        <path id="Path_320" d="M297.281 392.3a48.816 48.816 0 0 1-41.131 22.8H256v-21.438q7.169.552 14.48.554h.573a187.553 187.553 0 0 0 26.228-1.916z" class="cls-15" transform="translate(-207.615 -336.526)"/>
        <path id="Path_321" fill="#20c7bc" d="M195.535 402.375a48.615 48.615 0 0 1-34.325 14.28h-.15a48.51 48.51 0 0 1-22.339-5.409 4.762 4.762 0 0 1 2.882-.482c1.514.164 3.133.893 4.339-.67.832-1.076.577-2.743 1.482-3.762 1.08-1.213 3.036-.783 4.577-.263s3.514.918 4.56-.324.411-3.371 1.552-4.524a2.835 2.835 0 0 1 2.947-.4 8.115 8.115 0 0 1 1.331.552c1.36.7 2.992 1.512 4.329.766 1.933-1.078 1.516-4.487 3.528-5.411 1.979-.909 4.057 1.53 6.225 1.312 1.4-.139 2.417-1.329 3.421-2.316l.006-.006c1-.985 2.442-1.888 3.729-1.326a2.413 2.413 0 0 1 1.164 1.15c.8 1.493.8 3.785 2.32 4.623 2.053 1.129 4.787-1.509 6.8-.312a4.854 4.854 0 0 1 1.621 2.52z" transform="translate(-112.673 -338.082)"/>
        <g id="Group_507" transform="translate(48.385 56.139)">
            <path id="Path_322" d="M290.476 402.374a48.615 48.615 0 0 1-34.325 14.28H256v-15.832a8.119 8.119 0 0 1 1.331.552c1.36.7 2.992 1.512 4.329.766 1.933-1.078 1.516-4.488 3.528-5.411 1.979-.909 4.057 1.53 6.225 1.312 1.4-.139 2.417-1.33 3.421-2.316s2.446-1.9 3.735-1.331c2.129.928 1.449 4.653 3.484 5.773 2.053 1.13 4.787-1.509 6.8-.312a4.853 4.853 0 0 1 1.623 2.519z" class="cls-14" transform="translate(-256 -394.22)"/>
            <path id="Path_323" d="M290.476 402.374a48.615 48.615 0 0 1-34.325 14.28H256v-15.832a8.119 8.119 0 0 1 1.331.552c1.36.7 2.992 1.512 4.329.766 1.933-1.078 1.516-4.488 3.528-5.411 1.979-.909 4.057 1.53 6.225 1.312 1.4-.139 2.417-1.33 3.421-2.316s2.446-1.9 3.735-1.331c2.129.928 1.449 4.653 3.484 5.773 2.053 1.13 4.787-1.509 6.8-.312a4.853 4.853 0 0 1 1.623 2.519z" class="cls-14" transform="translate(-256 -394.22)"/>
        </g>
    </g>
    <g id="Group_509" transform="translate(10.219 72.145)">
        <circle id="Ellipse_39" cx="1.79" cy="1.79" r="1.79" class="cls-14" transform="rotate(-74.157 2.279 1.722)"/>
        <circle id="Ellipse_40" cx="1.528" cy="1.528" r="1.528" class="cls-14" transform="rotate(-76.76 21.576 -11.773)"/>
        <circle id="Ellipse_41" cx="1.79" cy="1.79" r="1.79" class="cls-14" transform="rotate(-76.645 10.038 1.62)"/>
        <path id="Path_324" d="M145.07 413.8a1.08 1.08 0 1 1-1.08-1.08 1.08 1.08 0 0 1 1.08 1.08z" class="cls-14" transform="translate(-125.995 -406.624)"/>
        <path id="Path_325" d="M156.414 453.23a1.08 1.08 0 1 1-1.08-1.08 1.08 1.08 0 0 1 1.08 1.08z" class="cls-14" transform="translate(-135.189 -438.548)"/>
        <path id="Path_326" d="M271.973 408.123a1.08 1.08 0 1 1-1.08-1.08 1.08 1.08 0 0 1 1.08 1.08z" class="cls-14" transform="translate(-228.85 -402.033)"/>
        <path id="Path_327" d="M395.533 408.123a1.08 1.08 0 1 1-1.08-1.08 1.08 1.08 0 0 1 1.08 1.08z" class="cls-14" transform="translate(-329.04 -402.033)"/>
        <circle id="Ellipse_42" cx="1.563" cy="1.563" r="1.563" class="cls-14" transform="translate(72.088 4.045)"/>
    </g>
</svg>
