<svg xmlns="http://www.w3.org/2000/svg" width="115.835" height="115.835" viewBox="0 0 115.835 115.835">
    <g>
        <path fill="#499ade" d="M70.478 65.783a29.839 29.839 0 0 1-1.54 5.76l6.253 5.666a37.7 37.7 0 0 1-3.028 5.284L64.135 79.9a30.042 30.042 0 0 1-4.232 4.23l2.588 8.029a37.9 37.9 0 0 1-5.284 3.028l-5.666-6.253a29.8 29.8 0 0 1-5.76 1.54L44 98.738c-1.009.08-2.021.154-3.052.154s-2.043-.074-3.054-.154l-1.783-8.26a29.839 29.839 0 0 1-5.76-1.54l-5.666 6.253a37.7 37.7 0 0 1-5.285-3.028l2.588-8.029a30.134 30.134 0 0 1-4.23-4.23l-8.03 2.589A37.9 37.9 0 0 1 6.7 77.209l6.253-5.666a29.8 29.8 0 0 1-1.54-5.76L3.154 64C3.074 62.989 3 61.976 3 60.946s.074-2.043.154-3.054l8.26-1.783a29.839 29.839 0 0 1 1.54-5.76L6.7 44.683A37.7 37.7 0 0 1 9.728 39.4l8.029 2.588a30.042 30.042 0 0 1 4.232-4.23l-2.589-8.03a37.9 37.9 0 0 1 5.285-3.028l5.666 6.253a29.8 29.8 0 0 1 5.76-1.54l1.783-8.26C38.9 23.074 39.915 23 40.946 23s2.043.074 3.054.154l1.783 8.26a29.839 29.839 0 0 1 5.76 1.54l5.666-6.254a37.7 37.7 0 0 1 5.284 3.028L59.9 37.757a30.041 30.041 0 0 1 4.23 4.232l8.033-2.589a37.9 37.9 0 0 1 3.028 5.284l-6.253 5.666a29.8 29.8 0 0 1 1.54 5.76l8.26 1.783c.08 1.009.154 2.021.154 3.052s-.074 2.043-.154 3.054zM40.946 40.974a19.972 19.972 0 1 0 19.971 19.972 19.971 19.971 0 0 0-19.971-19.972z" transform="translate(-3 -3) translate(0 19.943)"/>
        <path fill="#5dabed" d="M69.265 29.572a16.007 16.007 0 0 1-1.22 2.956l3.155 6.043a22.071 22.071 0 0 1-3.627 3.629l-6.043-3.157a15.736 15.736 0 0 1-2.956 1.22l-2.045 6.511a21.7 21.7 0 0 1-2.56.164 22.076 22.076 0 0 1-2.558-.162l-2.045-6.511a15.871 15.871 0 0 1-2.956-1.22L40.366 42.2a22.07 22.07 0 0 1-3.625-3.625l3.154-6.043a15.736 15.736 0 0 1-1.22-2.956l-6.511-2.045A21.7 21.7 0 0 1 32 24.969a22.076 22.076 0 0 1 .162-2.558l6.511-2.045a15.87 15.87 0 0 1 1.22-2.956l-3.154-6.043a22.07 22.07 0 0 1 3.625-3.625l6.043 3.154a15.736 15.736 0 0 1 2.956-1.22l2.045-6.511A21.7 21.7 0 0 1 53.969 3a22.076 22.076 0 0 1 2.558.162l2.045 6.511a15.87 15.87 0 0 1 2.956 1.22l6.043-3.154a22.07 22.07 0 0 1 3.629 3.625l-3.154 6.043a15.736 15.736 0 0 1 1.22 2.956l6.511 2.045a21.7 21.7 0 0 1 .164 2.56 22.074 22.074 0 0 1-.162 2.558zM53.969 16.98a7.989 7.989 0 1 0 7.989 7.989 7.989 7.989 0 0 0-7.989-7.989z" transform="translate(-3 -3) translate(28.917 0)"/>
        <path fill="#b9ddfd" d="M74.433 49.711a13.9 13.9 0 0 1-1.3 3.14l1.987 4.182a18.115 18.115 0 0 1-3.092 3.092l-4.182-1.987a13.863 13.863 0 0 1-3.14 1.3L63.157 63.8a16.415 16.415 0 0 1-4.366 0l-1.554-4.37a13.9 13.9 0 0 1-3.14-1.3l-4.182 1.987a18.115 18.115 0 0 1-3.092-3.092l1.987-4.182a13.885 13.885 0 0 1-1.3-3.138l-4.37-1.554a16.429 16.429 0 0 1 0-4.368l4.37-1.554a13.847 13.847 0 0 1 1.3-3.138l-1.987-4.182a18.114 18.114 0 0 1 3.092-3.092l4.185 1.997a13.863 13.863 0 0 1 3.14-1.3l1.554-4.37a17.5 17.5 0 0 1 2.18-.144 17.886 17.886 0 0 1 2.183.146l1.554 4.37a13.9 13.9 0 0 1 3.14 1.3l4.182-1.987a18.114 18.114 0 0 1 3.092 3.092L73.137 39.1a13.862 13.862 0 0 1 1.3 3.14l4.37 1.554a16.414 16.414 0 0 1 0 4.366zm-13.459-9.728a5.991 5.991 0 1 0 5.991 5.991 5.991 5.991 0 0 0-5.991-5.991z" transform="translate(-3 -3) translate(39.886 24.929)"/>
    </g>
</svg>
