<svg xmlns="http://www.w3.org/2000/svg" width="56.56" height="40.363" viewBox="0 0 56.56 40.363">
    <defs>
        <style>
            .cls-5{fill:#fff79f}.cls-6{fill:#ffde55}
        </style>
    </defs>
    <g id="question" transform="translate(0 -9)">
        <path id="Path_110" fill="#9dcffa" d="M16.16 214.32H1.469a1.469 1.469 0 0 1-1.11-2.432l3.167-3.651a16.16 16.16 0 1 1 12.634 6.083z" transform="translate(0 -164.957)"/>
        <g id="Group_307" transform="translate(16.16 17.043)">
            <path id="Path_111" fill="#5dabed" d="M165 182v32.32a16.16 16.16 0 1 0 0-32.32z" transform="translate(-165 -182)"/>
        </g>
        <g id="Group_309" transform="translate(24.24 9)">
            <path id="Path_116" fill="#20c7bc" d="M212.851 32.32H198.16a16.159 16.159 0 1 1 12.633-6.083l3.167 3.651a1.469 1.469 0 0 1-1.11 2.432z" transform="translate(-182)"/>
            <path id="Path_117" fill="#00a297" d="M362.8 29.888l-3.167-3.651A16.16 16.16 0 0 0 347 0v32.32h14.691a1.469 1.469 0 0 0 1.11-2.432z" transform="translate(-330.84)"/>
            <circle id="Ellipse_24" cx="1.63" cy="1.63" r="1.63" class="cls-5" transform="translate(14.78 22.974)"/>
            <path id="Path_118" d="M295.089 77.63a1.469 1.469 0 0 1-1.469-1.469V71.8a1.469 1.469 0 0 1 1.469-1.469 2.7 2.7 0 0 0 2.694-2.843 2.7 2.7 0 0 0-2.638-2.552h-.055a2.7 2.7 0 0 0-2.673 2.32 2.736 2.736 0 0 0-.026.378 1.469 1.469 0 1 1-2.938 0 5.7 5.7 0 0 1 .054-.784 5.637 5.637 0 1 1 7.051 6.224v3.086a1.469 1.469 0 0 1-1.469 1.47z" class="cls-5" transform="translate(-278.929 -55.928)"/>
            <g id="Group_308" transform="translate(16.16 6.073)">
                <path id="Path_119" d="M347 237v2.938a1.469 1.469 0 1 0 0-2.938z" class="cls-6" transform="translate(-347 -219.862)"/>
                <path id="Path_120" d="M352.628 67.347a5.653 5.653 0 0 0-5.513-5.337H347v2.937h.056a2.7 2.7 0 0 1 1.9 4.554 2.674 2.674 0 0 1-1.957.841v7.3a1.469 1.469 0 0 0 1.469-1.469v-3.089a5.66 5.66 0 0 0 2.618-1.56 5.59 5.59 0 0 0 1.542-4.177z" class="cls-6" transform="translate(-347 -62.009)"/>
            </g>
        </g>
        <g id="Group_310" fill="#fff" transform="translate(9.046 25.793)">
            <path id="Rectangle_1" d="M0 0H2.964V14.821H0z" opacity="0.652" transform="translate(5.632)"/>
            <path id="Rectangle_2" d="M0 0H2.964V14.228H0z" opacity="0.465" transform="rotate(-90 4.446 4.446)"/>
            <path id="Intersection_1" d="M0 2.964V0h2.964v2.964z" opacity="0.155" transform="translate(5.632 5.928)"/>
        </g>
    </g>
</svg>
