<svg xmlns="http://www.w3.org/2000/svg" id="savannah" width="140" height="140" viewBox="0 0 140 140">
    <defs>
        <style>
            .cls-4{fill:#dff7fd}.cls-7{fill:#6e6f83}.cls-9{fill:#ec771b}.cls-10{fill:#c55732}.cls-11{fill:#a44e3e}.cls-12{fill:#1eeadf}.cls-13{fill:#00c7bc}.cls-14{fill:#00a297}.cls-15{fill:#4ab6ba}.cls-16{fill:#5deae0}
        </style>
    </defs>
    <path id="Path_286" fill="#92eaff" d="M173.974 46.744c-31 40.1-92.835 34.847-116.7-9.907l-4.883-9.16a69.948 69.948 0 0 1 121.583 19.067z" transform="translate(-38.009)"/>
    <g id="Group_500" transform="translate(56.15 35.222)">
        <path id="Path_287" fill="#63dbfa" d="M286.342 140.337c-19.95 25.687-52.612 32.763-79.812 22.763a70.361 70.361 0 0 0 74.605-34.1 69.888 69.888 0 0 1 5.207 11.337z" transform="translate(-206.53 -129)"/>
    </g>
    <g id="Group_508" transform="translate(0 26.767)">
        <path id="Path_288" fill="#fff" d="M140 141.016a70.9 70.9 0 0 1-1.02 12.006q-.5 2.932-1.244 5.775-.525 2.022-1.165 3.994H3.426q-.636-1.971-1.165-3.991-.738-2.841-1.241-5.775a69.383 69.383 0 0 1-.848-7.049Q0 143.52 0 141.016a70.112 70.112 0 0 1 14.325-42.593 14.359 14.359 0 0 1 8.31 7.919c4.238-4.455 10.937-4.375 16.043-.958 2.286-5.6 9.387-9.152 15.173-7.439a12.817 12.817 0 0 1 8.635 14.131A14.312 14.312 0 0 1 70 110.459a12.942 12.942 0 0 1 3.292.6 13.718 13.718 0 0 1 8.014 6.994c2.486-3.206 6.141-4.057 10.18-3.769a12.6 12.6 0 0 1 9.868 6.237c2-2.995 6.675-4.307 10.145-3.393a8.96 8.96 0 0 1 6.47 7.776c1.974-3.321 8.769-2.978 11.293-.055a12.01 12.01 0 0 1 6.549-7.285c.057-.027.112-.052.17-.077A70.48 70.48 0 0 1 140 140.324v.692z" transform="translate(0 -97.512)"/>
        <path id="Path_289" d="M326.271 175.237a70.634 70.634 0 0 1-1.024 12.006q-.5 2.932-1.249 5.775-.527 2.022-1.169 3.994H256V144.68a13.037 13.037 0 0 1 3.3.6 13.755 13.755 0 0 1 8.046 6.994c2.5-3.206 6.165-4.057 10.219-3.769a12.656 12.656 0 0 1 9.907 6.236c2-2.995 6.7-4.307 10.184-3.393a8.969 8.969 0 0 1 6.495 7.776c1.982-3.321 8.8-2.978 11.337-.055a12.026 12.026 0 0 1 6.574-7.285l.17-.077a69.415 69.415 0 0 1 2.374 8.3c.052.214.1.431.143.645a70.422 70.422 0 0 1 1.515 13.895c.007.229.007.459.007.69z" class="cls-4" transform="translate(-186.271 -131.733)"/>
        <path id="Path_290" d="M140 172.959a70.9 70.9 0 0 1-1.02 12.006q-.5 2.932-1.244 5.775-.525 2.022-1.165 3.994a69.359 69.359 0 0 1-3.1 7.881H6.524a69.9 69.9 0 0 1-3.1-7.881q-.636-1.972-1.165-3.994-.738-2.841-1.241-5.775a69.384 69.384 0 0 1-.848-7.049Q0 175.462 0 172.959a70.141 70.141 0 0 1 7.375-31.419 17.431 17.431 0 0 1 11.837 7.549 12.284 12.284 0 0 1 8.9-4.126 13.94 13.94 0 0 1 9.743 3.854c1.463-4.3 6.007-7.288 10.432-6.305a9.671 9.671 0 0 1 7.249 10.121 6.736 6.736 0 0 1 7.807 2.912A12.168 12.168 0 0 1 70 152.479a7.808 7.808 0 0 1 3.06.291 10.57 10.57 0 0 1 6.973 7.274c2.256-4.054 7.262-6.135 11.848-5.509a11.917 11.917 0 0 1 9.718 8.776 6.755 6.755 0 0 1 5.759-4.428 9.6 9.6 0 0 1 7.2 2.44 15.643 15.643 0 0 1 4.246 6.495 8.34 8.34 0 0 1 5.608-5.177 8.652 8.652 0 0 1 7.563 1.861c.73-3.242 3.328-5.468 6.368-6.775.052.214.1.431.142.645A70.685 70.685 0 0 1 140 172.267v.692z" class="cls-4" transform="translate(0 -129.455)"/>
        <path id="Path_291" fill="#c5f2f9" d="M326.271 201.765a70.634 70.634 0 0 1-1.024 12.006q-.5 2.932-1.249 5.775-.527 2.022-1.169 3.994a69.211 69.211 0 0 1-3.107 7.881H256v-50.136a7.867 7.867 0 0 1 3.072.291 10.588 10.588 0 0 1 7 7.274c2.265-4.054 7.291-6.135 11.894-5.509a11.947 11.947 0 0 1 9.756 8.776 6.777 6.777 0 0 1 5.781-4.428 9.656 9.656 0 0 1 7.23 2.44 15.638 15.638 0 0 1 4.263 6.495 8.36 8.36 0 0 1 5.63-5.177 8.71 8.71 0 0 1 7.593 1.861c.733-3.242 3.341-5.468 6.393-6.775.052.214.1.431.143.645a70.422 70.422 0 0 1 1.515 13.895l.001.692z" transform="translate(-186.271 -158.457)"/>
        <path id="Path_292" fill="#7e7f92" d="M237.266 207.475a70.711 70.711 0 0 1-.645 9.55c-.112.823-.239 1.644-.379 2.457q-.5 2.932-1.249 5.775-.527 2.022-1.169 3.994-.815 2.516-1.817 4.944a133.149 133.149 0 0 1-98.684-7.1L167 206.16l5.888-3.659a3.884 3.884 0 0 1 4.68.439l6.72 6.182 30.241-19.39a3.879 3.879 0 0 1 4.686.373l18.045 16.154c0 .176.006.349.008.524-.002.231-.002.461-.002.692z" transform="translate(-97.266 -164.189)"/>
        <path id="Path_293" d="M326.271 207.475a70.726 70.726 0 0 1-.645 9.55c-.113.823-.239 1.644-.379 2.457q-.5 2.932-1.249 5.775-.527 2.022-1.169 3.994-.815 2.516-1.817 4.944A133.1 133.1 0 0 1 256 238.207V206.16l5.888-3.659a3.884 3.884 0 0 1 4.68.439l6.72 6.182 30.241-19.39a3.879 3.879 0 0 1 4.686.373l18.045 16.154c0 .176.005.349.008.524.003.231.003.461.003.692z" class="cls-7" transform="translate(-186.271 -164.189)"/>
        <path id="Path_294" d="M268.267 255.153c-.113.823-.239 1.644-.379 2.457q-.5 2.932-1.249 5.775-.527 2.022-1.169 3.994-.815 2.516-1.817 4.944a133.14 133.14 0 0 1-86.71-1.99l21.7-13.8 2.857-1.817a6.172 6.172 0 0 1 7.675.845l6.118 6.118 30.513-19.072a6.166 6.166 0 0 1 7.087.384c3.423 2.697 9.08 7.16 15.374 12.162z" class="cls-7" transform="translate(-128.912 -202.378)"/>
        <path id="Path_295" fill="#605f74" d="M325.626 255.153c-.113.823-.239 1.644-.379 2.457q-.5 2.932-1.249 5.775-.527 2.022-1.169 3.994-.815 2.516-1.817 4.944A133.1 133.1 0 0 1 256 276.336v-19.8l2.857-1.817a6.172 6.172 0 0 1 7.675.845l6.118 6.118 30.513-19.072a6.166 6.166 0 0 1 7.087.384c3.424 2.694 9.082 7.157 15.376 12.159z" transform="translate(-186.271 -202.378)"/>
        <g id="Group_502" transform="translate(9.226 19.212)">
            <path id="Path_296" d="M55.435 247.888h-3.069l.164-5.143.2-6.319h2.336l.2 6.319z" class="cls-9" transform="translate(-47.218 -217.632)"/>
            <path id="Path_297" d="M59.647 247.888h-1.476v-11.462h1.11l.2 6.319z" class="cls-10" transform="translate(-51.429 -217.632)"/>
            <path id="Path_298" d="M54.394 236.426v6.319h-1.429l.2-6.319z" class="cls-10" transform="translate(-47.652 -217.632)"/>
            <path id="Path_299" d="M59.483 242.745h-1.312v-6.319h1.11z" class="cls-11" transform="translate(-51.429 -217.632)"/>
            <g id="Group_501">
                <path id="Path_300" d="M45.12 188.763a6.8 6.8 0 0 1-9.534 0 6.56 6.56 0 0 1-1.264-7.661c1.321-2.6 2.7-5.167 3.825-7.858l2.206-5.286 2.2 5.275c1.125 2.695 2.507 5.267 3.829 7.871a6.559 6.559 0 0 1-1.262 7.659z" class="cls-12" transform="translate(-33.611 -167.958)"/>
                <path id="Path_301" d="M54.484 188.763a6.775 6.775 0 0 1-4.767 1.949c-.817 0-1.635-.65-2.262-1.949A12.411 12.411 0 0 1 46.88 181c.876-3.479 1.652-7.062 2.371-10.692l.465-2.35 2.2 5.275c1.125 2.695 2.507 5.267 3.829 7.871a6.559 6.559 0 0 1-1.261 7.659z" class="cls-13" transform="translate(-42.975 -167.958)"/>
                <path id="Path_302" d="M62.938 188.763a6.775 6.775 0 0 1-4.767 1.949v-22.754l2.2 5.275c1.129 2.695 2.509 5.267 3.829 7.867a6.559 6.559 0 0 1-1.265 7.659z" class="cls-14" transform="translate(-51.429 -167.958)"/>
            </g>
        </g>
        <g id="Group_504" transform="translate(25.664 26.19)">
            <path id="Path_303" d="M115.718 273.476h-3.069l.164-5.143.2-6.319h2.337l.2 6.319z" class="cls-9" transform="translate(-107.501 -243.22)"/>
            <path id="Path_304" d="M119.93 273.476h-1.476v-11.462h1.11l.2 6.319z" class="cls-10" transform="translate(-111.712 -243.22)"/>
            <path id="Path_305" d="M114.677 262.014v6.319h-1.429l.2-6.319z" class="cls-10" transform="translate(-107.935 -243.22)"/>
            <path id="Path_306" d="M119.766 268.333h-1.312v-6.319h1.11z" class="cls-11" transform="translate(-111.712 -243.22)"/>
            <g id="Group_503">
                <path id="Path_307" d="M105.4 214.351a6.8 6.8 0 0 1-9.534 0 6.56 6.56 0 0 1-1.266-7.661c1.321-2.6 2.7-5.167 3.825-7.858l2.206-5.286 2.2 5.275c1.125 2.695 2.507 5.267 3.829 7.871a6.559 6.559 0 0 1-1.26 7.659z" class="cls-12" transform="translate(-93.894 -193.546)"/>
                <path id="Path_308" d="M114.767 214.351A6.775 6.775 0 0 1 110 216.3c-.818 0-1.635-.65-2.262-1.949a12.412 12.412 0 0 1-.575-7.762c.876-3.479 1.652-7.062 2.371-10.692l.465-2.351 2.2 5.275c1.125 2.695 2.507 5.267 3.829 7.871a6.559 6.559 0 0 1-1.261 7.659z" class="cls-13" transform="translate(-103.258 -193.546)"/>
                <path id="Path_309" d="M123.221 214.351a6.775 6.775 0 0 1-4.767 1.949v-22.754l2.2 5.275c1.125 2.695 2.507 5.267 3.829 7.871a6.559 6.559 0 0 1-1.262 7.659z" class="cls-14" transform="translate(-111.712 -193.546)"/>
            </g>
        </g>
        <g id="Group_506" transform="translate(40.903 31.927)">
            <path id="Path_310" d="M171.475 294.511h-3.069l.164-5.143.2-6.319h2.336l.2 6.319z" class="cls-9" transform="translate(-163.258 -264.255)"/>
            <path id="Path_311" d="M175.687 294.511h-1.476v-11.462h1.11l.2 6.319z" class="cls-10" transform="translate(-167.469 -264.255)"/>
            <path id="Path_312" d="M170.433 283.049v6.319H169l.2-6.319z" class="cls-10" transform="translate(-163.691 -264.255)"/>
            <path id="Path_313" d="M175.523 289.368h-1.312v-6.319h1.11z" class="cls-11" transform="translate(-167.469 -264.255)"/>
            <g id="Group_505">
                <path id="Path_314" d="M161.159 235.387a6.8 6.8 0 0 1-9.534 0 6.56 6.56 0 0 1-1.264-7.661c1.321-2.6 2.7-5.167 3.825-7.858l2.206-5.286 2.2 5.275c1.125 2.695 2.507 5.267 3.829 7.871a6.559 6.559 0 0 1-1.264 7.659z" class="cls-12" transform="translate(-149.65 -214.582)"/>
                <path id="Path_315" d="M170.523 235.387a6.775 6.775 0 0 1-4.767 1.949c-.818 0-1.635-.65-2.262-1.949a12.411 12.411 0 0 1-.574-7.762c.876-3.479 1.652-7.062 2.371-10.692l.465-2.351 2.2 5.275c1.125 2.695 2.507 5.267 3.829 7.871a6.559 6.559 0 0 1-1.265 7.659z" class="cls-13" transform="translate(-159.014 -214.582)"/>
                <path id="Path_316" d="M178.977 235.387a6.775 6.775 0 0 1-4.767 1.949v-22.754l2.2 5.275c1.125 2.695 2.507 5.267 3.829 7.871a6.559 6.559 0 0 1-1.265 7.659z" class="cls-14" transform="translate(-167.468 -214.582)"/>
            </g>
        </g>
        <path id="Path_317" d="M134.738 270.622a70.108 70.108 0 0 1-64.532 43.554h-.216a70.095 70.095 0 0 1-61.846-37.347 70.354 70.354 0 0 1-5.883-15.141q-.738-2.841-1.241-5.775a69.392 69.392 0 0 1-.848-7.049Q0 246.409 0 243.906q0-2.306.148-4.576a232.1 232.1 0 0 0 69.842 26.947 234.191 234.191 0 0 0 47.981 4.941q8.456 0 16.767-.6z" class="cls-15" transform="translate(0 -200.943)"/>
        <path id="Path_318" d="M321.009 341.845a70.336 70.336 0 0 1-64.792 43.555H256v-47.9a236.042 236.042 0 0 0 48.174 4.941q8.49 0 16.835-.596z" class="cls-16" transform="translate(-186.271 -272.166)"/>
        <path id="Path_319" d="M142.41 362.257a70.271 70.271 0 0 1-7.549 9.95q-1.082 1.19-2.217 2.328a69.606 69.606 0 0 1-49.252 20.579h-.216a69.362 69.362 0 0 1-32.053-7.8 70.374 70.374 0 0 1-29.771-29.552 69.008 69.008 0 0 1-3.173-6.876 265.118 265.118 0 0 0 65 13.329q10.286.795 20.777.8h.823q2.722-.008 5.433-.074 3.522-.078 7.021-.253 12.751-.622 25.177-2.431z" class="cls-16" transform="translate(-13.19 -281.881)"/>
        <path id="Path_320" d="M315.491 392.3a70.348 70.348 0 0 1-59.274 32.857H256v-30.894q10.331.795 20.867.8h.826a270.292 270.292 0 0 0 37.798-2.763z" class="cls-15" transform="translate(-186.271 -311.924)"/>
        <path id="Path_321" fill="#20c7bc" d="M220.6 405.972a70.061 70.061 0 0 1-49.467 20.579h-.217a69.909 69.909 0 0 1-32.193-7.8 6.863 6.863 0 0 1 4.153-.695c2.182.236 4.515 1.287 6.253-.966 1.2-1.551.832-3.953 2.136-5.421 1.556-1.749 4.375-1.128 6.6-.379s5.064 1.323 6.571-.467.593-4.859 2.237-6.519c1.082-1.1 2.7-1.046 4.246-.574a11.693 11.693 0 0 1 1.919.8c1.96 1.013 4.312 2.179 6.239 1.1 2.786-1.554 2.185-6.467 5.084-7.8 2.852-1.309 5.847 2.2 8.97 1.891 2.018-.2 3.483-1.916 4.93-3.338l.008-.008c1.444-1.419 3.519-2.72 5.375-1.911a3.478 3.478 0 0 1 1.677 1.658c1.147 2.152 1.153 5.454 3.343 6.662 2.959 1.628 6.9-2.174 9.8-.45 1.268.752 1.735 2.234 2.336 3.632z" transform="translate(-101.184 -313.318)"/>
        <g id="Group_507" transform="translate(69.729 80.903)">
            <path id="Path_322" d="M305.684 405.971a70.061 70.061 0 0 1-49.467 20.579H256v-22.816a11.69 11.69 0 0 1 1.919.8c1.96 1.013 4.312 2.18 6.239 1.1 2.786-1.554 2.185-6.467 5.084-7.8 2.852-1.309 5.847 2.2 8.971 1.891 2.018-.2 3.483-1.916 4.93-3.338s3.524-2.731 5.383-1.919c3.069 1.337 2.089 6.706 5.021 8.32 2.959 1.628 6.9-2.174 9.8-.45 1.269.754 1.735 2.236 2.337 3.633z" class="cls-14" transform="translate(-256 -394.22)"/>
            <path id="Path_323" d="M305.684 405.971a70.061 70.061 0 0 1-49.467 20.579H256v-22.816a11.69 11.69 0 0 1 1.919.8c1.96 1.013 4.312 2.18 6.239 1.1 2.786-1.554 2.185-6.467 5.084-7.8 2.852-1.309 5.847 2.2 8.971 1.891 2.018-.2 3.483-1.916 4.93-3.338s3.524-2.731 5.383-1.919c3.069 1.337 2.089 6.706 5.021 8.32 2.959 1.628 6.9-2.174 9.8-.45 1.269.754 1.735 2.236 2.337 3.633z" class="cls-14" transform="translate(-256 -394.22)"/>
        </g>
    </g>
    <g id="Group_509" transform="translate(14.727 103.969)">
        <circle id="Ellipse_39" cx="2.579" cy="2.579" r="2.579" class="cls-14" transform="rotate(-74.157 3.284 2.482)"/>
        <circle id="Ellipse_40" cx="2.202" cy="2.202" r="2.202" class="cls-14" transform="rotate(-76.76 31.094 -16.966)"/>
        <circle id="Ellipse_41" cx="2.579" cy="2.579" r="2.579" class="cls-14" transform="rotate(-76.645 14.466 2.335)"/>
        <path id="Path_324" d="M146.023 414.272a1.557 1.557 0 1 1-1.557-1.557 1.557 1.557 0 0 1 1.557 1.557z" class="cls-14" transform="translate(-118.534 -403.938)"/>
        <path id="Path_325" d="M157.367 453.707a1.557 1.557 0 1 1-1.557-1.557 1.557 1.557 0 0 1 1.557 1.557z" class="cls-14" transform="translate(-126.78 -432.548)"/>
        <path id="Path_326" d="M272.926 408.6a1.557 1.557 0 1 1-1.557-1.557 1.557 1.557 0 0 1 1.557 1.557z" class="cls-14" transform="translate(-210.781 -399.823)"/>
        <path id="Path_327" d="M396.486 408.6a1.557 1.557 0 1 1-1.557-1.557 1.557 1.557 0 0 1 1.557 1.557z" class="cls-14" transform="translate(-300.662 -399.823)"/>
        <circle id="Ellipse_42" cx="2.253" cy="2.253" r="2.253" class="cls-14" transform="translate(103.887 5.829)"/>
    </g>
</svg>
